<svg width="24" height="24" viewBox="0 0 24 24" fill="none" xmlns="http://www.w3.org/2000/svg">
<path d="M10.8625 13.1375H5.93425C5.61509 13.1375 5.34567 13.0278 5.126 12.8083C4.9065 12.5886 4.79675 12.3192 4.79675 12C4.79675 11.6808 4.9065 11.4114 5.126 11.1918C5.34567 10.9723 5.61509 10.8625 5.93425 10.8625H10.8625V5.93425C10.8625 5.61509 10.9723 5.34567 11.1918 5.126C11.4114 4.9065 11.6808 4.79675 12 4.79675C12.3192 4.79675 12.5886 4.9065 12.8083 5.126C13.0278 5.34567 13.1375 5.61509 13.1375 5.93425V10.8625H18.0658C18.3849 10.8625 18.6543 10.9723 18.874 11.1918C19.0935 11.4114 19.2033 11.6808 19.2033 12C19.2033 12.3192 19.0935 12.5886 18.874 12.8083C18.6543 13.0278 18.3849 13.1375 18.0658 13.1375H13.1375V18.0658C13.1375 18.3849 13.0278 18.6543 12.8083 18.874C12.5886 19.0935 12.3192 19.2033 12 19.2033C11.6808 19.2033 11.4114 19.0935 11.1918 18.874C10.9723 18.6543 10.8625 18.3849 10.8625 18.0658V13.1375Z" fill="#253858"/>
</svg>
