<svg width="24" height="25" viewBox="0 0 24 25" fill="none" xmlns="http://www.w3.org/2000/svg">
<path d="M5.07175 22.7307C4.44209 22.7307 3.9055 22.509 3.462 22.0655C3.0185 21.622 2.79675 21.0854 2.79675 20.4557V9.22247C2.49275 9.0153 2.25009 8.75297 2.06875 8.43547C1.88742 8.1178 1.79675 7.7593 1.79675 7.35997V4.59922C1.79675 3.96955 2.0185 3.43297 2.462 2.98947C2.9055 2.54597 3.44209 2.32422 4.07175 2.32422H19.9283C20.5579 2.32422 21.0945 2.54597 21.538 2.98947C21.9815 3.43297 22.2033 3.96955 22.2033 4.59922V7.35997C22.2033 7.7593 22.1126 8.1178 21.9313 8.43547C21.7499 8.75297 21.5073 9.0153 21.2033 9.22247V20.4557C21.2033 21.0854 20.9815 21.622 20.538 22.0655C20.0945 22.509 19.5579 22.7307 18.9283 22.7307H5.07175ZM4.07175 7.35997H19.9343V4.59922H4.07175V7.35997ZM9.976 14.671H14.03C14.3332 14.671 14.5886 14.5671 14.7963 14.3595C15.0038 14.152 15.1075 13.8966 15.1075 13.5932C15.1075 13.2899 15.0038 13.0345 14.7963 12.827C14.5886 12.6193 14.3332 12.5155 14.03 12.5155H9.976C9.67284 12.5155 9.41742 12.6193 9.20975 12.827C9.00209 13.0345 8.89825 13.2899 8.89825 13.5932C8.89825 13.8966 9.00209 14.152 9.20975 14.3595C9.41742 14.5671 9.67284 14.671 9.976 14.671Z" fill="#253858"/>
</svg>
