<svg width="24" height="24" viewBox="0 0 24 24" fill="none" xmlns="http://www.w3.org/2000/svg">
<path d="M8.15376 13.1375L12.8208 17.8042C13.0486 18.0322 13.1593 18.2995 13.153 18.606C13.1467 18.9125 13.0296 19.1797 12.8018 19.4075C12.5738 19.6188 12.3065 19.7277 12 19.734C11.6935 19.7403 11.4263 19.6296 11.1983 19.4018L4.59826 12.8018C4.48643 12.6898 4.40468 12.5654 4.35301 12.4287C4.30135 12.2922 4.27551 12.1493 4.27551 12C4.27551 11.8507 4.30135 11.7078 4.35301 11.5713C4.40468 11.4346 4.48643 11.3102 4.59826 11.1982L11.2043 4.5925C11.4196 4.37717 11.6827 4.2695 11.9935 4.2695C12.3043 4.2695 12.5738 4.37717 12.8018 4.5925C13.0296 4.82033 13.1435 5.09067 13.1435 5.4035C13.1435 5.71633 13.0296 5.98675 12.8018 6.21475L8.15376 10.8625H19.0658C19.3849 10.8625 19.6543 10.9722 19.874 11.1917C20.0935 11.4114 20.2033 11.6808 20.2033 12C20.2033 12.3192 20.0935 12.5886 19.874 12.8082C19.6543 13.0277 19.3849 13.1375 19.0658 13.1375H8.15376Z" fill="#253858"/>
</svg>
