<svg width="24" height="24" viewBox="0 0 24 24" fill="none" xmlns="http://www.w3.org/2000/svg">
<path d="M10.8625 15.8463V4.93425C10.8625 4.61509 10.9722 4.34567 11.1917 4.126C11.4114 3.9065 11.6808 3.79675 12 3.79675C12.3191 3.79675 12.5886 3.9065 12.8082 4.126C13.0277 4.34567 13.1375 4.61509 13.1375 4.93425V15.8463L17.8042 11.1793C18.0322 10.9514 18.2995 10.8407 18.606 10.847C18.9125 10.8533 19.1796 10.9704 19.4075 11.1983C19.6188 11.4263 19.7276 11.6935 19.734 12C19.7403 12.3065 19.6296 12.5738 19.4017 12.8018L12.8017 19.4018C12.6897 19.5136 12.5654 19.5953 12.4287 19.647C12.2922 19.6987 12.1493 19.7245 12 19.7245C11.8506 19.7245 11.7077 19.6987 11.5712 19.647C11.4346 19.5953 11.3102 19.5136 11.1982 19.4018L4.59247 12.7958C4.37714 12.5804 4.26947 12.3173 4.26947 12.0065C4.26947 11.6957 4.37714 11.4263 4.59247 11.1983C4.8203 10.9704 5.09064 10.8565 5.40347 10.8565C5.7163 10.8565 5.98672 10.9704 6.21472 11.1983L10.8625 15.8463Z" fill="#253858"/>
</svg>
