<svg width="24" height="24" viewBox="0 0 24 24" fill="none" xmlns="http://www.w3.org/2000/svg">
<path d="M10.8625 8.15375L6.19575 12.8207C5.96775 13.0486 5.7005 13.1593 5.394 13.153C5.0875 13.1467 4.82034 13.0296 4.5925 12.8017C4.38117 12.5737 4.27234 12.3065 4.266 12C4.25967 11.6935 4.37042 11.4262 4.59825 11.1982L11.1983 4.59825C11.3103 4.48641 11.4346 4.40466 11.5713 4.353C11.7078 4.30133 11.8507 4.2755 12 4.2755C12.1493 4.2755 12.2923 4.30133 12.4288 4.353C12.5654 4.40466 12.6898 4.48641 12.8018 4.59825L19.4075 11.2042C19.6228 11.4196 19.7305 11.6827 19.7305 11.9935C19.7305 12.3043 19.6228 12.5737 19.4075 12.8017C19.1797 13.0296 18.9093 13.1435 18.5965 13.1435C18.2837 13.1435 18.0133 13.0296 17.7853 12.8017L13.1375 8.15375V19.0657C13.1375 19.3849 13.0278 19.6543 12.8083 19.874C12.5886 20.0935 12.3192 20.2032 12 20.2032C11.6808 20.2032 11.4114 20.0935 11.1918 19.874C10.9723 19.6543 10.8625 19.3849 10.8625 19.0657V8.15375Z" fill="#253858"/>
</svg>
