<svg width="24" height="24" viewBox="0 0 24 24" fill="none" xmlns="http://www.w3.org/2000/svg">
<path d="M15.8463 13.1375H4.93425C4.61509 13.1375 4.34567 13.0278 4.126 12.8083C3.9065 12.5886 3.79675 12.3192 3.79675 12C3.79675 11.6808 3.9065 11.4114 4.126 11.1918C4.34567 10.9723 4.61509 10.8625 4.93425 10.8625H15.8463L11.1793 6.19575C10.9514 5.96775 10.8407 5.7005 10.847 5.394C10.8533 5.0875 10.9704 4.82034 11.1983 4.5925C11.4263 4.38117 11.6935 4.27234 12 4.266C12.3065 4.25967 12.5738 4.37042 12.8018 4.59825L19.4018 11.1983C19.5136 11.3103 19.5953 11.4346 19.647 11.5713C19.6987 11.7078 19.7245 11.8507 19.7245 12C19.7245 12.1493 19.6987 12.2923 19.647 12.4288C19.5953 12.5654 19.5136 12.6898 19.4018 12.8018L12.7958 19.4075C12.5804 19.6228 12.3173 19.7305 12.0065 19.7305C11.6957 19.7305 11.4263 19.6228 11.1983 19.4075C10.9704 19.1797 10.8565 18.9093 10.8565 18.5965C10.8565 18.2837 10.9704 18.0133 11.1983 17.7853L15.8463 13.1375Z" fill="#253858"/>
</svg>
