<svg width="24" height="25" viewBox="0 0 24 25" fill="none" xmlns="http://www.w3.org/2000/svg">
<path d="M5.07175 21.7307C4.44609 21.7307 3.9105 21.508 3.465 21.0625C3.0195 20.617 2.79675 20.0814 2.79675 19.4557V5.59922C2.79675 4.97355 3.0195 4.43797 3.465 3.99247C3.9105 3.54697 4.44609 3.32422 5.07175 3.32422H9.0745C9.319 2.71622 9.70542 2.23089 10.2338 1.86822C10.7619 1.50555 11.3507 1.32422 12 1.32422C12.6493 1.32422 13.2381 1.50555 13.7663 1.86822C14.2946 2.23089 14.681 2.71622 14.9255 3.32422H18.9283C19.5539 3.32422 20.0895 3.54697 20.535 3.99247C20.9805 4.43797 21.2033 4.97355 21.2033 5.59922V19.4557C21.2033 20.0814 20.9805 20.617 20.535 21.0625C20.0895 21.508 19.5539 21.7307 18.9283 21.7307H5.07175ZM8.07175 17.4557H12.982C13.2653 17.4557 13.5028 17.3599 13.6945 17.1682C13.8862 16.9766 13.982 16.7391 13.982 16.4557C13.982 16.1724 13.8862 15.9349 13.6945 15.7432C13.5028 15.5516 13.2653 15.4557 12.982 15.4557H8.07175C7.78842 15.4557 7.55092 15.5516 7.35925 15.7432C7.16759 15.9349 7.07175 16.1724 7.07175 16.4557C7.07175 16.7391 7.16759 16.9766 7.35925 17.1682C7.55092 17.3599 7.78842 17.4557 8.07175 17.4557ZM8.07175 13.5275H15.9283C16.2116 13.5275 16.4491 13.4316 16.6408 13.24C16.8324 13.0483 16.9283 12.8108 16.9283 12.5275C16.9283 12.2441 16.8324 12.0066 16.6408 11.815C16.4491 11.6233 16.2116 11.5275 15.9283 11.5275H8.07175C7.78842 11.5275 7.55092 11.6233 7.35925 11.815C7.16759 12.0066 7.07175 12.2441 7.07175 12.5275C7.07175 12.8108 7.16759 13.0483 7.35925 13.24C7.55092 13.4316 7.78842 13.5275 8.07175 13.5275ZM8.07175 9.59922H15.9283C16.2116 9.59922 16.4491 9.50339 16.6408 9.31172C16.8324 9.12005 16.9283 8.88255 16.9283 8.59922C16.9283 8.31589 16.8324 8.07839 16.6408 7.88672C16.4491 7.69505 16.2116 7.59922 15.9283 7.59922H8.07175C7.78842 7.59922 7.55092 7.69505 7.35925 7.88672C7.16759 8.07839 7.07175 8.31589 7.07175 8.59922C7.07175 8.88255 7.16759 9.12005 7.35925 9.31172C7.55092 9.50339 7.78842 9.59922 8.07175 9.59922ZM12 4.82522C12.2305 4.82522 12.4211 4.74989 12.5718 4.59922C12.7224 4.44855 12.7978 4.25797 12.7978 4.02747C12.7978 3.79697 12.7224 3.60639 12.5718 3.45572C12.4211 3.30505 12.2305 3.22972 12 3.22972C11.7695 3.22972 11.5789 3.30505 11.4283 3.45572C11.2776 3.60639 11.2023 3.79697 11.2023 4.02747C11.2023 4.25797 11.2776 4.44855 11.4283 4.59922C11.5789 4.74989 11.7695 4.82522 12 4.82522Z" fill="#253858"/>
</svg>
