<svg width="24" height="25" viewBox="0 0 24 25" fill="none" xmlns="http://www.w3.org/2000/svg">
<path d="M12 20.408C13.2142 20.408 14.2478 19.9814 15.1008 19.1282C15.9539 18.2752 16.3805 17.2416 16.3805 16.0275C16.3805 14.8133 15.9539 13.7797 15.1008 12.9267C14.2478 12.0735 13.2142 11.647 12 11.647C10.7858 11.647 9.75226 12.0735 8.89926 12.9267C8.04609 13.7797 7.61951 14.8133 7.61951 16.0275C7.61951 17.2416 8.04609 18.2752 8.89926 19.1282C9.75226 19.9814 10.7858 20.408 12 20.408ZM9.14076 10.09C9.44226 9.93045 9.75959 9.80254 10.0928 9.7062C10.4259 9.60987 10.7642 9.54304 11.1075 9.5057L8.67826 4.64695H6.44126L9.14076 10.09ZM6.23251 19.208C5.97317 18.7365 5.77034 18.2325 5.62401 17.6962C5.47751 17.1599 5.40426 16.6036 5.40426 16.0275C5.40426 15.4513 5.47751 14.895 5.62401 14.3587C5.77034 13.8224 5.97317 13.3185 6.23251 12.847C5.56451 13.0763 5.01542 13.4769 4.58526 14.0487C4.15526 14.6204 3.94026 15.28 3.94026 16.0275C3.94026 16.775 4.15526 17.4345 4.58526 18.0062C5.01542 18.578 5.56451 18.9786 6.23251 19.208ZM17.7675 19.208C18.4355 18.9786 18.9846 18.578 19.4148 18.0062C19.8448 17.4345 20.0598 16.775 20.0598 16.0275C20.0598 15.28 19.8448 14.6204 19.4148 14.0487C18.9846 13.4769 18.4355 13.0763 17.7675 12.847C18.0268 13.3185 18.2297 13.8224 18.376 14.3587C18.5225 14.895 18.5958 15.4513 18.5958 16.0275C18.5958 16.6036 18.5225 17.1599 18.376 17.6962C18.2297 18.2325 18.0268 18.7365 17.7675 19.208ZM12 22.6232C11.3213 22.6232 10.6728 22.5264 10.0545 22.3327C9.43634 22.139 8.86492 21.8695 8.34026 21.5242C8.17026 21.5655 8.00034 21.5924 7.83051 21.6047C7.66051 21.617 7.48226 21.6232 7.29576 21.6232C5.75109 21.6232 4.43651 21.0809 3.35201 19.9962C2.26734 18.9115 1.72501 17.597 1.72501 16.0525C1.72501 14.5746 2.22026 13.307 3.21076 12.2497C4.20142 11.1925 5.42101 10.6095 6.86951 10.5007L3.67126 4.0792C3.48059 3.69804 3.49509 3.32812 3.71476 2.96945C3.93426 2.61095 4.25959 2.4317 4.69076 2.4317H8.66151C9.09667 2.4317 9.49226 2.5457 9.84826 2.7737C10.2044 3.00153 10.4842 3.30604 10.6875 3.6872L12 6.3122L13.3125 3.6872C13.5158 3.30604 13.7956 3.00153 14.1518 2.7737C14.5078 2.5457 14.9033 2.4317 15.3385 2.4317H19.3093C19.7404 2.4317 20.0658 2.61095 20.2853 2.96945C20.5049 3.32812 20.5194 3.69804 20.3288 4.0792L17.1555 10.4507C18.604 10.5762 19.8194 11.1675 20.8018 12.2247C21.7839 13.282 22.275 14.5496 22.275 16.0275C22.275 17.5846 21.7317 18.9065 20.645 19.9932C19.5585 21.0799 18.2366 21.6232 16.6793 21.6232C16.5094 21.6232 16.3363 21.616 16.16 21.6017C15.9838 21.5874 15.8108 21.5615 15.6408 21.5242C15.1161 21.8695 14.5478 22.139 13.9358 22.3327C13.3239 22.5264 12.6787 22.6232 12 22.6232ZM12 17.3475L10.8885 18.189C10.7767 18.2801 10.6638 18.2843 10.5498 18.2015C10.4358 18.1185 10.3974 18.0106 10.4348 17.878L10.868 16.4905L9.76251 15.6992C9.65051 15.6079 9.61417 15.5 9.65351 15.3757C9.69284 15.2515 9.78517 15.1895 9.93051 15.1895H11.287L11.72 13.714C11.7613 13.5813 11.8547 13.515 12 13.515C12.1453 13.515 12.2387 13.5813 12.28 13.714L12.713 15.1895H14.0695C14.2148 15.1895 14.3072 15.2515 14.3465 15.3757C14.3858 15.5 14.3495 15.6079 14.2375 15.6992L13.132 16.4905L13.5653 17.878C13.6026 18.0106 13.5643 18.1185 13.4503 18.2015C13.3363 18.2843 13.2233 18.2801 13.1115 18.189L12 17.3475ZM14.8593 10.09L17.5778 4.64695H15.3218L13.2445 8.80145L13.6658 9.6497C13.8753 9.70837 14.0773 9.7712 14.272 9.8382C14.4668 9.90537 14.6626 9.98929 14.8593 10.09Z" fill="#253858"/>
</svg>
