<svg width="24" height="25" viewBox="0 0 24 25" fill="none" xmlns="http://www.w3.org/2000/svg">
<path d="M7.29576 21.6232C5.75109 21.6232 4.43651 21.0809 3.35201 19.9962C2.26734 18.9115 1.72501 17.597 1.72501 16.0525C1.72501 14.5873 2.21609 13.3229 3.19826 12.2592C4.18059 11.1957 5.40434 10.6095 6.86951 10.5007L3.67126 4.0792C3.48059 3.69804 3.49509 3.32812 3.71476 2.96945C3.93426 2.61095 4.25959 2.4317 4.69076 2.4317H8.66151C9.09667 2.4317 9.49226 2.5457 9.84826 2.7737C10.2044 3.00153 10.4842 3.30604 10.6875 3.6872L12 6.3122L13.3125 3.6872C13.5158 3.30604 13.7956 3.00153 14.1518 2.7737C14.5078 2.5457 14.9033 2.4317 15.3385 2.4317H19.3093C19.7404 2.4317 20.0658 2.61095 20.2853 2.96945C20.5049 3.32812 20.5194 3.69804 20.3288 4.0792L17.1555 10.4507C18.608 10.5762 19.8243 11.1707 20.8045 12.2342C21.7848 13.2979 22.275 14.5623 22.275 16.0275C22.275 17.5846 21.7317 18.9065 20.645 19.9932C19.5585 21.0799 18.2366 21.6232 16.6793 21.6232C16.5094 21.6232 16.3363 21.616 16.16 21.6017C15.9838 21.5874 15.8108 21.5615 15.6408 21.5242C16.5893 20.9442 17.3188 20.163 17.8295 19.1807C18.3403 18.1985 18.5958 17.1475 18.5958 16.0275C18.5958 14.187 17.9566 12.6275 16.6783 11.3492C15.3999 10.0709 13.8405 9.4317 12 9.4317C10.1595 9.4317 8.60009 10.0709 7.32176 11.3492C6.04342 12.6275 5.40426 14.187 5.40426 16.0275C5.40426 17.1768 5.64059 18.2584 6.11326 19.2722C6.58592 20.2862 7.32826 21.0369 8.34026 21.5242C8.17026 21.5655 7.99617 21.5924 7.81801 21.6047C7.63967 21.617 7.46559 21.6232 7.29576 21.6232ZM12 20.6232C10.7262 20.6232 9.64176 20.1757 8.74676 19.2807C7.85176 18.3857 7.40426 17.3013 7.40426 16.0275C7.40426 14.7536 7.85176 13.6692 8.74676 12.7742C9.64176 11.8792 10.7262 11.4317 12 11.4317C13.2738 11.4317 14.3583 11.8792 15.2533 12.7742C16.1483 13.6692 16.5958 14.7536 16.5958 16.0275C16.5958 17.3013 16.1483 18.3857 15.2533 19.2807C14.3583 20.1757 13.2738 20.6232 12 20.6232ZM12 17.3475L13.1115 18.189C13.2233 18.2801 13.3363 18.2843 13.4503 18.2015C13.5643 18.1185 13.6026 18.0106 13.5653 17.878L13.132 16.4905L14.2375 15.6992C14.3495 15.6079 14.3858 15.5 14.3465 15.3757C14.3072 15.2515 14.2148 15.1895 14.0695 15.1895H12.713L12.28 13.714C12.2387 13.5813 12.1453 13.515 12 13.515C11.8547 13.515 11.7613 13.5813 11.72 13.714L11.287 15.1895H9.93051C9.78517 15.1895 9.69284 15.2515 9.65351 15.3757C9.61417 15.5 9.65051 15.6079 9.76251 15.6992L10.868 16.4905L10.4348 17.878C10.3974 18.0106 10.4358 18.1185 10.5498 18.2015C10.6638 18.2843 10.7767 18.2801 10.8885 18.189L12 17.3475Z" fill="#253858"/>
</svg>
