<svg width="25" height="25" viewBox="0 0 25 25" fill="none" xmlns="http://www.w3.org/2000/svg">
<path d="M5.04863 19.7307C4.72947 19.7307 4.46005 19.621 4.24038 19.4015C4.02088 19.1818 3.91113 18.9124 3.91113 18.5932C3.91113 18.2741 4.02088 18.0046 4.24038 17.785C4.46005 17.5655 4.72947 17.4557 5.04863 17.4557H5.83938V10.659C5.83938 9.2238 6.26705 7.9438 7.12238 6.81897C7.97755 5.69413 9.09572 4.95914 10.4769 4.61397V3.96172C10.4769 3.50522 10.6356 3.11814 10.9531 2.80047C11.2708 2.48297 11.6579 2.32422 12.1144 2.32422C12.5709 2.32422 12.958 2.48297 13.2756 2.80047C13.5931 3.11814 13.7519 3.50522 13.7519 3.96172V4.61397C15.137 4.95914 16.2562 5.69314 17.1094 6.81597C17.9627 7.9388 18.3894 9.2198 18.3894 10.659V17.4557H19.1801C19.4993 17.4557 19.7687 17.5655 19.9884 17.785C20.2079 18.0046 20.3176 18.2741 20.3176 18.5932C20.3176 18.9124 20.2079 19.1818 19.9884 19.4015C19.7687 19.621 19.4993 19.7307 19.1801 19.7307H5.04863ZM12.1204 22.7965C11.5504 22.7965 11.0626 22.5946 10.6571 22.191C10.2515 21.7875 10.0486 21.3007 10.0486 20.7307H14.1861C14.1861 21.3007 13.9843 21.7875 13.5806 22.191C13.177 22.5946 12.6902 22.7965 12.1204 22.7965Z" fill="#253858"/>
</svg>
