<svg width="24" height="25" viewBox="0 0 24 25" fill="none" xmlns="http://www.w3.org/2000/svg">
<path d="M8.8208 15.7547H5.8643C5.40846 15.7547 5.07171 15.5516 4.85405 15.1454C4.63655 14.7393 4.66038 14.3456 4.92555 13.9644L12.6995 2.77795C12.8782 2.52861 13.1098 2.3562 13.3943 2.2607C13.679 2.16503 13.969 2.17111 14.2643 2.27895C14.5595 2.38695 14.7807 2.57295 14.928 2.83695C15.0754 3.10095 15.1304 3.38453 15.093 3.6877L14.275 10.3002H18.0185C18.5077 10.3002 18.8527 10.5178 19.0535 10.9529C19.2545 11.3881 19.1954 11.7943 18.876 12.1714L10.3463 22.4099C10.151 22.6426 9.91196 22.7923 9.6293 22.8589C9.3468 22.9256 9.07055 22.8986 8.80055 22.7779C8.53071 22.6573 8.32196 22.4682 8.1743 22.2107C8.02663 21.953 7.97146 21.6745 8.0088 21.3752L8.8208 15.7547Z" fill="#253858"/>
</svg>
