<svg width="24" height="25" viewBox="0 0 24 25" fill="none" xmlns="http://www.w3.org/2000/svg">
<path d="M6.012 15.7927C6.2285 15.6911 6.45284 15.6185 6.685 15.575C6.917 15.5313 7.15675 15.5095 7.40425 15.5095H8.012V4.53947H7.40425C7.01759 4.53947 6.68884 4.6748 6.418 4.94547C6.14734 5.2163 6.012 5.54505 6.012 5.93172V15.7927ZM10.2273 15.5095H17.988V4.53947H10.2273V15.5095ZM7.40425 22.7307C6.40575 22.7307 5.55492 22.3791 4.85175 21.6757C4.14842 20.9726 3.79675 20.1217 3.79675 19.1232V5.93172C3.79675 4.93322 4.14842 4.08239 4.85175 3.37922C5.55492 2.67589 6.40575 2.32422 7.40425 2.32422H17.9283C18.5579 2.32422 19.0945 2.54597 19.538 2.98947C19.9815 3.43297 20.2033 3.96955 20.2033 4.59922V17.202C20.2033 17.349 20.1501 17.4821 20.0438 17.6015C19.9374 17.721 19.7546 17.8411 19.4953 17.9617C19.2818 18.0672 19.1143 18.2209 18.993 18.4227C18.8717 18.6247 18.811 18.8578 18.811 19.122C18.811 19.3861 18.8718 19.6226 18.9933 19.8312C19.1149 20.0399 19.2822 20.1906 19.495 20.2835C19.7165 20.3795 19.8899 20.519 20.0153 20.702C20.1406 20.885 20.2033 21.0906 20.2033 21.3187V21.6042C20.2033 21.9156 20.0965 22.1811 19.883 22.401C19.6693 22.6208 19.4069 22.7307 19.0958 22.7307H7.40425ZM7.40425 20.5155H16.8788C16.7916 20.2978 16.7227 20.0761 16.672 19.8505C16.6212 19.625 16.5958 19.3819 16.5958 19.1212C16.5958 18.8757 16.6175 18.6368 16.661 18.4045C16.7045 18.1721 16.7771 17.9476 16.8788 17.7307H7.40425C7.00209 17.7307 6.6695 17.8661 6.4065 18.137C6.1435 18.4076 6.012 18.7364 6.012 19.1232C6.012 19.5254 6.1435 19.858 6.4065 20.121C6.6695 20.384 7.00209 20.5155 7.40425 20.5155Z" fill="#253858"/>
</svg>
