<svg width="24" height="25" viewBox="0 0 24 25" fill="none" xmlns="http://www.w3.org/2000/svg">
<path d="M13 17.7987C13.7333 17.4487 14.4708 17.1862 15.2125 17.0112C15.9542 16.8362 16.7167 16.7487 17.5 16.7487C18.1 16.7487 18.6875 16.7987 19.2625 16.8987C19.8375 16.9987 20.4167 17.1487 21 17.3487V7.44873C20.45 7.2154 19.8792 7.0404 19.2875 6.92373C18.6958 6.80707 18.1 6.74873 17.5 6.74873C16.7167 6.74873 15.9417 6.84873 15.175 7.04873C14.4083 7.24873 13.6833 7.54873 13 7.94873V17.7987ZM12.018 20.427C11.7807 20.427 11.5518 20.3978 11.3315 20.3395C11.1112 20.2811 10.9073 20.198 10.72 20.09C10.074 19.7106 9.39534 19.4221 8.68401 19.2245C7.97251 19.0268 7.24451 18.928 6.50001 18.928C5.81368 18.928 5.13951 19.0206 4.47751 19.206C3.81568 19.3913 3.18042 19.6466 2.57176 19.972C2.16592 20.1833 1.77159 20.1737 1.38876 19.9432C1.00609 19.7126 0.814758 19.3763 0.814758 18.9345V6.89048C0.814758 6.65132 0.871508 6.42615 0.985008 6.21498C1.09868 6.00365 1.26909 5.84515 1.49626 5.73948C2.28359 5.35615 3.09276 5.06432 3.92376 4.86398C4.75459 4.66348 5.60718 4.56323 6.48151 4.56323C7.45651 4.56323 8.40851 4.68823 9.33751 4.93823C10.2665 5.18823 11.154 5.56923 12 6.08123C12.85 5.57323 13.7385 5.19323 14.6655 4.94123C15.5925 4.68923 16.5435 4.56323 17.5185 4.56323C18.3928 4.56323 19.2454 4.66348 20.0763 4.86398C20.9073 5.06432 21.7164 5.35615 22.5038 5.73948C22.7309 5.84515 22.9013 6.00365 23.015 6.21498C23.1285 6.42615 23.1853 6.65132 23.1853 6.89048V19.0242C23.1853 19.4514 22.9949 19.77 22.6143 19.98C22.2334 20.19 21.8381 20.1873 21.4283 19.972C20.8196 19.6466 20.1843 19.3913 19.5225 19.206C18.8605 19.0206 18.1863 18.928 17.5 18.928C16.758 18.928 16.0357 19.0278 15.333 19.2275C14.6302 19.4271 13.9578 19.7146 13.3158 20.09C13.1284 20.198 12.9246 20.2811 12.7043 20.3395C12.4841 20.3978 12.2553 20.427 12.018 20.427ZM14 9.51173C14 9.36557 14.0522 9.21532 14.1565 9.06098C14.2608 8.90682 14.3797 8.80473 14.513 8.75473C14.9963 8.58807 15.4817 8.46207 15.969 8.37673C16.4563 8.2914 16.9667 8.24873 17.5 8.24873C17.8333 8.24873 18.1625 8.26965 18.4875 8.31148C18.8125 8.35348 19.1333 8.40807 19.45 8.47523C19.6 8.50873 19.7292 8.59257 19.8375 8.72673C19.9458 8.8609 20 9.0119 20 9.17973C20 9.46307 19.9083 9.6704 19.725 9.80173C19.5417 9.93307 19.3083 9.9654 19.025 9.89873C18.7877 9.84873 18.5418 9.81123 18.2875 9.78623C18.0332 9.76123 17.7707 9.74873 17.5 9.74873C17.0667 9.74873 16.6437 9.7894 16.231 9.87073C15.8183 9.95207 15.4203 10.0594 15.037 10.1927C14.7335 10.3094 14.4848 10.3007 14.2908 10.1667C14.0969 10.0327 14 9.8144 14 9.51173ZM14 15.0117C14 14.8656 14.0522 14.7153 14.1565 14.561C14.2608 14.4068 14.3797 14.3047 14.513 14.2547C14.9963 14.0881 15.4817 13.9621 15.969 13.8767C16.4563 13.7914 16.9667 13.7487 17.5 13.7487C17.8333 13.7487 18.1625 13.7696 18.4875 13.8115C18.8125 13.8535 19.1333 13.9081 19.45 13.9752C19.6 14.0087 19.7292 14.0926 19.8375 14.2267C19.9458 14.3609 20 14.5119 20 14.6797C20 14.9631 19.9083 15.1704 19.725 15.3017C19.5417 15.4331 19.3083 15.4654 19.025 15.3987C18.7877 15.3487 18.5418 15.3112 18.2875 15.2862C18.0332 15.2612 17.7707 15.2487 17.5 15.2487C17.0667 15.2487 16.6437 15.2852 16.231 15.3582C15.8183 15.4312 15.4203 15.5344 15.037 15.6677C14.7335 15.7844 14.4848 15.7799 14.2908 15.6542C14.0969 15.5287 14 15.3146 14 15.0117ZM14 12.2617C14 12.1156 14.0522 11.9653 14.1565 11.811C14.2608 11.6568 14.3797 11.5547 14.513 11.5047C14.9963 11.3381 15.4817 11.2121 15.969 11.1267C16.4563 11.0414 16.9667 10.9987 17.5 10.9987C17.8333 10.9987 18.1625 11.0196 18.4875 11.0615C18.8125 11.1035 19.1333 11.1581 19.45 11.2252C19.6 11.2587 19.7292 11.3426 19.8375 11.4767C19.9458 11.6109 20 11.7619 20 11.9297C20 12.2131 19.9083 12.4204 19.725 12.5517C19.5417 12.6831 19.3083 12.7154 19.025 12.6487C18.7877 12.5987 18.5418 12.5612 18.2875 12.5362C18.0332 12.5112 17.7707 12.4987 17.5 12.4987C17.0667 12.4987 16.6437 12.5394 16.231 12.6207C15.8183 12.7021 15.4203 12.8094 15.037 12.9427C14.7335 13.0594 14.4848 13.0507 14.2908 12.9167C14.0969 12.7827 14 12.5644 14 12.2617Z" fill="#253858"/>
</svg>
