<svg width="24" height="25" viewBox="0 0 24 25" fill="none" xmlns="http://www.w3.org/2000/svg">
<path d="M7.40425 22.7307C6.40575 22.7307 5.55492 22.3791 4.85175 21.6757C4.14842 20.9726 3.79675 20.1217 3.79675 19.1232V5.93172C3.79675 4.93322 4.14842 4.08239 4.85175 3.37922C5.55492 2.67589 6.40575 2.32422 7.40425 2.32422H17.9283C18.5579 2.32422 19.0945 2.54597 19.538 2.98947C19.9815 3.43297 20.2033 3.96955 20.2033 4.59922V17.202C20.2033 17.3473 20.1501 17.4801 20.0438 17.6002C19.9374 17.7206 19.7545 17.8414 19.495 17.9627C19.2817 18.0676 19.1143 18.2213 18.993 18.424C18.8717 18.6266 18.811 18.8597 18.811 19.1232C18.811 19.3866 18.8717 19.6227 18.993 19.8317C19.1143 20.0409 19.2817 20.1915 19.495 20.2835C19.7165 20.3795 19.8899 20.519 20.0153 20.702C20.1406 20.885 20.2033 21.0904 20.2033 21.3182V21.6042C20.2033 21.9154 20.0965 22.1809 19.883 22.4007C19.6693 22.6207 19.4069 22.7307 19.0958 22.7307H7.40425ZM9.1195 15.5095C9.43084 15.5095 9.69325 15.4027 9.90675 15.1892C10.1204 14.9756 10.2273 14.7131 10.2273 14.402V5.64697C10.2273 5.3358 10.1204 5.07339 9.90675 4.85972C9.69325 4.64622 9.43084 4.53947 9.1195 4.53947C8.80834 4.53947 8.54592 4.64622 8.33225 4.85972C8.11875 5.07339 8.012 5.3358 8.012 5.64697V14.402C8.012 14.7131 8.11875 14.9756 8.33225 15.1892C8.54592 15.4027 8.80834 15.5095 9.1195 15.5095ZM7.40425 20.5155H16.8788C16.7908 20.2981 16.7216 20.0766 16.6713 19.8507C16.6209 19.6251 16.5958 19.3826 16.5958 19.1232C16.5958 18.8764 16.6178 18.637 16.6618 18.405C16.7058 18.1728 16.7781 17.9481 16.8788 17.7307H7.40425C7.00292 17.7307 6.6705 17.8666 6.407 18.1382C6.14367 18.4101 6.012 18.7384 6.012 19.1232C6.012 19.5246 6.14367 19.857 6.407 20.1205C6.6705 20.3838 7.00292 20.5155 7.40425 20.5155Z" fill="#253858"/>
</svg>
