<svg width="24" height="24" viewBox="0 0 24 24" fill="none" xmlns="http://www.w3.org/2000/svg">
<path d="M2.72498 19V8.99999C2.72498 8.37032 2.94673 7.83374 3.39023 7.39024C3.83373 6.94674 4.37031 6.72499 4.99998 6.72499H8.72498V5.83099C8.72498 5.53649 8.78098 5.2534 8.89298 4.98174C9.00481 4.71024 9.16439 4.47082 9.37173 4.26349L10.3837 3.25174C10.8229 2.81257 11.3616 2.59299 12 2.59299C12.6383 2.59299 13.1771 2.81257 13.6162 3.25174L14.6162 4.25174C14.8276 4.4629 14.9901 4.70624 15.104 4.98174C15.218 5.25724 15.275 5.54632 15.275 5.84899V10.725H19C19.6296 10.725 20.1662 10.9467 20.6097 11.3902C21.0532 11.8337 21.275 12.3703 21.275 13V19C21.275 19.6297 21.0532 20.1662 20.6097 20.6097C20.1662 21.0532 19.6296 21.275 19 21.275H4.99998C4.37031 21.275 3.83373 21.0532 3.39023 20.6097C2.94673 20.1662 2.72498 19.6297 2.72498 19ZM4.99998 19H6.99998V17H4.99998V19ZM4.99998 15H6.99998V13H4.99998V15ZM4.99998 11H6.99998V8.99999H4.99998V11ZM11 19H13V17H11V19ZM11 15H13V13H11V15ZM11 11H13V8.99999H11V11ZM11 6.99999H13V4.99999H11V6.99999ZM17 19H19V17H17V19ZM17 15H19V13H17V15Z" fill="#253858"/>
</svg>
