<svg width="24" height="25" viewBox="0 0 24 25" fill="none" xmlns="http://www.w3.org/2000/svg">
<path d="M9.04775 17.0752C8.34775 17.0752 7.75609 16.8336 7.27275 16.3502C6.78942 15.8669 6.54775 15.2752 6.54775 14.5752C6.54775 13.8752 6.78942 13.2836 7.27275 12.8002C7.75609 12.3169 8.34775 12.0752 9.04775 12.0752C9.74775 12.0752 10.3394 12.3169 10.8228 12.8002C11.3061 13.2836 11.5478 13.8752 11.5478 14.5752C11.5478 15.2752 11.3061 15.8669 10.8228 16.3502C10.3394 16.8336 9.74775 17.0752 9.04775 17.0752ZM5.07175 22.7307C4.44209 22.7307 3.9055 22.509 3.462 22.0655C3.0185 21.622 2.79675 21.0854 2.79675 20.4557V6.59922C2.79675 5.96955 3.0185 5.43297 3.462 4.98947C3.9055 4.54597 4.44209 4.32422 5.07175 4.32422H6V3.38997C6 3.09064 6.10384 2.83822 6.3115 2.63272C6.519 2.42705 6.77242 2.32422 7.07175 2.32422C7.37109 2.32422 7.6235 2.42705 7.829 2.63272C8.03467 2.83822 8.1375 3.09064 8.1375 3.38997V4.32422H15.8625V3.38997C15.8625 3.09064 15.9663 2.83822 16.174 2.63272C16.3815 2.42705 16.6349 2.32422 16.9343 2.32422C17.2336 2.32422 17.486 2.42705 17.6915 2.63272C17.8972 2.83822 18 3.09064 18 3.38997V4.32422H18.9283C19.5579 4.32422 20.0945 4.54597 20.538 4.98947C20.9815 5.43297 21.2033 5.96955 21.2033 6.59922V20.4557C21.2033 21.0854 20.9815 21.622 20.538 22.0655C20.0945 22.509 19.5579 22.7307 18.9283 22.7307H5.07175ZM5.07175 20.4557H18.9283V10.5275H5.07175V20.4557ZM5.07175 8.52747H18.9283V6.59922H5.07175V8.52747Z" fill="#253858"/>
</svg>
