<svg width="24" height="25" viewBox="0 0 24 25" fill="none" xmlns="http://www.w3.org/2000/svg">
<path d="M21.275 13.6172H19.1793C18.8721 13.6172 18.6137 13.5124 18.404 13.3027C18.1945 13.093 18.0898 12.8346 18.0898 12.5275C18.0898 12.2203 18.1945 11.9619 18.404 11.7522C18.6137 11.5425 18.8721 11.4377 19.1793 11.4377H21.275C21.5823 11.4377 21.8408 11.5425 22.0503 11.7522C22.2599 11.9619 22.3648 12.2203 22.3648 12.5275C22.3648 12.8346 22.2599 13.093 22.0503 13.3027C21.8408 13.5124 21.5823 13.6172 21.275 13.6172ZM16.7135 17.2737C16.8962 17.0244 17.1338 16.88 17.4263 16.8407C17.7189 16.8014 17.9899 16.873 18.2393 17.0557L19.911 18.3095C20.1602 18.4921 20.3044 18.7297 20.3438 19.0222C20.3831 19.3149 20.3114 19.5858 20.1288 19.835C19.9463 20.0883 19.7087 20.2346 19.416 20.274C19.1235 20.3133 18.8506 20.2416 18.5973 20.059L16.9255 18.7992C16.6763 18.6165 16.5331 18.379 16.4958 18.0865C16.4584 17.7938 16.531 17.5229 16.7135 17.2737ZM19.911 6.74546L18.2393 7.99921C17.9899 8.18188 17.7189 8.25354 17.4263 8.21421C17.1338 8.17488 16.8962 8.03054 16.7135 7.78121C16.531 7.53204 16.4574 7.26113 16.4928 6.96846C16.5281 6.67596 16.6723 6.43838 16.9255 6.25571L18.6033 4.99596C18.8566 4.81329 19.1285 4.74163 19.419 4.78096C19.7097 4.82029 19.9463 4.96663 20.1288 5.21996C20.3114 5.46913 20.3831 5.74004 20.3438 6.03271C20.3044 6.32521 20.1602 6.56279 19.911 6.74546ZM4.63525 15.7307H3.81475C3.20492 15.7069 2.68925 15.4742 2.26775 15.0327C1.84609 14.5912 1.63525 14.0655 1.63525 13.4557V11.5992C1.63525 10.9735 1.858 10.438 2.3035 9.99246C2.749 9.54696 3.28459 9.32421 3.91025 9.32421H7.77875L11.3075 7.19421C11.6887 6.96638 12.072 6.96438 12.4575 7.18821C12.843 7.41221 13.0358 7.74379 13.0358 8.18296V16.872C13.0358 17.3111 12.843 17.6427 12.4575 17.8667C12.072 18.0905 11.6887 18.0885 11.3075 17.8607L7.77875 15.7307H6.94625V18.5752C6.94625 18.8984 6.83442 19.1718 6.61075 19.3955C6.38725 19.619 6.11392 19.7307 5.79075 19.7307C5.46759 19.7307 5.19425 19.619 4.97075 19.3955C4.74709 19.1718 4.63525 18.8984 4.63525 18.5752V15.7307ZM14.0358 16.0807V8.97421C14.5456 9.39021 14.9539 9.90563 15.2608 10.5205C15.5678 11.1353 15.7213 11.8043 15.7213 12.5275C15.7213 13.2506 15.5678 13.9196 15.2608 14.5345C14.9539 15.1493 14.5456 15.6647 14.0358 16.0807Z" fill="#253858"/>
</svg>
