<svg width="24" height="25" viewBox="0 0 24 25" fill="none" xmlns="http://www.w3.org/2000/svg">
<path d="M5.79675 18.7307L3.73575 20.7917C3.37525 21.1522 2.962 21.234 2.496 21.037C2.02984 20.8401 1.79675 20.4868 1.79675 19.977V4.59922C1.79675 3.96955 2.0185 3.43297 2.462 2.98947C2.9055 2.54597 3.44209 2.32422 4.07175 2.32422H19.9283C20.5579 2.32422 21.0945 2.54597 21.538 2.98947C21.9815 3.43297 22.2033 3.96955 22.2033 4.59922V16.4557C22.2033 17.0854 21.9815 17.622 21.538 18.0655C21.0945 18.509 20.5579 18.7307 19.9283 18.7307H5.79675ZM7 14.5275H13C13.2833 14.5275 13.5208 14.4316 13.7125 14.24C13.9042 14.0483 14 13.8108 14 13.5275C14 13.2441 13.9042 13.0066 13.7125 12.815C13.5208 12.6233 13.2833 12.5275 13 12.5275H7C6.71667 12.5275 6.47917 12.6233 6.2875 12.815C6.09584 13.0066 6 13.2441 6 13.5275C6 13.8108 6.09584 14.0483 6.2875 14.24C6.47917 14.4316 6.71667 14.5275 7 14.5275ZM7 11.5275H17C17.2833 11.5275 17.5208 11.4316 17.7125 11.24C17.9042 11.0483 18 10.8108 18 10.5275C18 10.2441 17.9042 10.0066 17.7125 9.81497C17.5208 9.6233 17.2833 9.52747 17 9.52747H7C6.71667 9.52747 6.47917 9.6233 6.2875 9.81497C6.09584 10.0066 6 10.2441 6 10.5275C6 10.8108 6.09584 11.0483 6.2875 11.24C6.47917 11.4316 6.71667 11.5275 7 11.5275ZM7 8.52747H17C17.2833 8.52747 17.5208 8.43164 17.7125 8.23997C17.9042 8.0483 18 7.8108 18 7.52747C18 7.24414 17.9042 7.00664 17.7125 6.81497C17.5208 6.6233 17.2833 6.52747 17 6.52747H7C6.71667 6.52747 6.47917 6.6233 6.2875 6.81497C6.09584 7.00664 6 7.24414 6 7.52747C6 7.8108 6.09584 8.0483 6.2875 8.23997C6.47917 8.43164 6.71667 8.52747 7 8.52747Z" fill="#253858"/>
</svg>
