<svg width="24" height="24" viewBox="0 0 24 24" fill="none" xmlns="http://www.w3.org/2000/svg">
<path d="M10.582 13.5908L8.5875 11.5963C8.38034 11.3889 8.11909 11.2853 7.80375 11.2853C7.48859 11.2853 7.22734 11.3889 7.02 11.5963C6.81284 11.8034 6.71025 12.0647 6.71225 12.38C6.71425 12.6952 6.81884 12.9563 7.026 13.1635L9.7805 15.918C10.0098 16.1458 10.2774 16.2598 10.5833 16.2598C10.8889 16.2598 11.1558 16.1458 11.3838 15.918L16.944 10.3575C17.1513 10.1503 17.255 9.89017 17.255 9.577C17.255 9.26367 17.1513 9.00342 16.944 8.79625C16.7368 8.58892 16.4756 8.48525 16.1603 8.48525C15.8451 8.48525 15.5839 8.58892 15.3768 8.79625L10.582 13.5908ZM12 22.2033C10.5848 22.2033 9.257 21.9356 8.0165 21.4003C6.77584 20.8649 5.69667 20.1385 4.779 19.221C3.8615 18.3033 3.13509 17.2242 2.59975 15.9835C2.06442 14.743 1.79675 13.4152 1.79675 12C1.79675 10.5848 2.06442 9.257 2.59975 8.0165C3.13509 6.77584 3.8615 5.69667 4.779 4.779C5.69667 3.8615 6.77584 3.13509 8.0165 2.59975C9.257 2.06442 10.5848 1.79675 12 1.79675C13.4152 1.79675 14.743 2.06442 15.9835 2.59975C17.2242 3.13509 18.3033 3.8615 19.221 4.779C20.1385 5.69667 20.8649 6.77584 21.4003 8.0165C21.9356 9.257 22.2033 10.5848 22.2033 12C22.2033 13.4152 21.9356 14.743 21.4003 15.9835C20.8649 17.2242 20.1385 18.3033 19.221 19.221C18.3033 20.1385 17.2242 20.8649 15.9835 21.4003C14.743 21.9356 13.4152 22.2033 12 22.2033ZM12 19.9283C14.2173 19.9283 16.0931 19.1613 17.6273 17.6273C19.1613 16.0931 19.9283 14.2173 19.9283 12C19.9283 9.78267 19.1613 7.90692 17.6273 6.37275C16.0931 4.83875 14.2173 4.07175 12 4.07175C9.78267 4.07175 7.90692 4.83875 6.37275 6.37275C4.83875 7.90692 4.07175 9.78267 4.07175 12C4.07175 14.2173 4.83875 16.0931 6.37275 17.6273C7.90692 19.1613 9.78267 19.9283 12 19.9283Z" fill="#253858"/>
</svg>
