<svg width="24" height="24" viewBox="0 0 24 24" fill="none" xmlns="http://www.w3.org/2000/svg">
<path d="M9.55 14.9467L17.9175 6.57924C18.1453 6.3514 18.4125 6.23749 18.719 6.23749C19.0255 6.23749 19.2928 6.3514 19.5208 6.57924C19.7486 6.80724 19.8625 7.07765 19.8625 7.39049C19.8625 7.70332 19.7486 7.97374 19.5208 8.20174L10.3518 17.3897C10.1238 17.6176 9.8565 17.7315 9.55 17.7315C9.2435 17.7315 8.97625 17.6176 8.74825 17.3897L4.46025 13.1017C4.23242 12.8737 4.12167 12.6033 4.128 12.2905C4.13434 11.9777 4.25142 11.7072 4.47925 11.4792C4.70725 11.2514 4.97767 11.1375 5.2905 11.1375C5.60334 11.1375 5.87375 11.2514 6.10175 11.4792L9.55 14.9467Z" fill="#253858"/>
</svg>
