<svg width="24" height="24" viewBox="0 0 24 24" fill="none" xmlns="http://www.w3.org/2000/svg">
<path d="M10.9912 12L14.7957 15.8043C15.0069 16.0156 15.1125 16.2808 15.1125 16.6C15.1125 16.9192 15.0069 17.1844 14.7957 17.3958C14.5844 17.6069 14.3191 17.7125 14 17.7125C13.6808 17.7125 13.4156 17.6069 13.2042 17.3958L8.61023 12.8018C8.49839 12.6898 8.41664 12.5654 8.36498 12.4288C8.31331 12.2923 8.28748 12.1493 8.28748 12C8.28748 11.8507 8.31331 11.7078 8.36498 11.5713C8.41664 11.4346 8.49839 11.3103 8.61023 11.1983L13.2042 6.60426C13.4156 6.39309 13.6808 6.28751 14 6.28751C14.3191 6.28751 14.5844 6.39309 14.7957 6.60426C15.0069 6.81559 15.1125 7.08084 15.1125 7.40001C15.1125 7.71917 15.0069 7.98442 14.7957 8.19576L10.9912 12Z" fill="#253858"/>
</svg>
