<svg width="24" height="24" viewBox="0 0 24 24" fill="none" xmlns="http://www.w3.org/2000/svg">
<path d="M12.4087 12L8.60423 8.19576C8.39306 7.98442 8.28748 7.71917 8.28748 7.40001C8.28748 7.08084 8.39306 6.81559 8.60423 6.60426C8.81556 6.39309 9.08081 6.28751 9.39998 6.28751C9.71914 6.28751 9.98439 6.39309 10.1957 6.60426L14.7897 11.1983C14.9016 11.3103 14.9833 11.4346 15.035 11.5713C15.0866 11.7078 15.1125 11.8507 15.1125 12C15.1125 12.1493 15.0866 12.2923 15.035 12.4288C14.9833 12.5654 14.9016 12.6898 14.7897 12.8018L10.1957 17.3958C9.98439 17.6069 9.71914 17.7125 9.39998 17.7125C9.08081 17.7125 8.81556 17.6069 8.60423 17.3958C8.39306 17.1844 8.28748 16.9192 8.28748 16.6C8.28748 16.2808 8.39306 16.0156 8.60423 15.8043L12.4087 12Z" fill="#253858"/>
</svg>
