<svg width="24" height="24" viewBox="0 0 24 24" fill="none" xmlns="http://www.w3.org/2000/svg">
<path d="M12 10.9912L8.19573 14.7957C7.98439 15.0069 7.71914 15.1125 7.39998 15.1125C7.08081 15.1125 6.81556 15.0069 6.60423 14.7957C6.39306 14.5844 6.28748 14.3192 6.28748 14C6.28748 13.6808 6.39306 13.4156 6.60423 13.2042L11.1982 8.61024C11.4262 8.38241 11.6935 8.26849 12 8.26849C12.3065 8.26849 12.5737 8.38241 12.8017 8.61024L17.3957 13.2042C17.6069 13.4156 17.7125 13.6808 17.7125 14C17.7125 14.3192 17.6069 14.5844 17.3957 14.7957C17.1844 15.0069 16.9191 15.1125 16.6 15.1125C16.2808 15.1125 16.0156 15.0069 15.8042 14.7957L12 10.9912Z" fill="#253858"/>
</svg>
