<svg width="24" height="24" viewBox="0 0 24 24" fill="none" xmlns="http://www.w3.org/2000/svg">
<path d="M12 13.5913L7.19573 18.3958C6.98439 18.6069 6.71914 18.7125 6.39998 18.7125C6.08081 18.7125 5.81556 18.6069 5.60423 18.3958C5.39306 18.1844 5.28748 17.9192 5.28748 17.6C5.28748 17.2808 5.39306 17.0156 5.60423 16.8043L10.4087 12L5.60423 7.19576C5.39306 6.98442 5.28748 6.71917 5.28748 6.40001C5.28748 6.08084 5.39306 5.81559 5.60423 5.60426C5.81556 5.39309 6.08081 5.28751 6.39998 5.28751C6.71914 5.28751 6.98439 5.39309 7.19573 5.60426L12 10.4088L16.8042 5.60426C17.0156 5.39309 17.2808 5.28751 17.6 5.28751C17.9191 5.28751 18.1844 5.39309 18.3957 5.60426C18.6069 5.81559 18.7125 6.08084 18.7125 6.40001C18.7125 6.71917 18.6069 6.98442 18.3957 7.19576L13.5912 12L18.3957 16.8043C18.6069 17.0156 18.7125 17.2808 18.7125 17.6C18.7125 17.9192 18.6069 18.1844 18.3957 18.3958C18.1844 18.6069 17.9191 18.7125 17.6 18.7125C17.2808 18.7125 17.0156 18.6069 16.8042 18.3958L12 13.5913Z" fill="#253858"/>
</svg>
