<svg width="24" height="24" viewBox="0 0 24 24" fill="none" xmlns="http://www.w3.org/2000/svg">
<path d="M12 13.4658L14.8043 16.27C14.9996 16.4653 15.2439 16.562 15.5373 16.56C15.8306 16.558 16.0748 16.4594 16.27 16.2643C16.4653 16.0689 16.563 15.8246 16.563 15.5313C16.563 15.2379 16.4653 14.9936 16.27 14.7983L13.4658 12L16.27 9.19575C16.4653 9.00042 16.563 8.75609 16.563 8.46275C16.563 8.16942 16.4653 7.92517 16.27 7.73C16.0748 7.53467 15.8306 7.437 15.5373 7.437C15.2439 7.437 14.9996 7.53467 14.8043 7.73L12 10.5343L9.19575 7.73C9.00042 7.53467 8.75709 7.437 8.46575 7.437C8.17442 7.437 7.93109 7.53467 7.73575 7.73C7.54059 7.92517 7.443 8.16942 7.443 8.46275C7.443 8.75609 7.54059 9.00042 7.73575 9.19575L10.5343 12L7.73 14.8043C7.53467 14.9996 7.438 15.2429 7.44 15.5343C7.442 15.8256 7.54059 16.0689 7.73575 16.2643C7.93109 16.4594 8.17542 16.557 8.46875 16.557C8.76209 16.557 9.00642 16.4594 9.20175 16.2643L12 13.4658ZM12 22.2033C10.5848 22.2033 9.25692 21.9358 8.01625 21.4008C6.77575 20.8658 5.6965 20.1393 4.7785 19.2215C3.86067 18.3035 3.13425 17.2243 2.59925 15.9838C2.06425 14.7431 1.79675 13.4152 1.79675 12C1.79675 10.5848 2.06425 9.25692 2.59925 8.01625C3.13425 6.77575 3.86067 5.6965 4.7785 4.7785C5.6965 3.86067 6.77575 3.13425 8.01625 2.59925C9.25692 2.06425 10.5848 1.79675 12 1.79675C13.4152 1.79675 14.7431 2.06425 15.9838 2.59925C17.2243 3.13425 18.3035 3.86067 19.2215 4.7785C20.1393 5.6965 20.8658 6.77575 21.4008 8.01625C21.9358 9.25692 22.2033 10.5848 22.2033 12C22.2033 13.4152 21.9358 14.7431 21.4008 15.9838C20.8658 17.2243 20.1393 18.3035 19.2215 19.2215C18.3035 20.1393 17.2243 20.8658 15.9838 21.4008C14.7431 21.9358 13.4152 22.2033 12 22.2033Z" fill="#253858"/>
</svg>
