<svg width="25" height="25" viewBox="0 0 25 25" fill="none" xmlns="http://www.w3.org/2000/svg">
<path d="M4.18613 20.7307C3.55647 20.7307 3.01988 20.509 2.57638 20.0655C2.13288 19.622 1.91113 19.0854 1.91113 18.4557V15.045C1.91113 14.8616 1.96847 14.7043 2.08313 14.573C2.1978 14.4415 2.3468 14.3591 2.53013 14.3257C2.92613 14.2004 3.2553 13.9737 3.51763 13.6457C3.77997 13.3176 3.91113 12.9448 3.91113 12.5275C3.91113 12.1061 3.77997 11.7314 3.51763 11.4032C3.2553 11.0752 2.92613 10.8506 2.53013 10.7292C2.3468 10.6959 2.1978 10.6135 2.08313 10.482C1.96847 10.3506 1.91113 10.1933 1.91113 10.01V6.59922C1.91113 5.96955 2.13288 5.43297 2.57638 4.98947C3.01988 4.54597 3.55647 4.32422 4.18613 4.32422H20.0426C20.6723 4.32422 21.2089 4.54597 21.6524 4.98947C22.0959 5.43297 22.3176 5.96955 22.3176 6.59922V10.016C22.3176 10.1993 22.2603 10.3556 22.1456 10.485C22.031 10.6145 21.882 10.6959 21.6986 10.7292C21.3026 10.8506 20.9735 11.0752 20.7111 11.4032C20.4488 11.7314 20.3176 12.1061 20.3176 12.5275C20.3176 12.9448 20.4488 13.3176 20.7111 13.6457C20.9735 13.9737 21.3026 14.2004 21.6986 14.3257C21.882 14.3591 22.031 14.4405 22.1456 14.57C22.2603 14.6993 22.3176 14.8556 22.3176 15.039V18.4557C22.3176 19.0854 22.0959 19.622 21.6524 20.0655C21.2089 20.509 20.6723 20.7307 20.0426 20.7307H4.18613ZM12.1144 17.4797C12.4097 17.4797 12.6582 17.3789 12.8599 17.1772C13.0614 16.9756 13.1621 16.7291 13.1621 16.4377C13.1621 16.1426 13.0614 15.8941 12.8599 15.6925C12.6582 15.4908 12.4097 15.39 12.1144 15.39C11.823 15.39 11.5755 15.4908 11.3719 15.6925C11.1684 15.8941 11.0666 16.1426 11.0666 16.4377C11.0666 16.7291 11.1684 16.9756 11.3719 17.1772C11.5755 17.3789 11.823 17.4797 12.1144 17.4797ZM12.1144 13.5752C12.4097 13.5752 12.6582 13.4735 12.8599 13.27C13.0614 13.0663 13.1621 12.8188 13.1621 12.5275C13.1621 12.2321 13.0614 11.9836 12.8599 11.782C12.6582 11.5805 12.4097 11.4797 12.1144 11.4797C11.823 11.4797 11.5755 11.5805 11.3719 11.782C11.1684 11.9836 11.0666 12.2321 11.0666 12.5275C11.0666 12.8188 11.1684 13.0663 11.3719 13.27C11.5755 13.4735 11.823 13.5752 12.1144 13.5752ZM12.1144 9.66497C12.4097 9.66497 12.6582 9.56314 12.8599 9.35947C13.0614 9.15597 13.1621 8.90855 13.1621 8.61722C13.1621 8.32189 13.0614 8.07439 12.8599 7.87472C12.6582 7.67505 12.4097 7.57522 12.1144 7.57522C11.823 7.57522 11.5755 7.67505 11.3719 7.87472C11.1684 8.07439 11.0666 8.32189 11.0666 8.61722C11.0666 8.90855 11.1684 9.15597 11.3719 9.35947C11.5755 9.56314 11.823 9.66497 12.1144 9.66497Z" fill="#253858"/>
</svg>
