<svg width="24" height="25" viewBox="0 0 24 25" fill="none" xmlns="http://www.w3.org/2000/svg">
<path d="M4.07175 20.7307C3.44209 20.7307 2.9055 20.509 2.462 20.0655C2.0185 19.622 1.79675 19.0854 1.79675 18.4557V15.0475C1.79675 14.8625 1.8545 14.7041 1.97 14.5725C2.08567 14.441 2.23425 14.3587 2.41575 14.3257C2.81175 14.2004 3.14092 13.9737 3.40325 13.6457C3.66559 13.3176 3.79675 12.9438 3.79675 12.5245C3.79675 12.1051 3.66559 11.7314 3.40325 11.4032C3.14092 11.0752 2.81175 10.8506 2.41575 10.7292C2.23425 10.6961 2.08567 10.6134 1.97 10.4812C1.8545 10.3489 1.79675 10.1918 1.79675 10.01V6.59922C1.79675 5.96955 2.0185 5.43297 2.462 4.98947C2.9055 4.54597 3.44209 4.32422 4.07175 4.32422H19.9283C20.5579 4.32422 21.0945 4.54597 21.538 4.98947C21.9815 5.43297 22.2033 5.96955 22.2033 6.59922V10.016C22.2033 10.1993 22.1455 10.3559 22.03 10.4857C21.9143 10.6156 21.7658 10.6967 21.5843 10.7292C21.1883 10.8506 20.8591 11.0752 20.5968 11.4032C20.3344 11.7314 20.2033 12.1051 20.2033 12.5245C20.2033 12.9438 20.3344 13.3176 20.5968 13.6457C20.8591 13.9737 21.1883 14.2004 21.5843 14.3257C21.7658 14.3582 21.9143 14.4394 22.03 14.5692C22.1455 14.6991 22.2033 14.8556 22.2033 15.039V18.4557C22.2033 19.0854 21.9815 19.622 21.538 20.0655C21.0945 20.509 20.5579 20.7307 19.9283 20.7307H4.07175ZM4.07175 18.4557H19.9283V16.0075C19.3156 15.6368 18.8291 15.1446 18.4688 14.5307C18.1084 13.9169 17.9283 13.2484 17.9283 12.5252C17.9283 11.8021 18.1084 11.1343 18.4688 10.522C18.8291 9.90964 19.3156 9.41814 19.9283 9.04747V6.59922H4.07175V9.04747C4.69242 9.41814 5.18092 9.90997 5.53725 10.523C5.89359 11.1358 6.07175 11.8033 6.07175 12.5255C6.07175 13.2475 5.89359 13.9156 5.53725 14.53C5.18092 15.1443 4.69242 15.6368 4.07175 16.0075V18.4557ZM12.003 17.4797C12.2963 17.4797 12.5438 17.3789 12.7455 17.1772C12.947 16.9756 13.0478 16.7281 13.0478 16.4347C13.0478 16.1416 12.9473 15.8941 12.7465 15.6925C12.5457 15.4908 12.2968 15.39 12 15.39C11.7087 15.39 11.4612 15.4904 11.2575 15.6912C11.054 15.8921 10.9523 16.1409 10.9523 16.4377C10.9523 16.7291 11.054 16.9756 11.2575 17.1772C11.4612 17.3789 11.7097 17.4797 12.003 17.4797ZM12.003 13.5752C12.2963 13.5752 12.5438 13.4735 12.7455 13.27C12.947 13.0663 13.0478 12.8178 13.0478 12.5245C13.0478 12.2311 12.9473 11.9836 12.7465 11.782C12.5457 11.5805 12.2968 11.4797 12 11.4797C11.7087 11.4797 11.4612 11.5801 11.2575 11.781C11.054 11.9818 10.9523 12.2306 10.9523 12.5275C10.9523 12.8188 11.054 13.0663 11.2575 13.27C11.4612 13.4735 11.7097 13.5752 12.003 13.5752ZM12.003 9.66497C12.2963 9.66497 12.5438 9.56314 12.7455 9.35947C12.947 9.15597 13.0478 8.90755 13.0478 8.61422C13.0478 8.32088 12.9473 8.07439 12.7465 7.87472C12.5457 7.67505 12.2968 7.57522 12 7.57522C11.7087 7.57522 11.4612 7.67505 11.2575 7.87472C11.054 8.07455 10.9523 8.32205 10.9523 8.61722C10.9523 8.90855 11.054 9.15597 11.2575 9.35947C11.4612 9.56314 11.7097 9.66497 12.003 9.66497Z" fill="#253858"/>
</svg>
