<svg width="24" height="25" viewBox="0 0 24 25" fill="none" xmlns="http://www.w3.org/2000/svg">
<path d="M9.20924 18.5932C8.57957 18.5932 8.04299 18.3715 7.59949 17.928C7.15599 17.4845 6.93424 16.9479 6.93424 16.3182V4.46171C6.93424 3.83204 7.15599 3.29546 7.59949 2.85196C8.04299 2.40846 8.57957 2.18671 9.20924 2.18671H18.0657C18.6954 2.18671 19.232 2.40846 19.6755 2.85196C20.119 3.29546 20.3407 3.83204 20.3407 4.46171V16.3182C20.3407 16.9479 20.119 17.4845 19.6755 17.928C19.232 18.3715 18.6954 18.5932 18.0657 18.5932H9.20924ZM9.20924 16.3182H18.0657V4.46171H9.20924V16.3182ZM4.93424 22.8682C4.30457 22.8682 3.76799 22.6465 3.32449 22.203C2.88099 21.7595 2.65924 21.2229 2.65924 20.5932V7.59921C2.65924 7.28004 2.76899 7.01062 2.98849 6.79096C3.20816 6.57146 3.47757 6.46171 3.79674 6.46171C4.11591 6.46171 4.38532 6.57146 4.60499 6.79096C4.82449 7.01062 4.93424 7.28004 4.93424 7.59921V20.5932H14.9282C15.2474 20.5932 15.5168 20.703 15.7365 20.9225C15.956 21.1421 16.0657 21.4115 16.0657 21.7307C16.0657 22.0499 15.956 22.3193 15.7365 22.539C15.5168 22.7585 15.2474 22.8682 14.9282 22.8682H4.93424Z" fill="#253858"/>
</svg>
