<svg width="24" height="25" viewBox="0 0 24 25" fill="none" xmlns="http://www.w3.org/2000/svg">
<path d="M6.93424 21.467C6.30458 21.467 5.76799 21.2452 5.32449 20.8017C4.88099 20.3582 4.65924 19.8217 4.65924 19.192V6.32949C4.34008 6.32949 4.07066 6.21974 3.85099 6.00024C3.63149 5.78058 3.52174 5.51116 3.52174 5.19199C3.52174 4.87283 3.63149 4.60341 3.85099 4.38374C4.07066 4.16424 4.34008 4.05449 4.65924 4.05449H8.86249C8.86249 3.73533 8.97224 3.46591 9.19174 3.24624C9.41141 3.02674 9.68083 2.91699 9.99999 2.91699H13.988C14.3072 2.91699 14.5766 3.02674 14.7962 3.24624C15.0157 3.46591 15.1255 3.73533 15.1255 4.05449H19.3407C19.6599 4.05449 19.9293 4.16424 20.149 4.38374C20.3685 4.60341 20.4782 4.87283 20.4782 5.19199C20.4782 5.51116 20.3685 5.78058 20.149 6.00024C19.9293 6.21974 19.6599 6.32949 19.3407 6.32949V19.192C19.3407 19.8217 19.119 20.3582 18.6755 20.8017C18.232 21.2452 17.6954 21.467 17.0657 21.467H6.93424ZM17.0657 6.32949H6.93424V19.192H17.0657V6.32949ZM9.96424 17.2577C10.2634 17.2577 10.5158 17.1549 10.7215 16.9492C10.9272 16.7437 11.03 16.4913 11.03 16.192V9.32349C11.03 9.02416 10.9272 8.77174 10.7215 8.56624C10.5158 8.36058 10.2634 8.25774 9.96424 8.25774C9.66491 8.25774 9.41141 8.36058 9.20374 8.56624C8.99624 8.77174 8.89249 9.02416 8.89249 9.32349V16.192C8.89249 16.4913 8.99624 16.7437 9.20374 16.9492C9.41141 17.1549 9.66491 17.2577 9.96424 17.2577ZM14.0417 17.2577C14.3411 17.2577 14.5936 17.1549 14.7992 16.9492C15.0047 16.7437 15.1075 16.4913 15.1075 16.192V9.32349C15.1075 9.02416 15.0047 8.77174 14.7992 8.56624C14.5936 8.36058 14.3411 8.25774 14.0417 8.25774C13.7426 8.25774 13.4892 8.36058 13.2815 8.56624C13.0738 8.77174 12.97 9.02416 12.97 9.32349V16.192C12.97 16.4913 13.0738 16.7437 13.2815 16.9492C13.4892 17.1549 13.7426 17.2577 14.0417 17.2577Z" fill="#253858"/>
</svg>
