<svg width="24" height="25" viewBox="0 0 24 25" fill="none" xmlns="http://www.w3.org/2000/svg">
<path d="M6.93426 21.467C6.30459 21.467 5.76801 21.2452 5.32451 20.8017C4.88101 20.3582 4.65926 19.8217 4.65926 19.192V6.32949C4.34009 6.32949 4.07068 6.21974 3.85101 6.00024C3.63151 5.78058 3.52176 5.51116 3.52176 5.19199C3.52176 4.87283 3.63151 4.60341 3.85101 4.38374C4.07068 4.16424 4.34009 4.05449 4.65926 4.05449H8.86251C8.86251 3.73533 8.97226 3.46591 9.19176 3.24624C9.41143 3.02674 9.68084 2.91699 10 2.91699H13.988C14.3072 2.91699 14.5766 3.02674 14.7963 3.24624C15.0158 3.46591 15.1255 3.73533 15.1255 4.05449H19.3408C19.6599 4.05449 19.9293 4.16424 20.149 4.38374C20.3685 4.60341 20.4783 4.87283 20.4783 5.19199C20.4783 5.51116 20.3685 5.78058 20.149 6.00024C19.9293 6.21974 19.6599 6.32949 19.3408 6.32949V19.192C19.3408 19.8217 19.119 20.3582 18.6755 20.8017C18.232 21.2452 17.6954 21.467 17.0658 21.467H6.93426ZM9.96426 17.2577C10.2634 17.2577 10.5158 17.1549 10.7215 16.9492C10.9272 16.7437 11.03 16.4913 11.03 16.192V9.32349C11.03 9.02416 10.9272 8.77174 10.7215 8.56624C10.5158 8.36058 10.2634 8.25774 9.96426 8.25774C9.66493 8.25774 9.41143 8.36058 9.20376 8.56624C8.99626 8.77174 8.89251 9.02416 8.89251 9.32349V16.192C8.89251 16.4913 8.99626 16.7437 9.20376 16.9492C9.41143 17.1549 9.66493 17.2577 9.96426 17.2577ZM14.0418 17.2577C14.3411 17.2577 14.5936 17.1549 14.7993 16.9492C15.0048 16.7437 15.1075 16.4913 15.1075 16.192V9.32349C15.1075 9.02416 15.0048 8.77174 14.7993 8.56624C14.5936 8.36058 14.3411 8.25774 14.0418 8.25774C13.7426 8.25774 13.4892 8.36058 13.2815 8.56624C13.0738 8.77174 12.97 9.02416 12.97 9.32349V16.192C12.97 16.4913 13.0738 16.7437 13.2815 16.9492C13.4892 17.1549 13.7426 17.2577 14.0418 17.2577Z" fill="#253858"/>
</svg>
