<svg width="24" height="25" viewBox="0 0 24 25" fill="none" xmlns="http://www.w3.org/2000/svg">
<path d="M3.10322 3.54098L5.16147 5.59923H4.07172V16.366H13.0027L1.30422 4.66773C1.10906 4.47239 1.01147 4.22906 1.01147 3.93773C1.01147 3.64639 1.10906 3.40314 1.30422 3.20798C1.49956 3.01264 1.74389 2.91498 2.03722 2.91498C2.33056 2.91498 2.57481 3.01264 2.76997 3.20798L21.3255 21.7632C21.5208 21.9586 21.6175 22.2019 21.6155 22.4932C21.6135 22.7846 21.5148 23.0279 21.3195 23.2232C21.1243 23.4184 20.8811 23.516 20.5897 23.516C20.2984 23.516 20.0551 23.4184 19.8597 23.2232L15.2777 18.641H14.0897V20.641H14.9522C15.2714 20.641 15.5407 20.7508 15.7602 20.9705C15.9799 21.19 16.0897 21.4593 16.0897 21.7785C16.0897 22.0978 15.9799 22.3672 15.7602 22.5867C15.5407 22.8062 15.2714 22.916 14.9522 22.916H9.04772C8.72856 22.916 8.45922 22.8062 8.23972 22.5867C8.02006 22.3672 7.91022 22.0978 7.91022 21.7785C7.91022 21.4593 8.02006 21.19 8.23972 20.9705C8.45922 20.7508 8.72856 20.641 9.04772 20.641H9.91022V18.641H4.07172C3.44206 18.641 2.90547 18.4192 2.46197 17.9757C2.01847 17.5324 1.79672 16.9958 1.79672 16.366V5.59923C1.79672 4.91089 2.01447 4.39573 2.44997 4.05373L3.10322 3.54098ZM22.2032 5.59923V15.8182C22.2032 16.1974 22.0851 16.4818 21.8487 16.6715C21.6122 16.861 21.3521 16.9557 21.0685 16.9557C20.7848 16.9557 20.5238 16.8582 20.2855 16.6632C20.0473 16.4684 19.9282 16.1804 19.9282 15.7992V5.59923H9.20323C8.82406 5.59923 8.53972 5.48056 8.35022 5.24323C8.16056 5.00589 8.06572 4.74481 8.06572 4.45998C8.06572 4.17531 8.16056 3.91481 8.35022 3.67848C8.53972 3.44231 8.82406 3.32423 9.20323 3.32423H19.9282C20.5579 3.32423 21.0945 3.54598 21.538 3.98948C21.9815 4.43298 22.2032 4.96956 22.2032 5.59923Z" fill="#253858"/>
</svg>
