<svg width="24" height="25" viewBox="0 0 24 25" fill="none" xmlns="http://www.w3.org/2000/svg">
<path d="M3.10322 3.54098V6.46673L1.30422 4.66773C1.10906 4.47239 1.01147 4.22906 1.01147 3.93773C1.01147 3.64639 1.10906 3.40314 1.30422 3.20798C1.49956 3.01264 1.74389 2.91498 2.03722 2.91498C2.33056 2.91498 2.57481 3.01264 2.76997 3.20798L21.3255 21.7632C21.5208 21.9586 21.6175 22.2019 21.6155 22.4932C21.6135 22.7846 21.5148 23.0279 21.3195 23.2232C21.1243 23.4184 20.8811 23.516 20.5897 23.516C20.2984 23.516 20.0551 23.4184 19.8597 23.2232L15.2777 18.641H14.0897V20.641H14.9522C15.2714 20.641 15.5407 20.7508 15.7602 20.9705C15.9799 21.19 16.0897 21.4593 16.0897 21.7785C16.0897 22.0978 15.9799 22.3672 15.7602 22.5867C15.5407 22.8062 15.2714 22.916 14.9522 22.916H9.04772C8.72856 22.916 8.45922 22.8062 8.23972 22.5867C8.02006 22.3672 7.91022 22.0978 7.91022 21.7785C7.91022 21.4593 8.02006 21.19 8.23972 20.9705C8.45922 20.7508 8.72856 20.641 9.04772 20.641H9.91022V18.641H4.07172C3.44206 18.641 2.90547 18.4192 2.46197 17.9757C2.01847 17.5324 1.79672 16.9958 1.79672 16.366V5.59923C1.79672 4.91089 2.01447 4.39573 2.44997 4.05373L3.10322 3.54098ZM22.2032 5.59923V17.0372C22.2032 17.2986 22.1369 17.5161 22.0042 17.69C21.8717 17.8638 21.7018 17.9964 21.4945 18.0877C21.2873 18.1791 21.0781 18.2102 20.8667 18.1812C20.6556 18.1522 20.4566 18.0445 20.27 17.858L7.66348 5.26323C7.47697 5.07673 7.36822 4.8769 7.33722 4.66373C7.30622 4.45039 7.33639 4.24014 7.42772 4.03298C7.51906 3.82564 7.65164 3.65573 7.82547 3.52323C7.99947 3.39056 8.21706 3.32423 8.47823 3.32423H19.9282C20.5579 3.32423 21.0945 3.54598 21.538 3.98948C21.9815 4.43298 22.2032 4.96956 22.2032 5.59923Z" fill="#253858"/>
</svg>
