<svg width="24" height="25" viewBox="0 0 24 25" fill="none" xmlns="http://www.w3.org/2000/svg">
<path d="M1.66025 13.8645C1.43642 13.6405 1.32767 13.3752 1.334 13.0687C1.34033 12.7622 1.45542 12.497 1.67925 12.2732C1.90325 12.0619 2.1685 11.953 2.475 11.9467C2.7815 11.9404 3.04675 12.0492 3.27075 12.2732L6.725 15.7275L7.12575 16.1282L7.52675 16.5292C7.75059 16.753 7.85933 17.0162 7.853 17.3187C7.84667 17.6212 7.7315 17.8845 7.5075 18.1085C7.27967 18.3236 7.0125 18.4344 6.706 18.4407C6.3995 18.447 6.13225 18.3363 5.90425 18.1085L1.66025 13.8645ZM12.35 15.5052L20.7425 7.1127C20.9663 6.88887 21.2305 6.78012 21.535 6.78646C21.8395 6.79279 22.1058 6.90787 22.3338 7.13171C22.5489 7.35571 22.6607 7.62096 22.669 7.92746C22.6773 8.23396 22.5676 8.50121 22.3398 8.72921L13.1518 17.9172C12.9238 18.145 12.6565 18.259 12.35 18.259C12.0435 18.259 11.7763 18.145 11.5483 17.9172L7.29825 13.6672C7.08308 13.4519 6.9765 13.1888 6.9785 12.878C6.9805 12.5671 7.08909 12.2978 7.30425 12.07C7.53225 11.846 7.80167 11.734 8.1125 11.734C8.42334 11.734 8.69075 11.846 8.91475 12.07L12.35 15.5052ZM16.4853 8.73621L13.1458 12.0757C12.9344 12.287 12.6723 12.3927 12.3595 12.3927C12.0467 12.3927 11.7783 12.287 11.5543 12.0757C11.3304 11.8519 11.2185 11.5835 11.2185 11.2707C11.2185 10.9579 11.3304 10.6895 11.5543 10.4655L14.894 7.12571C15.1052 6.91454 15.3673 6.80896 15.6803 6.80896C15.9931 6.80896 16.2614 6.91454 16.4853 7.12571C16.7093 7.34971 16.8213 7.61812 16.8213 7.93096C16.8213 8.24379 16.7093 8.51221 16.4853 8.73621Z" fill="#253858"/>
</svg>
