<svg width="24" height="25" viewBox="0 0 24 25" fill="none" xmlns="http://www.w3.org/2000/svg">
<path d="M3.94023 21.7247C3.62107 21.7247 3.35165 21.615 3.13198 21.3955C2.91248 21.1758 2.80273 20.9064 2.80273 20.5872C2.80273 20.268 2.91248 19.9987 3.13198 19.7792C3.35165 19.5595 3.62107 19.4497 3.94023 19.4497H4.80273V5.66495C4.80273 5.03529 5.02448 4.4987 5.46798 4.0552C5.91148 3.6117 6.44807 3.38995 7.07773 3.38995H16.9222C17.5519 3.38995 18.0885 3.6117 18.532 4.0552C18.9755 4.4987 19.1972 5.03529 19.1972 5.66495V19.4497H20.0597C20.3789 19.4497 20.6483 19.5595 20.868 19.7792C21.0875 19.9987 21.1972 20.268 21.1972 20.5872C21.1972 20.9064 21.0875 21.1758 20.868 21.3955C20.6483 21.615 20.3789 21.7247 20.0597 21.7247H3.94023ZM16.9222 19.4497V5.66495H12.3207V4.2482C13.1536 4.39337 13.8352 4.78087 14.3657 5.4107C14.8962 6.04037 15.1615 6.7717 15.1615 7.6047V18.4297C15.1615 18.9847 14.9812 19.4736 14.6207 19.8965C14.2602 20.3193 13.8044 20.5784 13.2532 20.6737V19.4497H16.9222ZM10.8925 13.635C11.2037 13.635 11.466 13.5272 11.6795 13.3117C11.8932 13.096 12 12.8346 12 12.5275C12 12.2163 11.8932 11.9539 11.6795 11.7402C11.466 11.5267 11.2037 11.42 10.8925 11.42C10.5852 11.42 10.3237 11.5267 10.1082 11.7402C9.89257 11.9539 9.78474 12.2163 9.78474 12.5275C9.78474 12.8346 9.89257 13.096 10.1082 13.3117C10.3237 13.5272 10.5852 13.635 10.8925 13.635Z" fill="#122647"/>
</svg>
