<svg width="24" height="24" viewBox="0 0 24 24" fill="none" xmlns="http://www.w3.org/2000/svg">
<path d="M12 15.4495C11.8507 15.4495 11.7078 15.4237 11.5713 15.372C11.4346 15.3203 11.3103 15.2386 11.1983 15.1268L7.50875 11.437C7.28475 11.213 7.17592 10.9478 7.18225 10.6413C7.18859 10.3348 7.29742 10.0696 7.50875 9.84575C7.73659 9.61775 8.00592 9.50059 8.31675 9.49425C8.62775 9.48792 8.89717 9.59867 9.125 9.8265L10.8625 11.564V4.93425C10.8625 4.61509 10.9723 4.34567 11.1918 4.126C11.4114 3.9065 11.6808 3.79675 12 3.79675C12.3192 3.79675 12.5886 3.9065 12.8083 4.126C13.0278 4.34567 13.1375 4.61509 13.1375 4.93425V11.564L14.875 9.8265C15.0988 9.59867 15.3663 9.48692 15.6773 9.49125C15.9881 9.49559 16.2574 9.61175 16.4853 9.83975C16.7006 10.0676 16.8114 10.3338 16.8178 10.6383C16.8241 10.9428 16.7133 11.209 16.4853 11.437L12.8018 15.1268C12.6898 15.2386 12.5654 15.3203 12.4288 15.372C12.2923 15.4237 12.1493 15.4495 12 15.4495ZM6.07175 20.2033C5.44209 20.2033 4.9055 19.9815 4.462 19.538C4.0185 19.0945 3.79675 18.5579 3.79675 17.9283V16.0658C3.79675 15.7466 3.9065 15.4772 4.126 15.2575C4.34567 15.038 4.61509 14.9283 4.93425 14.9283C5.25342 14.9283 5.52284 15.038 5.7425 15.2575C5.962 15.4772 6.07175 15.7466 6.07175 16.0658V17.9283H17.9283V16.0658C17.9283 15.7466 18.038 15.4772 18.2575 15.2575C18.4772 15.038 18.7466 14.9283 19.0658 14.9283C19.3849 14.9283 19.6543 15.038 19.874 15.2575C20.0935 15.4772 20.2033 15.7466 20.2033 16.0658V17.9283C20.2033 18.5579 19.9815 19.0945 19.538 19.538C19.0945 19.9815 18.5579 20.2033 17.9283 20.2033H6.07175Z" fill="#253858"/>
</svg>
