<svg width="24" height="25" viewBox="0 0 24 25" fill="none" xmlns="http://www.w3.org/2000/svg">
<path d="M5.07175 21.7307C4.44209 21.7307 3.9055 21.509 3.462 21.0655C3.0185 20.622 2.79675 20.0854 2.79675 19.4557V5.59921C2.79675 4.96954 3.0185 4.43295 3.462 3.98945C3.9055 3.54595 4.44209 3.32421 5.07175 3.32421H11.256C11.6352 3.32421 11.9195 3.44237 12.109 3.6787C12.2987 3.9152 12.3935 4.17529 12.3935 4.45896C12.3935 4.74262 12.296 5.00362 12.101 5.24196C11.9062 5.48012 11.6182 5.59921 11.237 5.59921H5.07175V19.4557H18.9283V13.2775C18.9283 12.8983 19.0469 12.614 19.2843 12.4245C19.5216 12.2348 19.7827 12.14 20.0675 12.14C20.3522 12.14 20.6127 12.2348 20.849 12.4245C21.0852 12.614 21.2033 12.8983 21.2033 13.2775V19.4557C21.2033 20.0854 20.9815 20.622 20.538 21.0655C20.0945 21.509 19.5579 21.7307 18.9283 21.7307H5.07175ZM8.90425 14.4857V12.1742C8.90425 11.8707 8.96125 11.5815 9.07525 11.3065C9.18925 11.0313 9.35184 10.7881 9.563 10.577L17.9898 2.15621C18.2176 1.92837 18.4724 1.75846 18.7543 1.64646C19.0363 1.53446 19.3202 1.47845 19.606 1.47845C19.9045 1.47845 20.1915 1.53446 20.467 1.64646C20.7427 1.75846 20.9944 1.92837 21.2223 2.15621L22.3713 3.32421C22.5864 3.55204 22.75 3.80395 22.862 4.07995C22.974 4.35595 23.03 4.6367 23.03 4.9222C23.03 5.20754 22.9775 5.48871 22.8725 5.76571C22.7673 6.04254 22.6003 6.29554 22.3713 6.52471L13.9505 14.9455C13.7393 15.1566 13.4962 15.3224 13.221 15.4427C12.946 15.563 12.6568 15.6232 12.3533 15.6232H10.0418C9.72259 15.6232 9.45325 15.5134 9.23375 15.2937C9.01409 15.0742 8.90425 14.8049 8.90425 14.4857ZM11.0598 13.4677H12.376L18.1223 7.72146L17.4663 7.06321L16.787 6.4052L11.0598 12.1265V13.4677Z" fill="#253858"/>
</svg>
