<svg width="24" height="25" viewBox="0 0 24 25" fill="none" xmlns="http://www.w3.org/2000/svg">
<path d="M10.0418 15.6232C9.72259 15.6232 9.45325 15.5134 9.23375 15.2937C9.01409 15.0742 8.90425 14.8049 8.90425 14.4857V12.1742C8.90425 11.8717 8.96125 11.5826 9.07525 11.307C9.18925 11.0315 9.35184 10.7881 9.563 10.577L17.9898 2.15621C18.2176 1.92837 18.4724 1.75846 18.7543 1.64646C19.0363 1.53446 19.3202 1.47845 19.606 1.47845C19.9045 1.47845 20.1915 1.53446 20.467 1.64646C20.7427 1.75846 20.9944 1.92837 21.2223 2.15621L22.3713 3.32421C22.5864 3.55204 22.75 3.80379 22.862 4.07946C22.974 4.35496 23.03 4.63562 23.03 4.92146C23.03 5.20729 22.9772 5.48904 22.8715 5.76671C22.7658 6.04421 22.5991 6.29687 22.3713 6.52471L13.9505 14.9455C13.7393 15.1566 13.496 15.3224 13.2205 15.4427C12.9448 15.563 12.6558 15.6232 12.3533 15.6232H10.0418ZM19.5283 6.32146L20.9473 4.92146L19.625 3.6052L18.206 4.99921L19.5283 6.32146ZM5.07175 21.7307C4.44209 21.7307 3.9055 21.509 3.462 21.0655C3.0185 20.622 2.79675 20.0854 2.79675 19.4557V5.59921C2.79675 4.96954 3.0185 4.43295 3.462 3.98945C3.9055 3.54595 4.44209 3.32421 5.07175 3.32421H11.237C11.4982 3.32421 11.7158 3.39054 11.8898 3.52321C12.0636 3.65571 12.1962 3.82562 12.2875 4.03295C12.3788 4.24012 12.409 4.45037 12.378 4.66371C12.347 4.87687 12.2383 5.07671 12.0518 5.26321L7.563 9.75195C7.35184 9.96312 7.18925 10.2065 7.07525 10.482C6.96125 10.7576 6.90425 11.0467 6.90425 11.3492V15.3482C6.90425 15.9779 7.126 16.5145 7.5695 16.958C8.013 17.4015 8.54959 17.6232 9.17925 17.6232H13.1653C13.4678 17.6232 13.7568 17.5662 14.0323 17.4522C14.3079 17.3382 14.5513 17.1756 14.7625 16.9645L19.2643 12.4627C19.4508 12.2762 19.6506 12.1675 19.8638 12.1365C20.0771 12.1055 20.2873 12.1356 20.4945 12.227C20.7018 12.3183 20.8718 12.4509 21.0043 12.6247C21.1369 12.7987 21.2033 13.0163 21.2033 13.2775V19.4557C21.2033 20.0854 20.9815 20.622 20.538 21.0655C20.0945 21.509 19.5579 21.7307 18.9283 21.7307H5.07175Z" fill="#253858"/>
</svg>
