<svg width="24" height="24" viewBox="0 0 24 24" fill="none" xmlns="http://www.w3.org/2000/svg">
<path d="M11.9988 17.2033C12.3308 17.2033 12.6095 17.0909 12.835 16.8663C13.0605 16.6416 13.1733 16.3633 13.1733 16.0313C13.1733 15.6993 13.061 15.4194 12.8365 15.1918C12.6118 14.9643 12.3334 14.8505 12.0013 14.8505C11.6693 14.8505 11.3905 14.9643 11.165 15.1918C10.9395 15.4194 10.8268 15.6993 10.8268 16.0313C10.8268 16.3633 10.939 16.6416 11.1635 16.8663C11.3882 17.0909 11.6666 17.2033 11.9988 17.2033ZM12 13.012C12.3192 13.012 12.5886 12.9022 12.8083 12.6825C13.0278 12.463 13.1375 12.1937 13.1375 11.8745V8.012C13.1375 7.69284 13.0278 7.42342 12.8083 7.20375C12.5886 6.98425 12.3192 6.8745 12 6.8745C11.6808 6.8745 11.4114 6.98425 11.1918 7.20375C10.9723 7.42342 10.8625 7.69284 10.8625 8.012V11.8745C10.8625 12.1937 10.9723 12.463 11.1918 12.6825C11.4114 12.9022 11.6808 13.012 12 13.012ZM12 22.2033C10.5848 22.2033 9.257 21.9356 8.0165 21.4003C6.77584 20.8649 5.69667 20.1385 4.779 19.221C3.8615 18.3033 3.13509 17.2242 2.59975 15.9835C2.06442 14.743 1.79675 13.4152 1.79675 12C1.79675 10.5848 2.06442 9.257 2.59975 8.0165C3.13509 6.77584 3.8615 5.69667 4.779 4.779C5.69667 3.8615 6.77584 3.13509 8.0165 2.59975C9.257 2.06442 10.5848 1.79675 12 1.79675C13.4152 1.79675 14.743 2.06442 15.9835 2.59975C17.2242 3.13509 18.3033 3.8615 19.221 4.779C20.1385 5.69667 20.8649 6.77584 21.4003 8.0165C21.9356 9.257 22.2033 10.5848 22.2033 12C22.2033 13.4152 21.9356 14.743 21.4003 15.9835C20.8649 17.2242 20.1385 18.3033 19.221 19.221C18.3033 20.1385 17.2242 20.8649 15.9835 21.4003C14.743 21.9356 13.4152 22.2033 12 22.2033ZM12 19.9283C14.2173 19.9283 16.0931 19.1613 17.6273 17.6273C19.1613 16.0931 19.9283 14.2173 19.9283 12C19.9283 9.78267 19.1613 7.90692 17.6273 6.37275C16.0931 4.83875 14.2173 4.07175 12 4.07175C9.78267 4.07175 7.90692 4.83875 6.37275 6.37275C4.83875 7.90692 4.07175 9.78267 4.07175 12C4.07175 14.2173 4.83875 16.0931 6.37275 17.6273C7.90692 19.1613 9.78267 19.9283 12 19.9283Z" fill="#253858"/>
</svg>
