<svg width="24" height="25" viewBox="0 0 24 25" fill="none" xmlns="http://www.w3.org/2000/svg">
<path d="M5.07175 22.7307C4.44209 22.7307 3.9055 22.509 3.462 22.0655C3.0185 21.622 2.79675 21.0854 2.79675 20.4557V6.59922C2.79675 5.96955 3.0185 5.43297 3.462 4.98947C3.9055 4.54597 4.44209 4.32422 5.07175 4.32422H6V3.38997C6 3.09064 6.10384 2.83822 6.3115 2.63272C6.519 2.42705 6.77242 2.32422 7.07175 2.32422C7.37109 2.32422 7.6235 2.42705 7.829 2.63272C8.03467 2.83822 8.1375 3.09064 8.1375 3.38997V4.32422H15.8625V3.38997C15.8625 3.09064 15.9663 2.83822 16.174 2.63272C16.3815 2.42705 16.6349 2.32422 16.9343 2.32422C17.2336 2.32422 17.486 2.42705 17.6915 2.63272C17.8972 2.83822 18 3.09064 18 3.38997V4.32422H18.9283C19.5579 4.32422 20.0945 4.54597 20.538 4.98947C20.9815 5.43297 21.2033 5.96955 21.2033 6.59922V20.4557C21.2033 21.0854 20.9815 21.622 20.538 22.0655C20.0945 22.509 19.5579 22.7307 18.9283 22.7307H5.07175ZM5.07175 20.4557H18.9283V10.5275H5.07175V20.4557ZM5.07175 8.52747H18.9283V6.59922H5.07175V8.52747ZM8.04175 14.5812C7.74659 14.5812 7.49917 14.4808 7.2995 14.28C7.09984 14.0791 7 13.8303 7 13.5335C7 13.2383 7.09984 12.9909 7.2995 12.7912C7.49917 12.5916 7.74659 12.4917 8.04175 12.4917H15.9583C16.2534 12.4917 16.5008 12.5916 16.7005 12.7912C16.9002 12.9909 17 13.2383 17 13.5335C17 13.8288 16.9002 14.0772 16.7005 14.2787C16.5008 14.4804 16.2534 14.5812 15.9583 14.5812H8.04175ZM8.04175 18.5632C7.74659 18.5632 7.49917 18.4628 7.2995 18.262C7.09984 18.0611 7 17.8123 7 17.5155C7 17.2203 7.09984 16.9729 7.2995 16.7732C7.49917 16.5736 7.74659 16.4737 8.04175 16.4737H12.9583C13.2534 16.4737 13.5008 16.5736 13.7005 16.7732C13.9002 16.9729 14 17.2204 14 17.5157C14 17.8109 13.9002 18.0593 13.7005 18.261C13.5008 18.4625 13.2534 18.5632 12.9583 18.5632H8.04175Z" fill="#253858"/>
</svg>
