<svg width="24" height="25" viewBox="0 0 24 25" fill="none" xmlns="http://www.w3.org/2000/svg">
<path d="M8.9075 21.7307H5C4.39417 21.7307 3.8755 21.515 3.444 21.0835C3.0125 20.652 2.79675 20.1333 2.79675 19.5275V15.62C3.55692 15.62 4.21709 15.3747 4.77725 14.8842C5.33742 14.3939 5.6175 13.775 5.6175 13.0275C5.6175 12.28 5.33742 11.6611 4.77725 11.1707C4.21709 10.6802 3.55692 10.435 2.79675 10.435V6.52747C2.79675 5.92164 3.0125 5.40297 3.444 4.97147C3.8755 4.53997 4.39417 4.32422 5 4.32422H8.82675C8.87059 3.60022 9.14809 2.99564 9.65925 2.51047C10.1704 2.02514 10.784 1.78247 11.5 1.78247C12.216 1.78247 12.8296 2.02514 13.3408 2.51047C13.8519 2.99564 14.1294 3.60022 14.1733 4.32422H18C18.6058 4.32422 19.1245 4.53997 19.556 4.97147C19.9875 5.40297 20.2033 5.92164 20.2033 6.52747V10.3542C20.9273 10.3981 21.5318 10.6756 22.017 11.1867C22.5023 11.6979 22.745 12.3115 22.745 13.0275C22.745 13.7435 22.5023 14.3571 22.017 14.8682C21.5318 15.3794 20.9273 15.6569 20.2033 15.7007V19.5275C20.2033 20.1333 19.9875 20.652 19.556 21.0835C19.1245 21.515 18.6058 21.7307 18 21.7307H14.0925C14.0925 20.9214 13.8404 20.234 13.3363 19.6685C12.8323 19.1031 12.2202 18.8205 11.5 18.8205C10.7798 18.8205 10.1678 19.1034 9.66375 19.6692C9.15959 20.2352 8.9075 20.9224 8.9075 21.7307Z" fill="#253858"/>
</svg>
