<svg width="24" height="24" viewBox="0 0 24 24" fill="none" xmlns="http://www.w3.org/2000/svg">
<path d="M12 16C13.25 16 14.3125 15.5625 15.1875 14.6875C16.0625 13.8125 16.5 12.75 16.5 11.5C16.5 10.25 16.0625 9.18751 15.1875 8.31251C14.3125 7.43751 13.25 7.00001 12 7.00001C10.75 7.00001 9.68749 7.43751 8.81249 8.31251C7.93749 9.18751 7.49999 10.25 7.49999 11.5C7.49999 12.75 7.93749 13.8125 8.81249 14.6875C9.68749 15.5625 10.75 16 12 16ZM12.001 14.0745C11.2862 14.0745 10.6782 13.8243 10.1772 13.324C9.67607 12.8235 9.42549 12.2158 9.42549 11.501C9.42549 10.7862 9.67566 10.1783 10.176 9.67726C10.6765 9.17609 11.2842 8.92551 11.999 8.92551C12.7138 8.92551 13.3217 9.17567 13.8227 9.67601C14.3239 10.1765 14.5745 10.7842 14.5745 11.499C14.5745 12.2138 14.3243 12.8218 13.824 13.3228C13.3235 13.8239 12.7158 14.0745 12.001 14.0745ZM12 19.1853C9.74282 19.1853 7.6814 18.5813 5.81574 17.3733C3.95024 16.1654 2.48016 14.5662 1.40549 12.5755C1.31015 12.4057 1.23965 12.2306 1.19399 12.0503C1.14832 11.8701 1.12549 11.6867 1.12549 11.5C1.12549 11.3133 1.14832 11.1299 1.19399 10.9498C1.23965 10.7694 1.31015 10.5943 1.40549 10.4245C2.48016 8.43384 3.95024 6.83459 5.81574 5.62676C7.6814 4.41876 9.74282 3.81476 12 3.81476C14.2572 3.81476 16.3186 4.41876 18.1842 5.62676C20.0497 6.83459 21.5198 8.43384 22.5945 10.4245C22.6898 10.5943 22.7603 10.7694 22.806 10.9498C22.8517 11.1299 22.8745 11.3133 22.8745 11.5C22.8745 11.6867 22.8517 11.8701 22.806 12.0503C22.7603 12.2306 22.6898 12.4057 22.5945 12.5755C21.5198 14.5662 20.0497 16.1654 18.1842 17.3733C16.3186 18.5813 14.2572 19.1853 12 19.1853ZM12.0005 17C13.8795 17 15.6045 16.5032 17.1755 15.5095C18.7465 14.5158 19.9487 13.1793 20.782 11.5C19.9487 9.82067 18.7463 8.48417 17.175 7.49051C15.6037 6.49684 13.8785 6.00001 11.9995 6.00001C10.1205 6.00001 8.39549 6.49684 6.82449 7.49051C5.25349 8.48417 4.05132 9.82067 3.21799 11.5C4.05132 13.1793 5.25365 14.5158 6.82499 15.5095C8.39632 16.5032 10.1215 17 12.0005 17Z" fill="#253858"/>
</svg>
