<svg width="24" height="24" viewBox="0 0 24 24" fill="none" xmlns="http://www.w3.org/2000/svg">
<path d="M18.9982 21.9417L15.6357 18.6232C15.0486 18.8146 14.451 18.9561 13.843 19.0477C13.235 19.1394 12.6207 19.1852 12 19.1852C9.74282 19.1852 7.67724 18.5812 5.80324 17.3732C3.92941 16.1654 2.46149 14.5662 1.39949 12.5755C1.30415 12.4057 1.23465 12.2316 1.19099 12.0532C1.14732 11.8749 1.12549 11.6905 1.12549 11.5C1.12549 11.3095 1.14732 11.1251 1.19099 10.9467C1.23465 10.7684 1.30415 10.5943 1.39949 10.4245C1.75415 9.79032 2.13582 9.17291 2.54449 8.57224C2.95316 7.97157 3.42457 7.42957 3.95874 6.94624L1.94349 4.91199C1.74815 4.71666 1.65049 4.47649 1.65049 4.19149C1.65049 3.90666 1.75449 3.66024 1.96249 3.45224C2.15782 3.25691 2.40216 3.15924 2.69549 3.15924C2.98866 3.15924 3.23291 3.25691 3.42824 3.45224L20.4582 20.482C20.6534 20.6773 20.7542 20.9175 20.7605 21.2025C20.7668 21.4875 20.6661 21.7339 20.4582 21.9417C20.2629 22.1371 20.0196 22.2347 19.7282 22.2347C19.4369 22.2347 19.1936 22.1371 18.9982 21.9417ZM12 16C12.1633 16 12.3194 15.9927 12.4682 15.978C12.6169 15.9633 12.7667 15.933 12.9175 15.887L7.60099 10.5825C7.55899 10.7333 7.53166 10.8831 7.51899 11.0317C7.50632 11.1806 7.49999 11.3367 7.49999 11.5C7.49999 12.75 7.93749 13.8125 8.81249 14.6875C9.68749 15.5625 10.75 16 12 16ZM12 3.81474C14.2572 3.81474 16.3269 4.42291 18.2092 5.63924C20.0914 6.85541 21.5635 8.46082 22.6255 10.4555C22.7168 10.6127 22.7853 10.7794 22.831 10.9557C22.8767 11.1319 22.8995 11.3133 22.8995 11.5C22.8995 11.6867 22.8808 11.8691 22.8435 12.0472C22.8062 12.2256 22.7418 12.3933 22.6505 12.5505C22.3538 13.1273 22.0236 13.6758 21.6597 14.196C21.2961 14.716 20.8905 15.2057 20.443 15.6652C20.1857 15.9344 19.8777 16.0617 19.5192 16.047C19.1607 16.0323 18.8489 15.8924 18.5837 15.6272L16.5777 13.6212C16.4451 13.4886 16.3601 13.3332 16.3227 13.155C16.2854 12.9767 16.2917 12.7942 16.3417 12.6075C16.3966 12.4188 16.4367 12.2374 16.462 12.0632C16.4873 11.8892 16.5 11.7015 16.5 11.5C16.5 10.25 16.0625 9.18749 15.1875 8.31249C14.3125 7.43749 13.25 6.99999 12 6.99999C11.7985 6.99999 11.6107 7.01366 11.4367 7.04099C11.2626 7.06832 11.0812 7.10941 10.8925 7.16424C10.7058 7.21024 10.5202 7.21457 10.3355 7.17724C10.151 7.13991 9.99241 7.05491 9.85974 6.92224L9.11849 6.18099C8.76199 5.82449 8.64582 5.40999 8.76999 4.93749C8.89432 4.46499 9.19274 4.16841 9.66524 4.04774C10.0501 3.97641 10.436 3.91974 10.823 3.87774C11.2102 3.83574 11.6025 3.81474 12 3.81474ZM13.8675 9.68574C14.0148 9.85857 14.1391 10.0483 14.2402 10.255C14.3412 10.4615 14.4064 10.6785 14.4357 10.906C14.4524 11.0153 14.4104 11.0921 14.3097 11.1362C14.2091 11.1802 14.1167 11.1602 14.0325 11.076L12.401 9.44449C12.317 9.36049 12.3002 9.26816 12.3505 9.16749C12.4008 9.06666 12.4827 9.01824 12.5962 9.02224C12.8491 9.05157 13.0809 9.12316 13.2917 9.23699C13.5027 9.35066 13.6947 9.50024 13.8675 9.68574Z" fill="#253858"/>
</svg>
