<svg width="24" height="24" viewBox="0 0 24 24" fill="none" xmlns="http://www.w3.org/2000/svg">
<path d="M15.175 8.32499C15.6025 8.75249 15.9257 9.24374 16.1447 9.79874C16.3637 10.3536 16.4619 10.9241 16.4392 11.5102C16.4392 11.7882 16.3395 12.0237 16.1402 12.2165C15.9409 12.4095 15.7023 12.506 15.4245 12.506C15.1465 12.506 14.911 12.4095 14.7182 12.2165C14.5252 12.0237 14.4287 11.7882 14.4287 11.5102C14.5 11.1527 14.481 10.8108 14.3717 10.4845C14.2622 10.1582 14.0897 9.87724 13.8542 9.64174C13.6187 9.40624 13.3379 9.22649 13.0117 9.10249C12.6854 8.97832 12.3351 8.95191 11.961 9.02324C11.691 9.02324 11.4605 8.92366 11.2695 8.72449C11.0786 8.52516 10.9832 8.29057 10.9832 8.02074C10.9832 7.75074 11.0786 7.52024 11.2695 7.32924C11.4605 7.13841 11.691 7.04299 11.961 7.04299C12.5425 7.01216 13.1116 7.10624 13.6685 7.32524C14.2253 7.54424 14.7275 7.87749 15.175 8.32499ZM12 5.99999C11.7191 5.99999 11.4456 6.01049 11.1795 6.03149C10.9135 6.05249 10.6464 6.09032 10.3782 6.14499C10.071 6.19116 9.79196 6.13957 9.54096 5.99024C9.29013 5.84091 9.12105 5.61899 9.03371 5.32449C8.94638 5.02982 8.98055 4.74957 9.13621 4.48374C9.29171 4.21774 9.5168 4.05974 9.81146 4.00974C10.1708 3.93841 10.5324 3.88807 10.8962 3.85874C11.2599 3.82941 11.6278 3.81474 12 3.81474C14.3111 3.81474 16.4265 4.42366 18.3462 5.64149C20.2657 6.85949 21.7315 8.50307 22.7435 10.5722C22.8141 10.7176 22.8681 10.8681 22.9055 11.0237C22.9428 11.1792 22.9615 11.338 22.9615 11.5C22.9615 11.662 22.948 11.8217 22.921 11.9792C22.894 12.1369 22.8451 12.2884 22.7745 12.4337C22.4785 13.0764 22.1185 13.6805 21.6947 14.246C21.271 14.8113 20.8045 15.3337 20.295 15.813C20.0831 16.0203 19.8309 16.1073 19.5382 16.074C19.2457 16.0407 19.0061 15.9013 18.8195 15.656C18.633 15.4107 18.5512 15.1376 18.5742 14.8367C18.5972 14.5357 18.7147 14.2817 18.9267 14.0745C19.2987 13.7032 19.6415 13.3024 19.955 12.8722C20.2683 12.4422 20.546 11.9848 20.788 11.5C19.9466 9.82066 18.7415 8.48416 17.1725 7.49049C15.6035 6.49682 13.8793 5.99999 12 5.99999ZM12 19.1852C9.7428 19.1852 7.67621 18.5771 5.80021 17.3607C3.92438 16.1446 2.44913 14.5392 1.37446 12.5445C1.28313 12.3873 1.21463 12.2206 1.16896 12.0442C1.1233 11.8681 1.10046 11.6867 1.10046 11.5C1.10046 11.3133 1.11913 11.1341 1.15646 10.9622C1.1938 10.7902 1.25813 10.6193 1.34946 10.4495C1.6748 9.79482 2.0543 9.17124 2.48796 8.57874C2.92163 7.98641 3.41188 7.44224 3.95871 6.94624L1.94346 4.91199C1.74813 4.70399 1.65363 4.45749 1.65996 4.17249C1.6663 3.88749 1.76713 3.64741 1.96246 3.45224C2.1578 3.25691 2.40213 3.15924 2.69546 3.15924C2.98863 3.15924 3.23288 3.25691 3.42821 3.45224L20.4582 20.482C20.6534 20.6773 20.7541 20.9175 20.7605 21.2025C20.7668 21.4875 20.666 21.7339 20.4582 21.9417C20.2629 22.1371 20.0195 22.2347 19.7282 22.2347C19.4369 22.2347 19.1935 22.1371 18.9982 21.9417L15.6357 18.6232C15.0485 18.8146 14.451 18.9561 13.843 19.0477C13.235 19.1394 12.6206 19.1852 12 19.1852ZM5.49621 8.46574C5.02871 8.89907 4.60296 9.36807 4.21896 9.87274C3.83496 10.3776 3.5013 10.92 3.21796 11.5C4.0513 13.1833 5.25346 14.5208 6.82446 15.5125C8.39546 16.5042 10.1206 17 12 17C12.3133 17 12.6204 16.9812 12.9212 16.9435C13.2219 16.9058 13.529 16.864 13.8425 16.818L12.9425 15.868C12.779 15.914 12.6219 15.9475 12.4712 15.9685C12.3204 15.9895 12.1633 16 12 16C10.75 16 9.68746 15.5625 8.81246 14.6875C7.93746 13.8125 7.49996 12.75 7.49996 11.5C7.49996 11.3367 7.50946 11.1796 7.52846 11.0287C7.54746 10.8781 7.57796 10.721 7.61996 10.5575L5.49621 8.46574Z" fill="#253858"/>
</svg>
