<svg width="24" height="24" viewBox="0 0 24 24" fill="none" xmlns="http://www.w3.org/2000/svg">
<path d="M7.07175 14.2033V20.0658C7.07175 20.3849 6.962 20.6543 6.7425 20.874C6.52284 21.0935 6.25342 21.2033 5.93425 21.2033C5.61509 21.2033 5.34567 21.0935 5.126 20.874C4.9065 20.6543 4.79675 20.3849 4.79675 20.0658V4.93425C4.79675 4.61509 4.9065 4.34567 5.126 4.126C5.34567 3.9065 5.61509 3.79675 5.93425 3.79675H13.2288C13.4979 3.79675 13.7362 3.88267 13.9435 4.0545C14.1507 4.2265 14.2833 4.44509 14.3413 4.71025L14.5675 5.79675H19.0658C19.3849 5.79675 19.6543 5.9065 19.874 6.126C20.0935 6.34567 20.2033 6.61509 20.2033 6.93425V15.0658C20.2033 15.3849 20.0935 15.6543 19.874 15.874C19.6543 16.0935 19.3849 16.2033 19.0658 16.2033H13.7713C13.5021 16.2033 13.2638 16.1173 13.0565 15.9455C12.8493 15.7735 12.7168 15.5549 12.6588 15.2898L12.4325 14.2033H7.07175ZM14.7158 13.9283H17.9283V8.07175H13.6228C13.3536 8.07175 13.1154 7.98575 12.9083 7.81375C12.7009 7.64192 12.5683 7.42342 12.5103 7.15825L12.2843 6.07175H7.07175V11.9283H13.3773C13.6464 11.9283 13.8846 12.0143 14.0918 12.1863C14.2991 12.3581 14.4318 12.5766 14.4898 12.8418L14.7158 13.9283Z" fill="#253858"/>
</svg>
