<svg width="24" height="24" viewBox="0 0 24 24" fill="none" xmlns="http://www.w3.org/2000/svg">
<path d="M12 22.2033C10.5848 22.2033 9.257 21.9356 8.0165 21.4003C6.77584 20.8649 5.69667 20.1385 4.779 19.221C3.8615 18.3033 3.13509 17.2242 2.59975 15.9835C2.06442 14.743 1.79675 13.4152 1.79675 12C1.79675 10.5848 2.06442 9.257 2.59975 8.0165C3.13509 6.77584 3.8615 5.69667 4.779 4.779C5.69667 3.8615 6.77584 3.13509 8.0165 2.59975C9.257 2.06442 10.5848 1.79675 12 1.79675C13.4152 1.79675 14.743 2.06442 15.9835 2.59975C17.2242 3.13509 18.3033 3.8615 19.221 4.779C20.1385 5.69667 20.8649 6.77584 21.4003 8.0165C21.9356 9.257 22.2033 10.5848 22.2033 12C22.2033 13.4152 21.9356 14.743 21.4003 15.9835C20.8649 17.2242 20.1385 18.3033 19.221 19.221C18.3033 20.1385 17.2242 20.8649 15.9835 21.4003C14.743 21.9356 13.4152 22.2033 12 22.2033ZM12 19.9283C14.1457 19.9283 15.9726 19.2051 17.4808 17.7588C18.9889 16.3124 19.7888 14.5343 19.8805 12.4245C19.8805 12.3357 19.8773 12.2438 19.871 12.1488C19.8647 12.0536 19.8615 11.9743 19.8615 11.911C19.7502 12.3265 19.5232 12.6677 19.1805 12.9345C18.8377 13.2013 18.4382 13.3348 17.982 13.3348H16.024C15.4542 13.3348 14.9664 13.1319 14.5608 12.7263C14.1551 12.3206 13.9523 11.8328 13.9523 11.263V10.2273H9.80875V8.20325C9.80875 7.63192 10.0116 7.14284 10.4173 6.736C10.8229 6.329 11.3107 6.1255 11.8805 6.1255H12.9163C12.9163 5.71684 13.0254 5.35709 13.2438 5.04625C13.4621 4.73542 13.7292 4.50025 14.045 4.34075C13.7157 4.25925 13.3822 4.194 13.0445 4.145C12.7068 4.09617 12.3587 4.07175 12 4.07175C9.78267 4.07175 7.90692 4.83875 6.37275 6.37275C4.83875 7.90692 4.07175 9.78267 4.07175 12C4.07175 12.02 4.07275 12.0399 4.07475 12.0598C4.07675 12.0798 4.07775 12.0997 4.07775 12.1195H8.713C9.85684 12.1195 10.8334 12.5242 11.6428 13.3335C12.4519 14.1427 12.8565 15.1183 12.8565 16.2605V17.299H9.749V19.5885C10.1142 19.6998 10.4813 19.7843 10.8503 19.8418C11.2193 19.8994 11.6025 19.9283 12 19.9283Z" fill="#253858"/>
</svg>
