<svg width="24" height="24" viewBox="0 0 24 24" fill="none" xmlns="http://www.w3.org/2000/svg">
<path d="M11.994 20.5042C11.7248 20.5042 11.4545 20.4557 11.183 20.3585C10.9113 20.2612 10.6699 20.1089 10.4588 19.9017L8.72175 18.3147C6.96309 16.7099 5.36925 15.1047 3.94025 13.4992C2.51125 11.8936 1.79675 10.1105 1.79675 8.14998C1.79675 6.52365 2.33967 5.16557 3.4255 4.07574C4.51134 2.98574 5.8675 2.44073 7.494 2.44073C8.36934 2.44073 9.19667 2.61923 9.976 2.97623C10.7553 3.3334 11.428 3.82899 11.994 4.46299C12.56 3.82899 13.2327 3.3334 14.012 2.97623C14.7913 2.61923 15.6187 2.44073 16.494 2.44073C18.122 2.44073 19.4815 2.98574 20.5725 4.07574C21.6637 5.16557 22.2093 6.52365 22.2093 8.14998C22.2093 10.1105 21.4959 11.8977 20.0693 13.5117C18.6426 15.1256 17.0333 16.7369 15.2413 18.3457L13.5353 19.9075C13.3241 20.1148 13.0818 20.2662 12.8083 20.3615C12.5346 20.4567 12.2632 20.5042 11.994 20.5042ZM11.0023 6.77998C10.5428 6.12049 10.035 5.61157 9.479 5.25323C8.923 4.8949 8.26192 4.71573 7.49575 4.71573C6.51742 4.71573 5.70217 5.04207 5.05 5.69473C4.39784 6.34757 4.07175 7.16598 4.07175 8.14998C4.07175 9.00899 4.37709 9.92165 4.98775 10.888C5.59842 11.8545 6.32875 12.792 7.17875 13.7005C8.02875 14.6092 8.9035 15.4599 9.803 16.2527C10.7025 17.0457 11.4328 17.6982 11.994 18.2102C12.5567 17.6936 13.2886 17.039 14.1898 16.2465C15.0909 15.4538 15.9673 14.6035 16.8188 13.6955C17.6704 12.7873 18.4026 11.8517 19.0153 10.8885C19.6279 9.92548 19.9343 9.01265 19.9343 8.14998C19.9343 7.16598 19.6069 6.34757 18.9523 5.69473C18.2974 5.04207 17.479 4.71573 16.497 4.71573C15.7277 4.71573 15.066 4.8949 14.512 5.25323C13.958 5.61157 13.4513 6.12049 12.9918 6.77998C12.8699 6.95849 12.722 7.0924 12.548 7.18174C12.374 7.27107 12.1893 7.31573 11.994 7.31573C11.7987 7.31573 11.6148 7.27107 11.4423 7.18174C11.2696 7.0924 11.1229 6.95849 11.0023 6.77998Z" fill="#253858"/>
</svg>
