<svg width="24" height="25" viewBox="0 0 24 25" fill="none" xmlns="http://www.w3.org/2000/svg">
<path d="M11.994 21.0317C11.7248 21.0317 11.4545 20.9831 11.183 20.886C10.9113 20.7886 10.6699 20.6364 10.4588 20.4292L8.72175 18.8422C6.96309 17.2374 5.36925 15.6322 3.94025 14.0267C2.51125 12.421 1.79675 10.638 1.79675 8.67745C1.79675 7.05095 2.33967 5.69278 3.4255 4.60295C4.51134 3.51312 5.8675 2.9682 7.494 2.9682C8.36934 2.9682 9.19667 3.1467 9.976 3.5037C10.7553 3.86087 11.428 4.35645 11.994 4.99045C12.56 4.35645 13.2327 3.86087 14.012 3.5037C14.7913 3.1467 15.6187 2.9682 16.494 2.9682C18.1205 2.9682 19.4797 3.51312 20.5715 4.60295C21.6633 5.69278 22.2093 7.05095 22.2093 8.67745C22.2093 10.638 21.4959 12.4252 20.0693 14.0392C18.6426 15.653 17.0333 17.2644 15.2413 18.8732L13.5353 20.4349C13.3241 20.6423 13.0818 20.7936 12.8083 20.889C12.5346 20.9841 12.2632 21.0317 11.994 21.0317Z" fill="#253858"/>
</svg>
