<svg width="24" height="24" viewBox="0 0 24 24" fill="none" xmlns="http://www.w3.org/2000/svg">
<path d="M11.932 18C12.298 18 12.6088 17.8722 12.8645 17.6165C13.12 17.361 13.2478 17.05 13.2478 16.6835C13.2478 16.317 13.12 16.0072 12.8645 15.754C12.6088 15.501 12.298 15.3745 11.932 15.3745C11.5662 15.3745 11.2554 15.501 10.9998 15.754C10.7441 16.0072 10.6163 16.317 10.6163 16.6835C10.6163 17.05 10.7441 17.361 10.9998 17.6165C11.2554 17.8722 11.5662 18 11.932 18ZM12 22.2033C10.5848 22.2033 9.257 21.9356 8.0165 21.4003C6.77584 20.8649 5.69667 20.1385 4.779 19.221C3.8615 18.3033 3.13509 17.2242 2.59975 15.9835C2.06442 14.743 1.79675 13.4152 1.79675 12C1.79675 10.5848 2.06442 9.257 2.59975 8.0165C3.13509 6.77584 3.8615 5.69667 4.779 4.779C5.69667 3.8615 6.77584 3.13509 8.0165 2.59975C9.257 2.06442 10.5848 1.79675 12 1.79675C13.4152 1.79675 14.743 2.06442 15.9835 2.59975C17.2242 3.13509 18.3033 3.8615 19.221 4.779C20.1385 5.69667 20.8649 6.77584 21.4003 8.0165C21.9356 9.257 22.2033 10.5848 22.2033 12C22.2033 13.4152 21.9356 14.743 21.4003 15.9835C20.8649 17.2242 20.1385 18.3033 19.221 19.221C18.3033 20.1385 17.2242 20.8649 15.9835 21.4003C14.743 21.9356 13.4152 22.2033 12 22.2033ZM12.082 7.8255C12.4665 7.8255 12.8011 7.94975 13.0858 8.19825C13.3703 8.44675 13.5125 8.75734 13.5125 9.13C13.5125 9.47667 13.407 9.78567 13.196 10.057C12.9848 10.3285 12.7456 10.5813 12.4783 10.8153C12.0949 11.1486 11.7564 11.5173 11.4628 11.9213C11.1691 12.3253 11.0223 12.7773 11.0223 13.2773C11.0223 13.5241 11.1152 13.7313 11.301 13.8988C11.487 14.0663 11.7039 14.15 11.9518 14.15C12.2173 14.15 12.4435 14.0617 12.6305 13.885C12.8173 13.7083 12.9438 13.4891 13.0098 13.2273C13.0844 12.8931 13.2314 12.5955 13.4508 12.3345C13.6703 12.0735 13.9073 11.8239 14.162 11.5858C14.5453 11.2231 14.8705 10.8222 15.1375 10.383C15.4045 9.94367 15.538 9.45934 15.538 8.93C15.538 8.072 15.1952 7.36717 14.5095 6.8155C13.8238 6.26384 13.0247 5.988 12.112 5.988C11.4627 5.988 10.8475 6.12534 10.2665 6.4C9.6855 6.67467 9.23709 7.091 8.92125 7.649C8.79659 7.86084 8.75692 8.08717 8.80225 8.328C8.84775 8.56884 8.97034 8.75175 9.17 8.87675C9.41534 9.02192 9.672 9.0665 9.94 9.0105C10.2078 8.95467 10.4331 8.80609 10.6158 8.56475C10.7911 8.33059 11.0085 8.14884 11.268 8.0195C11.5277 7.89017 11.799 7.8255 12.082 7.8255Z" fill="#253858"/>
</svg>
