<svg width="24" height="24" viewBox="0 0 24 24" fill="none" xmlns="http://www.w3.org/2000/svg">
<path d="M6.07175 18.9282H8.8625V14C8.8625 13.6808 8.97225 13.4114 9.19175 13.1917C9.41142 12.9722 9.68084 12.8625 10 12.8625H14C14.3192 12.8625 14.5886 12.9722 14.8083 13.1917C15.0278 13.4114 15.1375 13.6808 15.1375 14V18.9282H17.9283V10.0357L12 5.58975L6.07175 10.0357V18.9282ZM3.79675 18.9282V10.0357C3.79675 9.67625 3.87659 9.33566 4.03625 9.014C4.19575 8.69233 4.41842 8.42591 4.70425 8.21475L10.6325 3.7685C11.0343 3.462 11.4902 3.30875 12 3.30875C12.5098 3.30875 12.9657 3.462 13.3675 3.7685L19.2958 8.21475C19.5816 8.42591 19.8043 8.69233 19.9638 9.014C20.1234 9.33566 20.2033 9.67625 20.2033 10.0357V18.9282C20.2033 19.5579 19.9815 20.0945 19.538 20.538C19.0945 20.9815 18.5579 21.2032 17.9283 21.2032H14.0898C13.7704 21.2032 13.501 21.0935 13.2815 20.874C13.062 20.6543 12.9523 20.3849 12.9523 20.0657V15.0477H11.0478V20.0657C11.0478 20.3849 10.938 20.6543 10.7185 20.874C10.499 21.0935 10.2296 21.2032 9.91025 21.2032H6.07175C5.44209 21.2032 4.9055 20.9815 4.462 20.538C4.0185 20.0945 3.79675 19.5579 3.79675 18.9282Z" fill="#253858"/>
</svg>
