<svg width="24" height="24" viewBox="0 0 24 24" fill="none" xmlns="http://www.w3.org/2000/svg">
<path d="M3.79675 18.9282V10.0357C3.79675 9.67525 3.87659 9.33441 4.03625 9.01325C4.19575 8.69208 4.41842 8.42591 4.70425 8.21475L10.6325 3.7685C11.0343 3.462 11.4902 3.30875 12 3.30875C12.5098 3.30875 12.9657 3.462 13.3675 3.7685L19.2958 8.21475C19.5816 8.42591 19.8043 8.69208 19.9638 9.01325C20.1234 9.33441 20.2033 9.67525 20.2033 10.0357V18.9282C20.2033 19.5579 19.9815 20.0945 19.538 20.538C19.0945 20.9815 18.5579 21.2032 17.9283 21.2032H15.1853C14.8661 21.2032 14.5968 21.0935 14.3773 20.874C14.1576 20.6543 14.0478 20.3849 14.0478 20.0657V15.0897C14.0478 14.7704 13.938 14.501 13.7185 14.2815C13.499 14.062 13.2296 13.9522 12.9103 13.9522H11.0898C10.7704 13.9522 10.501 14.062 10.2815 14.2815C10.062 14.501 9.95225 14.7704 9.95225 15.0897V20.0657C9.95225 20.3849 9.84242 20.6543 9.62275 20.874C9.40325 21.0935 9.13392 21.2032 8.81475 21.2032H6.07175C5.44209 21.2032 4.9055 20.9815 4.462 20.538C4.0185 20.0945 3.79675 19.5579 3.79675 18.9282Z" fill="#253858"/>
</svg>
