<svg width="24" height="25" viewBox="0 0 24 25" fill="none" xmlns="http://www.w3.org/2000/svg">
<path d="M5.07175 21.7307C4.44209 21.7307 3.9055 21.509 3.462 21.0655C3.0185 20.622 2.79675 20.0854 2.79675 19.4557V5.59922C2.79675 4.96955 3.0185 4.43297 3.462 3.98947C3.9055 3.54597 4.44209 3.32422 5.07175 3.32422H18.9283C19.5579 3.32422 20.0945 3.54597 20.538 3.98947C20.9815 4.43297 21.2033 4.96955 21.2033 5.59922V19.4557C21.2033 20.0854 20.9815 20.622 20.538 21.0655C20.0945 21.509 19.5579 21.7307 18.9283 21.7307H5.07175ZM5.07175 19.4557H18.9283V5.59922H5.07175V19.4557ZM7.024 17.5992H16.976C17.208 17.5992 17.3779 17.4956 17.4858 17.2882C17.5938 17.0811 17.5752 16.8822 17.43 16.6917L14.7038 13.0167C14.5918 12.8634 14.4405 12.7857 14.25 12.7837C14.0595 12.7817 13.9063 12.8574 13.7903 13.0107L11.25 16.408L9.45975 14.0107C9.34375 13.8574 9.1905 13.7817 9 13.7837C8.8095 13.7857 8.65825 13.8634 8.54625 14.0167L6.57 16.6917C6.42484 16.8822 6.40625 17.0811 6.51425 17.2882C6.62209 17.4956 6.792 17.5992 7.024 17.5992Z" fill="#253858"/>
</svg>
