<svg width="24" height="25" viewBox="0 0 24 25" fill="none" xmlns="http://www.w3.org/2000/svg">
<path d="M11 10.7252V7.53947C11 7.25614 11.0958 7.01864 11.2875 6.82697C11.4792 6.6353 11.7167 6.53947 12 6.53947C12.2833 6.53947 12.5208 6.6353 12.7125 6.82697C12.9042 7.01864 13 7.25614 13 7.53947V10.7252L13.893 9.83247C13.985 9.7403 14.1104 9.68922 14.2693 9.67922C14.4281 9.66905 14.584 9.67805 14.737 9.70622C14.8898 9.73455 15.0238 9.76572 15.1388 9.79972C15.2539 9.83372 15.3117 9.85097 15.312 9.85147C15.4953 10.0515 15.5912 10.2848 15.5995 10.5515C15.6078 10.8181 15.512 11.0515 15.312 11.2515L12.8018 13.7617C12.6898 13.8737 12.5654 13.9555 12.4288 14.007C12.2923 14.0586 12.1493 14.0845 12 14.0845C11.8507 14.0845 11.7078 14.0586 11.5713 14.007C11.4346 13.9555 11.3103 13.8737 11.1983 13.7617L8.688 11.2515C8.596 11.1593 8.54392 11.0338 8.53175 10.875C8.51959 10.7161 8.5245 10.5603 8.5465 10.4075C8.56834 10.2545 8.59634 10.1236 8.6305 10.015C8.6645 9.9063 8.68367 9.8518 8.688 9.85147C8.888 9.65147 9.1245 9.5483 9.3975 9.54197C9.6705 9.53564 9.907 9.63247 10.107 9.83247L11 10.7252ZM5.07175 21.7307C4.44209 21.7307 3.9055 21.509 3.462 21.0655C3.0185 20.622 2.79675 20.0854 2.79675 19.4557V5.59922C2.79675 4.96955 3.0185 4.43297 3.462 3.98947C3.9055 3.54597 4.44209 3.32422 5.07175 3.32422H18.9283C19.5579 3.32422 20.0945 3.54597 20.538 3.98947C20.9815 4.43297 21.2033 4.96955 21.2033 5.59922V19.4557C21.2033 20.0854 20.9815 20.622 20.538 21.0655C20.0945 21.509 19.5579 21.7307 18.9283 21.7307H5.07175ZM5.07175 19.4557H18.9283V16.4917H16C15.5 17.1251 14.9042 17.6167 14.2125 17.9667C13.5208 18.3167 12.7833 18.4917 12 18.4917C11.2167 18.4917 10.4792 18.3167 9.7875 17.9667C9.09584 17.6167 8.5 17.1251 8 16.4917H5.07175V19.4557ZM12 16.4917C12.5213 16.4917 13.005 16.3601 13.451 16.097C13.897 15.834 14.2578 15.4815 14.5333 15.0395C14.6421 14.8751 14.7782 14.7427 14.9415 14.6422C15.1048 14.5419 15.2863 14.4917 15.4858 14.4917H18.9283V5.59922H5.07175V14.4917H8.51425C8.71375 14.4917 8.89517 14.5419 9.0585 14.6422C9.22184 14.7427 9.35792 14.8751 9.46675 15.0395C9.74225 15.4815 10.103 15.834 10.549 16.097C10.995 16.3601 11.4787 16.4917 12 16.4917Z" fill="#253858"/>
</svg>
