<svg width="24" height="25" viewBox="0 0 24 25" fill="none" xmlns="http://www.w3.org/2000/svg">
<path d="M11.9993 14.174C12.5736 14.174 13.0656 13.9682 13.4753 13.5567C13.8849 13.1451 14.0898 12.6521 14.0898 12.0777C14.0898 11.5032 13.8852 11.0114 13.476 10.6022C13.067 10.1932 12.5753 9.98874 12.0008 9.98874C11.4264 9.98874 10.9344 10.1932 10.5248 10.6022C10.1151 11.0114 9.91025 11.5032 9.91025 12.0777C9.91025 12.6521 10.1148 13.1451 10.524 13.5567C10.933 13.9682 11.4248 14.174 11.9993 14.174ZM7.91025 18.3535H16.0898V17.6887C16.0898 17.2727 15.9754 16.8892 15.7468 16.538C15.5181 16.1867 15.2061 15.9257 14.8108 15.755C14.3736 15.5677 13.9226 15.424 13.4578 15.324C12.9929 15.224 12.507 15.174 12 15.174C11.493 15.174 11.0071 15.224 10.5423 15.324C10.0774 15.424 9.62642 15.5677 9.18925 15.755C8.79392 15.9257 8.48192 16.1867 8.25325 16.538C8.02459 16.8892 7.91025 17.2727 7.91025 17.6887V18.3535ZM17.9283 22.467H6.07175C5.44209 22.467 4.9055 22.2452 4.462 21.8017C4.0185 21.3582 3.79675 20.8217 3.79675 20.192V4.33549C3.79675 3.70582 4.0185 3.16924 4.462 2.72574C4.9055 2.28224 5.44209 2.06049 6.07175 2.06049H13.145C13.4487 2.06049 13.738 2.11749 14.013 2.23149C14.288 2.34532 14.5312 2.5079 14.7425 2.71924L19.5445 7.52124C19.7558 7.73257 19.9184 7.97574 20.0323 8.25074C20.1463 8.52574 20.2033 8.81507 20.2033 9.11874V20.192C20.2033 20.8217 19.9815 21.3582 19.538 21.8017C19.0945 22.2452 18.5579 22.467 17.9283 22.467ZM17.9283 20.192V9.14374L13.12 4.33549H6.07175V20.192H17.9283Z" fill="#253858"/>
</svg>
