<svg width="24" height="24" viewBox="0 0 24 24" fill="none" xmlns="http://www.w3.org/2000/svg">
<path d="M12 17.0898C12.3087 17.0898 12.5675 16.9853 12.7765 16.7765C12.9853 16.5675 13.0898 16.3087 13.0898 16V12.0898C13.0898 11.7809 12.9853 11.5221 12.7765 11.3133C12.5675 11.1044 12.3087 11 12 11C11.6913 11 11.4325 11.1044 11.2235 11.3133C11.0147 11.5221 10.9103 11.7809 10.9103 12.0898V16C10.9103 16.3087 11.0147 16.5675 11.2235 16.7765C11.4325 16.9853 11.6913 17.0898 12 17.0898ZM12 9.1195C12.3172 9.1195 12.5831 9.01225 12.7978 8.79775C13.0123 8.58309 13.1195 8.31717 13.1195 8C13.1195 7.68284 13.0123 7.41692 12.7978 7.20225C12.5831 6.98775 12.3172 6.8805 12 6.8805C11.6828 6.8805 11.4169 6.98775 11.2023 7.20225C10.9878 7.41692 10.8805 7.68284 10.8805 8C10.8805 8.31717 10.9878 8.58309 11.2023 8.79775C11.4169 9.01225 11.6828 9.1195 12 9.1195ZM12 22.2033C10.5848 22.2033 9.257 21.9356 8.0165 21.4003C6.77584 20.8649 5.69667 20.1385 4.779 19.221C3.8615 18.3033 3.13509 17.2242 2.59975 15.9835C2.06442 14.743 1.79675 13.4152 1.79675 12C1.79675 10.5848 2.06442 9.257 2.59975 8.0165C3.13509 6.77584 3.8615 5.69667 4.779 4.779C5.69667 3.8615 6.77584 3.13509 8.0165 2.59975C9.257 2.06442 10.5848 1.79675 12 1.79675C13.4152 1.79675 14.743 2.06442 15.9835 2.59975C17.2242 3.13509 18.3033 3.8615 19.221 4.779C20.1385 5.69667 20.8649 6.77584 21.4003 8.0165C21.9356 9.257 22.2033 10.5848 22.2033 12C22.2033 13.4152 21.9356 14.743 21.4003 15.9835C20.8649 17.2242 20.1385 18.3033 19.221 19.221C18.3033 20.1385 17.2242 20.8649 15.9835 21.4003C14.743 21.9356 13.4152 22.2033 12 22.2033ZM12 19.9283C14.2173 19.9283 16.0931 19.1613 17.6273 17.6273C19.1613 16.0931 19.9283 14.2173 19.9283 12C19.9283 9.78267 19.1613 7.90692 17.6273 6.37275C16.0931 4.83875 14.2173 4.07175 12 4.07175C9.78267 4.07175 7.90692 4.83875 6.37275 6.37275C4.83875 7.90692 4.07175 9.78267 4.07175 12C4.07175 14.2173 4.83875 16.0931 6.37275 17.6273C7.90692 19.1613 9.78267 19.9283 12 19.9283Z" fill="#253858"/>
</svg>
