<svg width="24" height="24" viewBox="0 0 24 24" fill="none" xmlns="http://www.w3.org/2000/svg">
<path d="M12 22.2033C10.6055 22.2033 9.28792 21.9348 8.04725 21.3978C6.80675 20.8609 5.72334 20.1293 4.797 19.203C3.87067 18.2767 3.13909 17.1933 2.60225 15.9528C2.06525 14.7121 1.79675 13.3945 1.79675 12C1.79675 10.5928 2.06525 9.27209 2.60225 8.03775C3.13909 6.80359 3.87067 5.72334 4.797 4.797C5.72334 3.87067 6.80675 3.13909 8.04725 2.60225C9.28792 2.06525 10.6055 1.79675 12 1.79675C13.4072 1.79675 14.7279 2.06525 15.9623 2.60225C17.1964 3.13909 18.2767 3.87067 19.203 4.797C20.1293 5.72334 20.8609 6.80359 21.3978 8.03775C21.9348 9.27209 22.2033 10.5928 22.2033 12C22.2033 13.3945 21.9348 14.7121 21.3978 15.9528C20.8609 17.1933 20.1293 18.2767 19.203 19.203C18.2767 20.1293 17.1964 20.8609 15.9623 21.3978C14.7279 21.9348 13.4072 22.2033 12 22.2033ZM11.988 19.8843C12.4055 19.2923 12.7726 18.6723 13.0893 18.0243C13.4059 17.3763 13.6643 16.6896 13.8643 15.9643H10.13C10.33 16.6896 10.5853 17.3763 10.896 18.0243C11.2067 18.6723 11.5707 19.2923 11.988 19.8843ZM9.418 19.4843C9.11 18.9423 8.8475 18.3754 8.6305 17.7838C8.4135 17.1921 8.23 16.5856 8.08 15.9643H5.16575C5.63709 16.7896 6.23225 17.5086 6.95125 18.1213C7.67042 18.7339 8.49267 19.1883 9.418 19.4843ZM14.5643 19.4843C15.4896 19.1883 16.3138 18.7339 17.0368 18.1213C17.7598 17.5086 18.3569 16.7896 18.8283 15.9643H15.9143C15.7643 16.5856 15.5787 17.1921 15.3575 17.7838C15.1365 18.3754 14.8721 18.9423 14.5643 19.4843ZM4.32175 13.982H7.68C7.63 13.6487 7.5925 13.3215 7.5675 13.0005C7.5425 12.6795 7.53 12.346 7.53 12C7.53 11.65 7.5425 11.3155 7.5675 10.9965C7.5925 10.6775 7.63 10.3513 7.68 10.018H4.32175C4.23842 10.3473 4.17592 10.6725 4.13425 10.9935C4.09259 11.3145 4.07175 11.65 4.07175 12C4.07175 12.346 4.09259 12.6805 4.13425 13.0035C4.17592 13.3265 4.23842 13.6527 4.32175 13.982ZM9.68 13.982H14.3143C14.3643 13.6487 14.3998 13.3215 14.4208 13.0005C14.4418 12.6795 14.4523 12.346 14.4523 12C14.4523 11.65 14.4418 11.3155 14.4208 10.9965C14.3998 10.6775 14.3643 10.3513 14.3143 10.018H9.68C9.63 10.3513 9.5925 10.6775 9.5675 10.9965C9.5425 11.3155 9.53 11.65 9.53 12C9.53 12.346 9.5425 12.6795 9.5675 13.0005C9.5925 13.3215 9.63 13.6487 9.68 13.982ZM16.3143 13.982H19.6663C19.7496 13.6527 19.8121 13.3265 19.8538 13.0035C19.8954 12.6805 19.9163 12.346 19.9163 12C19.9163 11.65 19.8954 11.3145 19.8538 10.9935C19.8121 10.6725 19.7496 10.3473 19.6663 10.018H16.3143C16.3603 10.3513 16.3948 10.6775 16.4178 10.9965C16.4408 11.3155 16.4523 11.65 16.4523 12C16.4523 12.346 16.4408 12.6795 16.4178 13.0005C16.3948 13.3215 16.3603 13.6487 16.3143 13.982ZM15.9143 8.03H18.8283C18.3569 7.2045 17.7598 6.48642 17.0368 5.87575C16.3138 5.26509 15.4896 4.81175 14.5643 4.51575C14.8721 5.05775 15.1365 5.62359 15.3575 6.21325C15.5787 6.80292 15.7643 7.4085 15.9143 8.03ZM10.13 8.03H13.8643C13.6681 7.3045 13.4117 6.61875 13.095 5.97275C12.7783 5.32675 12.4093 4.70775 11.988 4.11575C11.5707 4.70775 11.2067 5.32675 10.896 5.97275C10.5853 6.61875 10.33 7.3045 10.13 8.03ZM5.16575 8.03H8.08C8.23 7.4085 8.4135 6.80292 8.6305 6.21325C8.8475 5.62359 9.11 5.05775 9.418 4.51575C8.49267 4.81175 7.67042 5.26509 6.95125 5.87575C6.23225 6.48642 5.63709 7.2045 5.16575 8.03Z" fill="#253858"/>
</svg>
