<svg width="24" height="24" viewBox="0 0 24 24" fill="none" xmlns="http://www.w3.org/2000/svg">
<path d="M20.8745 8.1195C21.4755 8.1195 22.0049 8.34842 22.4627 8.80625C22.9206 9.26409 23.1495 9.7935 23.1495 10.3945V12.03C23.1495 12.1545 23.136 12.2894 23.109 12.4348C23.082 12.5801 23.0415 12.7131 22.9875 12.8338L19.9517 19.9853C19.7857 20.3664 19.5028 20.6887 19.103 20.952C18.7031 21.2152 18.2856 21.3468 17.8505 21.3468H10.0897C9.45989 21.3468 8.92331 21.125 8.47998 20.6815C8.03648 20.238 7.81473 19.7014 7.81473 19.0718V9.05825C7.81473 8.75159 7.87481 8.4615 7.99498 8.188C8.11531 7.9145 8.28114 7.67209 8.49248 7.46075L13.5347 2.4435C13.8286 2.16234 14.1712 1.98775 14.5627 1.91975C14.9542 1.85192 15.3302 1.90925 15.6907 2.09175C16.0472 2.27042 16.3063 2.53467 16.468 2.8845C16.6295 3.23434 16.6606 3.5995 16.5615 3.98L15.544 8.1195H20.8745ZM3.76673 21.3468C3.20489 21.3468 2.72414 21.1469 2.32448 20.7473C1.92481 20.3476 1.72498 19.8668 1.72498 19.305V10.1615C1.72498 9.5995 1.92281 9.11867 2.31848 8.719C2.71414 8.31934 3.19098 8.1195 3.74898 8.1195H3.77273C4.33473 8.1195 4.81556 8.31934 5.21523 8.719C5.61489 9.11867 5.81473 9.5995 5.81473 10.1615V19.305C5.81473 19.8668 5.61489 20.3476 5.21523 20.7473C4.81556 21.1469 4.33473 21.3468 3.77273 21.3468H3.76673Z" fill="#253858"/>
</svg>
