<svg width="24" height="24" viewBox="0 0 24 24" fill="none" xmlns="http://www.w3.org/2000/svg">
<path d="M20.8745 8.11949C21.4755 8.11949 22.0049 8.34841 22.4627 8.80624C22.9206 9.26407 23.1495 9.79349 23.1495 10.3945V12.03C23.1495 12.1563 23.1328 12.2917 23.0995 12.436C23.0661 12.5805 23.0288 12.7131 22.9875 12.8337L19.9517 19.9852C19.7817 20.3664 19.4968 20.6887 19.097 20.952C18.6971 21.2152 18.2816 21.3467 17.8505 21.3467H6.81473V8.11949L12.5397 2.43849C12.8336 2.14465 13.1762 1.96699 13.5677 1.90549C13.9592 1.84382 14.3352 1.90432 14.6957 2.08699C15.0522 2.26565 15.3134 2.53082 15.4792 2.88249C15.6452 3.23432 15.6766 3.59849 15.5732 3.97499L14.532 8.11949H20.8745ZM8.99998 9.17274V19.0717H17.8505L20.8625 12.03V10.3945H11.707L12.9852 5.18749L8.99998 9.17274ZM3.99998 21.3467C3.37031 21.3467 2.83373 21.125 2.39023 20.6815C1.94673 20.238 1.72498 19.7014 1.72498 19.0717V10.3945C1.72498 9.76482 1.94673 9.22824 2.39023 8.78474C2.83373 8.34124 3.37031 8.11949 3.99998 8.11949H6.81473V10.3945H3.99998V19.0717H6.81473V21.3467H3.99998Z" fill="#253858"/>
</svg>
