<svg width="24" height="25" viewBox="0 0 24 25" fill="none" xmlns="http://www.w3.org/2000/svg">
<path d="M7 17.7307C5.5605 17.7307 4.33342 17.2235 3.31875 16.209C2.30409 15.1945 1.79675 13.9675 1.79675 12.528C1.79675 11.0885 2.30409 9.8613 3.31875 8.84647C4.33342 7.83164 5.5605 7.32422 7 7.32422H9.77275C10.0921 7.32422 10.3615 7.43397 10.581 7.65347C10.8005 7.87314 10.9103 8.14255 10.9103 8.46172C10.9103 8.78089 10.8005 9.0503 10.581 9.26997C10.3615 9.48947 10.0921 9.59922 9.77275 9.59922H7C6.18667 9.59922 5.49525 9.88389 4.92575 10.4532C4.35642 11.0227 4.07175 11.7141 4.07175 12.5275C4.07175 13.3408 4.35642 14.0322 4.92575 14.6017C5.49525 15.1711 6.18667 15.4557 7 15.4557H9.77275C10.0921 15.4557 10.3615 15.5655 10.581 15.785C10.8005 16.0046 10.9103 16.2741 10.9103 16.5932C10.9103 16.9124 10.8005 17.1818 10.581 17.4015C10.3615 17.621 10.0921 17.7307 9.77275 17.7307H7ZM8.91025 13.5752C8.61342 13.5752 8.36459 13.4748 8.16375 13.274C7.96292 13.0731 7.8625 12.8243 7.8625 12.5275C7.8625 12.2306 7.96292 11.9818 8.16375 11.781C8.36459 11.5801 8.61342 11.4797 8.91025 11.4797H15.0898C15.3866 11.4797 15.6354 11.5801 15.8363 11.781C16.0371 11.9818 16.1375 12.2306 16.1375 12.5275C16.1375 12.8243 16.0371 13.0731 15.8363 13.274C15.6354 13.4748 15.3866 13.5752 15.0898 13.5752H8.91025ZM14.2273 17.7307C13.9079 17.7307 13.6385 17.621 13.419 17.4015C13.1995 17.1818 13.0898 16.9124 13.0898 16.5932C13.0898 16.2741 13.1995 16.0046 13.419 15.785C13.6385 15.5655 13.9079 15.4557 14.2273 15.4557H17C17.8133 15.4557 18.5048 15.1711 19.0743 14.6017C19.6436 14.0322 19.9283 13.3408 19.9283 12.5275C19.9283 11.7141 19.6436 11.0227 19.0743 10.4532C18.5048 9.88389 17.8133 9.59922 17 9.59922H14.2273C13.9079 9.59922 13.6385 9.48947 13.419 9.26997C13.1995 9.0503 13.0898 8.78089 13.0898 8.46172C13.0898 8.14255 13.1995 7.87314 13.419 7.65347C13.6385 7.43397 13.9079 7.32422 14.2273 7.32422H17C18.4395 7.32422 19.6666 7.83147 20.6813 8.84597C21.6959 9.86047 22.2033 11.0875 22.2033 12.527C22.2033 13.9665 21.6959 15.1936 20.6813 16.2085C19.6666 17.2233 18.4395 17.7307 17 17.7307H14.2273Z" fill="#253858"/>
</svg>
