<svg width="24" height="25" viewBox="0 0 24 25" fill="none" xmlns="http://www.w3.org/2000/svg">
<path d="M6.07175 22.7127C5.44609 22.7127 4.9105 22.4899 4.465 22.0444C4.0195 21.5989 3.79675 21.0634 3.79675 20.4377V10.5812C3.79675 9.95553 4.0195 9.41995 4.465 8.97445C4.9105 8.52895 5.44609 8.3062 6.07175 8.3062H6.91025V6.4797C6.91025 5.06436 7.40575 3.85928 8.39675 2.86445C9.38775 1.86945 10.5888 1.37195 12 1.37195C13.4112 1.37195 14.6123 1.86945 15.6033 2.86445C16.5943 3.85928 17.0898 5.06436 17.0898 6.4797V8.3062H17.9283C18.5539 8.3062 19.0895 8.52895 19.535 8.97445C19.9805 9.41995 20.2033 9.95553 20.2033 10.5812V20.4377C20.2033 21.0634 19.9805 21.5989 19.535 22.0444C19.0895 22.4899 18.5539 22.7127 17.9283 22.7127H6.07175ZM12 17.5094C12.55 17.5094 13.0208 17.3136 13.4125 16.9219C13.8042 16.5303 14 16.0594 14 15.5094C14 14.9594 13.8042 14.4886 13.4125 14.0969C13.0208 13.7053 12.55 13.5094 12 13.5094C11.45 13.5094 10.9792 13.7053 10.5875 14.0969C10.1958 14.4886 10 14.9594 10 15.5094C10 16.0594 10.1958 16.5303 10.5875 16.9219C10.9792 17.3136 11.45 17.5094 12 17.5094ZM9.18525 8.3062H14.8148V6.4797C14.8148 5.69286 14.542 5.02403 13.9965 4.4732C13.451 3.92236 12.7855 3.64695 12 3.64695C11.2145 3.64695 10.549 3.92236 10.0035 4.4732C9.458 5.02403 9.18525 5.69286 9.18525 6.4797V8.3062Z" fill="#253858"/>
</svg>
