<svg width="24" height="25" viewBox="0 0 24 25" fill="none" xmlns="http://www.w3.org/2000/svg">
<path d="M13.0898 21.7307C12.7704 21.7307 12.501 21.621 12.2815 21.4015C12.062 21.1818 11.9523 20.9124 11.9523 20.5932C11.9523 20.2741 12.062 20.0046 12.2815 19.785C12.501 19.5655 12.7704 19.4557 13.0898 19.4557H18.9283V5.59922H13.0898C12.7704 5.59922 12.501 5.48947 12.2815 5.26997C12.062 5.0503 11.9523 4.78089 11.9523 4.46172C11.9523 4.14255 12.062 3.87314 12.2815 3.65347C12.501 3.43397 12.7704 3.32422 13.0898 3.32422H18.9283C19.5579 3.32422 20.0945 3.54597 20.538 3.98947C20.9815 4.43297 21.2033 4.96955 21.2033 5.59922V19.4557C21.2033 20.0854 20.9815 20.622 20.538 21.0655C20.0945 21.509 19.5579 21.7307 18.9283 21.7307H13.0898ZM10.7088 13.665H3.93425C3.61509 13.665 3.34567 13.5552 3.126 13.3357C2.9065 13.1161 2.79675 12.8466 2.79675 12.5275C2.79675 12.2083 2.9065 11.9389 3.126 11.7192C3.34567 11.4997 3.61509 11.39 3.93425 11.39H10.7088L8.97125 9.65247C8.75992 9.4413 8.65425 9.18239 8.65425 8.87572C8.65425 8.56922 8.75992 8.30405 8.97125 8.08022C9.18242 7.85222 9.44659 7.73505 9.76375 7.72872C10.0811 7.72239 10.3537 7.83322 10.5815 8.06122L14.2523 11.7317C14.4761 11.9597 14.588 12.225 14.588 12.5275C14.588 12.83 14.4761 13.0952 14.2523 13.3232L10.5815 16.9937C10.3577 17.2217 10.0893 17.3326 9.77625 17.3262C9.46342 17.3199 9.19509 17.2027 8.97125 16.9747C8.75992 16.7509 8.65742 16.4825 8.66375 16.1695C8.67009 15.8566 8.77892 15.5946 8.99025 15.3835L10.7088 13.665Z" fill="#253858"/>
</svg>
