<svg width="24" height="25" viewBox="0 0 24 25" fill="none" xmlns="http://www.w3.org/2000/svg">
<path d="M5.07175 21.7307C4.44209 21.7307 3.9055 21.509 3.462 21.0655C3.0185 20.622 2.79675 20.0854 2.79675 19.4557V5.59922C2.79675 4.96955 3.0185 4.43297 3.462 3.98947C3.9055 3.54597 4.44209 3.32422 5.07175 3.32422H10.9103C11.2296 3.32422 11.499 3.43397 11.7185 3.65347C11.938 3.87314 12.0478 4.14255 12.0478 4.46172C12.0478 4.78089 11.938 5.0503 11.7185 5.26997C11.499 5.48947 11.2296 5.59922 10.9103 5.59922H5.07175V19.4557H10.9103C11.2296 19.4557 11.499 19.5655 11.7185 19.785C11.938 20.0046 12.0478 20.2741 12.0478 20.5932C12.0478 20.9124 11.938 21.1818 11.7185 21.4015C11.499 21.621 11.2296 21.7307 10.9103 21.7307H5.07175ZM16.864 13.665H10.0898C9.77042 13.665 9.501 13.5552 9.2815 13.3357C9.062 13.1161 8.95225 12.8466 8.95225 12.5275C8.95225 12.2083 9.062 11.9389 9.2815 11.7192C9.501 11.4997 9.77042 11.39 10.0898 11.39H16.864L15.1268 9.65247C14.9154 9.4413 14.8098 9.18239 14.8098 8.87572C14.8098 8.56922 14.9154 8.30405 15.1268 8.08022C15.3379 7.85222 15.6021 7.73505 15.9193 7.72872C16.2364 7.72239 16.509 7.83322 16.737 8.06122L20.4075 11.7317C20.6315 11.9597 20.7435 12.225 20.7435 12.5275C20.7435 12.83 20.6315 13.0952 20.4075 13.3232L16.737 16.9937C16.513 17.2217 16.2446 17.3326 15.9318 17.3262C15.6189 17.3199 15.3506 17.2027 15.1268 16.9747C14.9154 16.7509 14.8129 16.4825 14.8193 16.1695C14.8256 15.8566 14.9344 15.5946 15.1458 15.3835L16.864 13.665Z" fill="#253858"/>
</svg>
