<svg width="24" height="25" viewBox="0 0 24 25" fill="none" xmlns="http://www.w3.org/2000/svg">
<path d="M12 19.716C14.0055 17.8813 15.4949 16.2264 16.4683 14.7512C17.4416 13.2759 17.9283 11.9266 17.9283 10.7035C17.9283 8.91497 17.356 7.45047 16.2115 6.30997C15.067 5.16947 13.6631 4.59922 11.9998 4.59922C10.3366 4.59922 8.93275 5.16947 7.78825 6.30997C6.64392 7.45047 6.07175 8.91497 6.07175 10.7035C6.07175 11.9266 6.55842 13.2749 7.53175 14.7482C8.50509 16.2214 9.9945 17.8773 12 19.716ZM11.9985 22.02C11.7502 22.02 11.5023 21.9763 11.2548 21.889C11.0071 21.8016 10.7859 21.6706 10.5913 21.496C9.48409 20.484 8.50584 19.501 7.6565 18.547C6.80717 17.593 6.09842 16.6662 5.53025 15.7667C4.96192 14.8671 4.53092 13.9957 4.23725 13.1527C3.94359 12.3097 3.79675 11.4933 3.79675 10.7035C3.79675 8.1488 4.62134 6.11364 6.2705 4.59797C7.91967 3.08214 9.8295 2.32422 12 2.32422C14.1705 2.32422 16.0803 3.08214 17.7295 4.59797C19.3787 6.11364 20.2033 8.1488 20.2033 10.7035C20.2033 11.4933 20.0564 12.3097 19.7628 13.1527C19.4691 13.9957 19.0381 14.8671 18.4698 15.7667C17.9016 16.6662 17.1928 17.593 16.3435 18.547C15.4942 19.501 14.5159 20.484 13.4088 21.496C13.2136 21.6706 12.9918 21.8016 12.7435 21.889C12.4952 21.9763 12.2468 22.02 11.9985 22.02ZM12 12.5872C12.57 12.5872 13.0558 12.3864 13.4573 11.9847C13.8589 11.5832 14.0598 11.0975 14.0598 10.5275C14.0598 9.95747 13.8589 9.47172 13.4573 9.07022C13.0558 8.66855 12.57 8.46772 12 8.46772C11.43 8.46772 10.9443 8.66855 10.5428 9.07022C10.1411 9.47172 9.94025 9.95747 9.94025 10.5275C9.94025 11.0975 10.1411 11.5832 10.5428 11.9847C10.9443 12.3864 11.43 12.5872 12 12.5872Z" fill="#253858"/>
</svg>
