<svg width="24" height="25" viewBox="0 0 24 25" fill="none" xmlns="http://www.w3.org/2000/svg">
<path d="M5.81723 14.6172C5.24156 14.6172 4.74898 14.4126 4.33948 14.0032C3.92981 13.5941 3.72498 13.1022 3.72498 12.5275C3.72498 11.9497 3.92956 11.4569 4.33873 11.0492C4.74806 10.6416 5.24006 10.4377 5.81473 10.4377C6.39106 10.4377 6.88439 10.6416 7.29473 11.0492C7.70506 11.4569 7.91023 11.9487 7.91023 12.5245C7.91023 13.1003 7.70531 13.5931 7.29548 14.0027C6.88548 14.4124 6.39273 14.6172 5.81723 14.6172ZM12.003 14.6172C11.4271 14.6172 10.9344 14.4126 10.5247 14.0032C10.1151 13.5941 9.91023 13.1022 9.91023 12.5275C9.91023 11.9497 10.1149 11.4569 10.5242 11.0492C10.9334 10.6416 11.4253 10.4377 12 10.4377C12.5778 10.4377 13.0706 10.6416 13.4782 11.0492C13.8859 11.4569 14.0897 11.9487 14.0897 12.5245C14.0897 13.1003 13.8859 13.5931 13.4782 14.0027C13.0706 14.4124 12.5788 14.6172 12.003 14.6172ZM18.187 14.6172C17.6101 14.6172 17.1164 14.4126 16.7057 14.0032C16.2951 13.5941 16.0897 13.1022 16.0897 12.5275C16.0897 11.9497 16.2951 11.4569 16.7057 11.0492C17.1164 10.6416 17.6101 10.4377 18.187 10.4377C18.7638 10.4377 19.256 10.6416 19.6635 11.0492C20.0711 11.4569 20.275 11.9487 20.275 12.5245C20.275 13.1003 20.0711 13.5931 19.6635 14.0027C19.256 14.4124 18.7638 14.6172 18.187 14.6172Z" fill="#253858"/>
</svg>
