<svg width="24" height="25" viewBox="0 0 24 25" fill="none" xmlns="http://www.w3.org/2000/svg">
<path d="M12.003 20.8024C11.4272 20.8024 10.9344 20.5979 10.5248 20.1887C10.1151 19.7794 9.91028 19.2874 9.91028 18.7127C9.91028 18.1364 10.1149 17.643 10.5243 17.2327C10.9334 16.8224 11.4254 16.6172 12 16.6172C12.5779 16.6172 13.0706 16.8221 13.4783 17.2319C13.8859 17.6419 14.0898 18.1347 14.0898 18.7102C14.0898 19.2859 13.8859 19.7784 13.4783 20.1879C13.0706 20.5976 12.5789 20.8024 12.003 20.8024ZM12.003 14.6172C11.4272 14.6172 10.9344 14.4125 10.5248 14.0032C10.1151 13.594 9.91028 13.1021 9.91028 12.5274C9.91028 11.9496 10.1149 11.4569 10.5243 11.0492C10.9334 10.6415 11.4254 10.4377 12 10.4377C12.5779 10.4377 13.0706 10.6415 13.4783 11.0492C13.8859 11.4569 14.0898 11.9486 14.0898 12.5244C14.0898 13.1003 13.8859 13.593 13.4783 14.0027C13.0706 14.4124 12.5789 14.6172 12.003 14.6172ZM12.003 8.43769C11.4272 8.43769 10.9344 8.23236 10.5248 7.82169C10.1151 7.41103 9.91028 6.91728 9.91028 6.34044C9.91028 5.76361 10.1149 5.27144 10.5243 4.86394C10.9334 4.45628 11.4254 4.25244 12 4.25244C12.5779 4.25244 13.0706 4.45628 13.4783 4.86394C13.8859 5.27144 14.0898 5.76361 14.0898 6.34044C14.0898 6.91728 13.8859 7.41103 13.4783 7.82169C13.0706 8.23236 12.5789 8.43769 12.003 8.43769Z" fill="#253858"/>
</svg>
