<svg width="24" height="24" viewBox="0 0 24 24" fill="none" xmlns="http://www.w3.org/2000/svg">
<path d="M10.95 12.6343L9.54176 11.245C9.34659 11.0498 9.10451 10.9523 8.81551 10.9523C8.52651 10.9523 8.27801 11.0563 8.07001 11.2643C7.87484 11.4594 7.77726 11.7047 7.77726 12C7.77726 12.2953 7.87484 12.5406 8.07001 12.7358L10.1483 14.8143C10.3763 15.0421 10.6435 15.156 10.95 15.156C11.2565 15.156 11.5238 15.0421 11.7518 14.8143L15.93 10.6358C16.1378 10.4279 16.2386 10.1827 16.2323 9.90001C16.2259 9.61734 16.1252 9.37209 15.93 9.16426C15.722 8.95626 15.4735 8.84909 15.1845 8.84276C14.8955 8.83642 14.6471 8.93717 14.4393 9.14501L10.95 12.6343ZM8.00651 21.8995L6.57451 19.4733L3.85426 18.8793C3.57243 18.8214 3.34559 18.6743 3.17376 18.438C3.00176 18.2018 2.93243 17.9408 2.96576 17.655L3.24076 14.8658L1.38976 12.7398C1.19909 12.5284 1.10376 12.2818 1.10376 12C1.10376 11.7182 1.19909 11.4716 1.38976 11.2603L3.24076 9.13426L2.96576 6.34501C2.93243 6.05917 3.00176 5.79817 3.17376 5.56201C3.34559 5.32567 3.57243 5.17859 3.85426 5.12076L6.57451 4.52676L8.00651 2.10051C8.15584 1.85601 8.36409 1.69026 8.63126 1.60326C8.89843 1.51626 9.16468 1.52876 9.43001 1.64076L12 2.72876L14.57 1.64076C14.8353 1.52876 15.1016 1.51626 15.3688 1.60326C15.6359 1.69026 15.8442 1.85601 15.9935 2.10051L17.4255 4.52676L20.1458 5.12076C20.4276 5.17859 20.6544 5.32567 20.8263 5.56201C20.9983 5.79817 21.0676 6.05917 21.0343 6.34501L20.7593 9.13426L22.6103 11.2603C22.8009 11.4716 22.8963 11.7182 22.8963 12C22.8963 12.2818 22.8009 12.5284 22.6103 12.7398L20.7593 14.8658L21.0343 17.655C21.0676 17.9408 20.9983 18.2018 20.8263 18.438C20.6544 18.6743 20.4276 18.8214 20.1458 18.8793L17.4255 19.4733L15.9935 21.8995C15.8442 22.144 15.6359 22.3098 15.3688 22.3968C15.1016 22.4838 14.8353 22.4713 14.57 22.3593L12 21.2713L9.43001 22.3593C9.16468 22.4713 8.89843 22.4838 8.63126 22.3968C8.36409 22.3098 8.15584 22.144 8.00651 21.8995ZM9.48001 19.8603L12 18.7663L14.57 19.8603L15.9523 17.4843L18.6663 16.8463L18.4283 14.07L20.2483 12L18.4283 9.88001L18.6663 7.10376L15.9523 6.51576L14.52 4.13976L12 5.23376L9.43001 4.13976L8.04776 6.51576L5.33376 7.10376L5.57176 9.88001L3.75176 12L5.57176 14.07L5.33376 16.8963L8.04776 17.4843L9.48001 19.8603Z" fill="#253858"/>
</svg>
