<svg width="24" height="24" viewBox="0 0 24 24" fill="none" xmlns="http://www.w3.org/2000/svg">
<path d="M5.07175 21.2033C4.44209 21.2033 3.9055 20.9815 3.462 20.538C3.0185 20.0945 2.79675 19.5579 2.79675 18.9283V5.07175C2.79675 4.44209 3.0185 3.9055 3.462 3.462C3.9055 3.0185 4.44209 2.79675 5.07175 2.79675H10.8625C11.1817 2.79675 11.4511 2.9065 11.6708 3.126C11.8903 3.34567 12 3.61509 12 3.93425C12 4.25342 11.8903 4.52284 11.6708 4.7425C11.4511 4.962 11.1817 5.07175 10.8625 5.07175H5.07175V18.9283H18.9283V13.1375C18.9283 12.8183 19.038 12.5489 19.2575 12.3293C19.4772 12.1098 19.7466 12 20.0658 12C20.3849 12 20.6543 12.1098 20.874 12.3293C21.0935 12.5489 21.2033 12.8183 21.2033 13.1375V18.9283C21.2033 19.5579 20.9815 20.0945 20.538 20.538C20.0945 20.9815 19.5579 21.2033 18.9283 21.2033H5.07175ZM18.9283 6.657L10.675 14.9103C10.4638 15.1216 10.2006 15.2263 9.88525 15.2243C9.57009 15.2223 9.30692 15.1156 9.09575 14.9043C8.88442 14.6931 8.77875 14.4289 8.77875 14.1118C8.77875 13.7944 8.88442 13.5302 9.09575 13.319L17.343 5.07175H15.1375C14.8183 5.07175 14.5489 4.962 14.3293 4.7425C14.1098 4.52284 14 4.25342 14 3.93425C14 3.61509 14.1098 3.34567 14.3293 3.126C14.5489 2.9065 14.8183 2.79675 15.1375 2.79675H20.0658C20.3849 2.79675 20.6543 2.9065 20.874 3.126C21.0935 3.34567 21.2033 3.61509 21.2033 3.93425V8.8625C21.2033 9.18167 21.0935 9.45109 20.874 9.67075C20.6543 9.89025 20.3849 10 20.0658 10C19.7466 10 19.4772 9.89025 19.2575 9.67075C19.038 9.45109 18.9283 9.18167 18.9283 8.8625V6.657Z" fill="#253858"/>
</svg>
