<svg width="24" height="24" viewBox="0 0 24 24" fill="none" xmlns="http://www.w3.org/2000/svg">
<path d="M9.95825 16.0478C10.2534 16.0478 10.5008 15.9479 10.7005 15.7483C10.9002 15.5486 11 15.3012 11 15.006V8.994C11 8.69884 10.9002 8.45142 10.7005 8.25175C10.5008 8.05209 10.2533 7.95225 9.958 7.95225C9.66284 7.95225 9.41442 8.05209 9.21275 8.25175C9.01109 8.45142 8.91025 8.69884 8.91025 8.994V15.006C8.91025 15.3012 9.01067 15.5486 9.2115 15.7483C9.41234 15.9479 9.66125 16.0478 9.95825 16.0478ZM14.0478 16.0478C14.3429 16.0478 14.5904 15.9479 14.7903 15.7483C14.9899 15.5486 15.0898 15.3012 15.0898 15.006V8.994C15.0898 8.69884 14.9898 8.45142 14.79 8.25175C14.5903 8.05209 14.3429 7.95225 14.0478 7.95225C13.7526 7.95225 13.5042 8.05209 13.3025 8.25175C13.1008 8.45142 13 8.69884 13 8.994V15.006C13 15.3012 13.1004 15.5486 13.3013 15.7483C13.5021 15.9479 13.7509 16.0478 14.0478 16.0478ZM12 22.2033C10.5848 22.2033 9.257 21.9356 8.0165 21.4003C6.77584 20.8649 5.69667 20.1385 4.779 19.221C3.8615 18.3033 3.13509 17.2242 2.59975 15.9835C2.06442 14.743 1.79675 13.4152 1.79675 12C1.79675 10.5848 2.06442 9.257 2.59975 8.0165C3.13509 6.77584 3.8615 5.69667 4.779 4.779C5.69667 3.8615 6.77584 3.13509 8.0165 2.59975C9.257 2.06442 10.5848 1.79675 12 1.79675C13.4152 1.79675 14.743 2.06442 15.9835 2.59975C17.2242 3.13509 18.3033 3.8615 19.221 4.779C20.1385 5.69667 20.8649 6.77584 21.4003 8.0165C21.9356 9.257 22.2033 10.5848 22.2033 12C22.2033 13.4152 21.9356 14.743 21.4003 15.9835C20.8649 17.2242 20.1385 18.3033 19.221 19.221C18.3033 20.1385 17.2242 20.8649 15.9835 21.4003C14.743 21.9356 13.4152 22.2033 12 22.2033Z" fill="#253858"/>
</svg>
