<svg width="24" height="25" viewBox="0 0 24 25" fill="none" xmlns="http://www.w3.org/2000/svg">
<path d="M7.45301 11.641C6.44201 11.641 5.58085 11.2836 4.86951 10.569C4.15835 9.85428 3.80276 8.99145 3.80276 7.98045C3.80276 6.96945 4.15835 6.10828 4.86951 5.39695C5.58085 4.68578 6.44201 4.3302 7.45301 4.3302C8.46402 4.3302 9.32685 4.68578 10.0415 5.39695C10.7562 6.10828 11.1135 6.96945 11.1135 7.98045C11.1135 8.99145 10.7562 9.85428 10.0415 10.569C9.32685 11.2836 8.46402 11.641 7.45301 11.641ZM7.45252 9.36595C7.83751 9.36595 8.16476 9.2312 8.43426 8.9617C8.70376 8.6922 8.83852 8.36495 8.83852 7.97995C8.83852 7.59495 8.70376 7.26953 8.43426 7.0037C8.16476 6.73803 7.83751 6.6052 7.45252 6.6052C7.06752 6.6052 6.7421 6.73803 6.47626 7.0037C6.2106 7.26953 6.07776 7.59495 6.07776 7.97995C6.07776 8.36495 6.2106 8.6922 6.47626 8.9617C6.7421 9.2312 7.06752 9.36595 7.45252 9.36595ZM16.5468 20.7307C15.5369 20.7307 14.6744 20.3738 13.9593 19.66C13.2441 18.9461 12.8865 18.0842 12.8865 17.0742C12.8865 16.0644 13.2438 15.2029 13.9585 14.4897C14.6732 13.7765 15.536 13.42 16.547 13.42C17.558 13.42 18.4202 13.7769 19.1335 14.4907C19.8467 15.2045 20.2033 16.0664 20.2033 17.0762C20.2033 18.086 19.8463 18.9476 19.1325 19.6609C18.4187 20.3741 17.5568 20.7307 16.5468 20.7307ZM16.5475 18.4557C16.9325 18.4557 17.2579 18.3214 17.5238 18.0527C17.7894 17.784 17.9223 17.4578 17.9223 17.074C17.9223 16.6901 17.7894 16.3643 17.5238 16.0965C17.2579 15.8288 16.9325 15.695 16.5475 15.695C16.1625 15.695 15.8353 15.8293 15.5658 16.098C15.2963 16.3666 15.1615 16.6929 15.1615 17.0767C15.1615 17.4605 15.2963 17.7864 15.5658 18.0542C15.8353 18.3219 16.1625 18.4557 16.5475 18.4557ZM4.59251 19.935C4.38118 19.7238 4.27551 19.4586 4.27551 19.1395C4.27551 18.8203 4.38118 18.555 4.59251 18.3437L17.8283 5.11395C18.0394 4.90262 18.3037 4.79795 18.621 4.79995C18.9382 4.80195 19.2023 4.90862 19.4135 5.11995C19.6248 5.33112 19.7305 5.59428 19.7305 5.90945C19.7305 6.22478 19.6248 6.48803 19.4135 6.6992L6.18377 19.935C5.97243 20.1463 5.70718 20.252 5.38802 20.252C5.06885 20.252 4.80368 20.1463 4.59251 19.935Z" fill="#253858"/>
</svg>
