<svg width="24" height="25" viewBox="0 0 24 25" fill="none" xmlns="http://www.w3.org/2000/svg">
<path d="M18.1075 11.3182H16.2033C15.9064 11.3182 15.6576 11.2178 15.4568 11.017C15.2559 10.8161 15.1555 10.5673 15.1555 10.2705C15.1555 9.97346 15.2559 9.72454 15.4568 9.52371C15.6576 9.32287 15.9064 9.22246 16.2033 9.22246H18.1075V7.31821C18.1075 7.02137 18.2079 6.77254 18.4088 6.57171C18.6096 6.37088 18.8585 6.27046 19.1555 6.27046C19.4523 6.27046 19.7012 6.37088 19.902 6.57171C20.1028 6.77254 20.2033 7.02137 20.2033 7.31821V9.22246H22.1075C22.4045 9.22246 22.6534 9.32287 22.8543 9.52371C23.0551 9.72454 23.1555 9.97346 23.1555 10.2705C23.1555 10.5673 23.0551 10.8161 22.8543 11.017C22.6534 11.2178 22.4045 11.3182 22.1075 11.3182H20.2033V13.2225C20.2033 13.5195 20.1028 13.7684 19.902 13.9692C19.7012 14.17 19.4523 14.2705 19.1555 14.2705C18.8585 14.2705 18.6096 14.17 18.4088 13.9692C18.2079 13.7684 18.1075 13.5195 18.1075 13.2225V11.3182ZM9.01801 12.4257C7.85818 12.4257 6.86768 12.0151 6.04651 11.194C5.22534 10.3728 4.81476 9.38229 4.81476 8.22246C4.81476 7.06279 5.22534 6.07329 6.04651 5.25396C6.86768 4.43479 7.85818 4.02521 9.01801 4.02521C10.1777 4.02521 11.1682 4.43479 11.9895 5.25396C12.8107 6.07329 13.2213 7.06279 13.2213 8.22246C13.2213 9.38229 12.8107 10.3728 11.9895 11.194C11.1682 12.0151 10.1777 12.4257 9.01801 12.4257ZM0.814758 18.5575V17.8172C0.814758 17.2134 0.970925 16.6585 1.28326 16.1525C1.59559 15.6463 2.01059 15.26 2.52826 14.9937C3.57359 14.473 4.63742 14.0815 5.71976 13.8192C6.80226 13.5569 7.90168 13.4257 9.01801 13.4257C10.1418 13.4257 11.2451 13.5559 12.3278 13.8162C13.4104 14.0765 14.4703 14.467 15.5075 14.9877C16.0252 15.2535 16.4403 15.639 16.7528 16.144C17.0651 16.649 17.2213 17.2067 17.2213 17.8172V18.5575C17.2213 19.1871 16.9995 19.7237 16.556 20.1672C16.1125 20.6107 15.5759 20.8325 14.9463 20.8325H3.08976C2.45993 20.8325 1.92334 20.6107 1.48001 20.1672C1.03651 19.7237 0.814758 19.1871 0.814758 18.5575Z" fill="#253858"/>
</svg>
