<svg width="24" height="24" viewBox="0 0 24 24" fill="none" xmlns="http://www.w3.org/2000/svg">
<path d="M10.7635 15.732L15.4713 12.7148C15.7364 12.5428 15.869 12.304 15.869 11.9985C15.869 11.693 15.7364 11.4553 15.4713 11.2853L10.7635 8.268C10.4817 8.08134 10.1927 8.0685 9.8965 8.2295C9.60034 8.3905 9.45225 8.6415 9.45225 8.9825V15.0175C9.45225 15.3585 9.60034 15.6095 9.8965 15.7705C10.1927 15.9315 10.4817 15.9187 10.7635 15.732ZM12 22.2033C10.5848 22.2033 9.257 21.9356 8.0165 21.4003C6.77584 20.8649 5.69667 20.1385 4.779 19.221C3.8615 18.3033 3.13509 17.2242 2.59975 15.9835C2.06442 14.743 1.79675 13.4152 1.79675 12C1.79675 10.5848 2.06442 9.257 2.59975 8.0165C3.13509 6.77584 3.8615 5.69667 4.779 4.779C5.69667 3.8615 6.77584 3.13509 8.0165 2.59975C9.257 2.06442 10.5848 1.79675 12 1.79675C13.4152 1.79675 14.743 2.06442 15.9835 2.59975C17.2242 3.13509 18.3033 3.8615 19.221 4.779C20.1385 5.69667 20.8649 6.77584 21.4003 8.0165C21.9356 9.257 22.2033 10.5848 22.2033 12C22.2033 13.4152 21.9356 14.743 21.4003 15.9835C20.8649 17.2242 20.1385 18.3033 19.221 19.221C18.3033 20.1385 17.2242 20.8649 15.9835 21.4003C14.743 21.9356 13.4152 22.2033 12 22.2033Z" fill="#253858"/>
</svg>
