<svg width="24" height="24" viewBox="0 0 24 24" fill="none" xmlns="http://www.w3.org/2000/svg">
<path d="M12 22.2033C10.5848 22.2033 9.25692 21.9358 8.01625 21.4008C6.77575 20.8658 5.6965 20.1393 4.7785 19.2215C3.86067 18.3035 3.13425 17.2243 2.59925 15.9838C2.06425 14.7431 1.79675 13.4152 1.79675 12C1.79675 10.7753 1.99792 9.61517 2.40025 8.5195C2.80259 7.42384 3.36009 6.43675 4.07275 5.55825C4.27609 5.29692 4.52284 5.17259 4.813 5.18525C5.10317 5.19792 5.35392 5.29759 5.56525 5.48425C5.77642 5.67092 5.91517 5.9165 5.9815 6.221C6.04784 6.5255 5.95234 6.84534 5.695 7.1805C5.18967 7.84784 4.79275 8.58842 4.50425 9.40225C4.21592 10.2159 4.07175 11.0818 4.07175 12C4.07175 14.2173 4.83875 16.0931 6.37275 17.6273C7.90692 19.1613 9.78267 19.9283 12 19.9283C14.2173 19.9283 16.0931 19.1613 17.6273 17.6273C19.1613 16.0931 19.9283 14.2173 19.9283 12C19.9283 11.0818 19.7841 10.2159 19.4958 9.40225C19.2073 8.58842 18.8103 7.84784 18.305 7.1805C18.0477 6.84534 17.9522 6.5255 18.0185 6.221C18.0848 5.9165 18.2236 5.67092 18.4348 5.48425C18.6461 5.29759 18.8968 5.19792 19.187 5.18525C19.4772 5.17259 19.7239 5.29692 19.9273 5.55825C20.6399 6.43675 21.1974 7.42384 21.5998 8.5195C22.0021 9.61517 22.2033 10.7753 22.2033 12C22.2033 13.4152 21.9358 14.7431 21.4008 15.9838C20.8658 17.2243 20.1393 18.3035 19.2215 19.2215C18.3035 20.1393 17.2243 20.8658 15.9838 21.4008C14.7431 21.9358 13.4152 22.2033 12 22.2033ZM12 13.1375C11.6808 13.1375 11.4114 13.0278 11.1918 12.8083C10.9723 12.5886 10.8625 12.3192 10.8625 12V2.93425C10.8625 2.61509 10.9723 2.34567 11.1918 2.126C11.4114 1.9065 11.6808 1.79675 12 1.79675C12.3192 1.79675 12.5886 1.9065 12.8083 2.126C13.0278 2.34567 13.1375 2.61509 13.1375 2.93425V12C13.1375 12.3192 13.0278 12.5886 12.8083 12.8083C12.5886 13.0278 12.3192 13.1375 12 13.1375Z" fill="#253858"/>
</svg>
