<svg width="25" height="25" viewBox="0 0 25 25" fill="none" xmlns="http://www.w3.org/2000/svg">
<g clip-path="url(#clip0_9478_19624)">
<path fill-rule="evenodd" clip-rule="evenodd" d="M6.16083 11.194C6.98199 12.0151 7.97249 12.4257 9.13233 12.4257C10.292 12.4257 11.2825 12.0151 12.1038 11.194C12.925 10.3728 13.3356 9.38229 13.3356 8.22246C13.3356 7.06279 12.925 6.07329 12.1038 5.25396C11.2825 4.43479 10.292 4.02521 9.13233 4.02521C7.97249 4.02521 6.98199 4.43479 6.16083 5.25396C5.33966 6.07329 4.92908 7.06279 4.92908 8.22246C4.92908 9.38229 5.33966 10.3728 6.16083 11.194ZM0.929077 17.8172V18.5575C0.929077 19.1871 1.15083 19.7237 1.59433 20.1672C2.03766 20.6107 2.57424 20.8325 3.20408 20.8325H15.0606C15.6902 20.8325 16.2268 20.6107 16.6703 20.1672C17.1138 19.7237 17.3356 19.1871 17.3356 18.5575V17.8172C17.3356 17.2067 17.1794 16.649 16.8671 16.144C16.5546 15.639 16.1395 15.2535 15.6218 14.9877C14.5847 14.467 13.5247 14.0765 12.4421 13.8162C11.3594 13.5559 10.2562 13.4257 9.13233 13.4257C8.01599 13.4257 6.91658 13.5569 5.83408 13.8192C4.75174 14.0815 3.68791 14.473 2.64258 14.9937C2.12491 15.26 1.70991 15.6463 1.39758 16.1525C1.08524 16.6585 0.929077 17.2134 0.929077 17.8172ZM20.8858 10.8277H17.7983V12.738C17.7983 13.0413 17.6946 13.2967 17.4871 13.5042C17.2794 13.7119 17.0239 13.8157 16.7206 13.8157C16.4174 13.8157 16.162 13.7119 15.9543 13.5042C15.7468 13.2967 15.6431 13.0413 15.6431 12.738V9.74999C15.6431 9.44666 15.7468 9.19124 15.9543 8.98374C16.162 8.77607 16.4174 8.67224 16.7206 8.67224H20.8858V7.42599C20.8858 7.16482 21.0008 6.98657 21.2308 6.89124C21.4607 6.79591 21.6689 6.84157 21.8556 7.02824L23.7756 8.94824C23.9994 9.17624 24.1123 9.44249 24.1143 9.74699C24.1163 10.0515 24.0034 10.3177 23.7756 10.5457L21.8556 12.4657C21.6689 12.6524 21.4607 12.6981 21.2308 12.6027C21.0008 12.5074 20.8858 12.3292 20.8858 12.068V10.8277Z" fill="#253858"/>
</g>
<defs>
<clipPath id="clip0_9478_19624">
<rect width="24" height="24" fill="white" transform="translate(0.11438 0.527466)"/>
</clipPath>
</defs>
</svg>
