<svg width="25" height="25" viewBox="0 0 25 25" fill="none" xmlns="http://www.w3.org/2000/svg">
<g clip-path="url(#clip0_9478_19623)">
<path fill-rule="evenodd" clip-rule="evenodd" d="M6.16083 11.194C6.98199 12.0152 7.97249 12.4258 9.13233 12.4258C10.292 12.4258 11.2825 12.0152 12.1038 11.194C12.925 10.3729 13.3356 9.38235 13.3356 8.22252C13.3356 7.06285 12.925 6.07335 12.1038 5.25402C11.2825 4.43485 10.292 4.02527 9.13233 4.02527C7.97249 4.02527 6.98199 4.43485 6.16083 5.25402C5.33966 6.07335 4.92908 7.06285 4.92908 8.22252C4.92908 9.38235 5.33966 10.3729 6.16083 11.194ZM0.929077 17.8173V18.5575C0.929077 19.1872 1.15083 19.7238 1.59433 20.1673C2.03766 20.6108 2.57424 20.8325 3.20408 20.8325H15.0606C15.6902 20.8325 16.2268 20.6108 16.6703 20.1673C17.1138 19.7238 17.3356 19.1872 17.3356 18.5575V17.8173C17.3356 17.2068 17.1794 16.649 16.8671 16.144C16.5546 15.639 16.1395 15.2536 15.6218 14.9878C14.5847 14.4671 13.5247 14.0766 12.4421 13.8163C11.3594 13.5559 10.2562 13.4258 9.13233 13.4258C8.01599 13.4258 6.91658 13.5569 5.83408 13.8193C4.75174 14.0816 3.68791 14.4731 2.64258 14.9938C2.12491 15.2601 1.70991 15.6464 1.39758 16.1525C1.08524 16.6585 0.929077 17.2134 0.929077 17.8173ZM15.0606 17.847V18.5575H3.20408V17.847C3.20408 17.6675 3.24991 17.5044 3.34158 17.3575C3.43324 17.2107 3.55408 17.0965 3.70408 17.015C4.57208 16.581 5.46241 16.2535 6.37508 16.0325C7.28791 15.8114 8.20699 15.7008 9.13233 15.7008C10.0657 15.7008 10.9847 15.8114 11.8893 16.0325C12.794 16.2535 13.6844 16.581 14.5606 17.015C14.7106 17.0965 14.8314 17.2107 14.9231 17.3575C15.0147 17.5044 15.0606 17.6675 15.0606 17.847ZM10.4938 9.58452C10.1162 9.96202 9.66224 10.1508 9.13208 10.1508C8.60191 10.1508 8.14799 9.96202 7.77033 9.58452C7.39283 9.20685 7.20408 8.75285 7.20408 8.22252C7.20408 7.69402 7.39291 7.24152 7.77058 6.86502C8.14824 6.48852 8.60224 6.30027 9.13258 6.30027C9.66274 6.30027 10.1166 6.48819 10.4941 6.86402C10.8717 7.23969 11.0606 7.6926 11.0606 8.22277C11.0606 8.7531 10.8717 9.20702 10.4938 9.58452ZM20.8858 10.8277H17.7983V12.738C17.7983 13.0413 17.6946 13.2967 17.4871 13.5042C17.2794 13.7119 17.0239 13.8157 16.7206 13.8157C16.4174 13.8157 16.162 13.7119 15.9543 13.5042C15.7468 13.2967 15.6431 13.0413 15.6431 12.738V9.74999C15.6431 9.44666 15.7468 9.19124 15.9543 8.98374C16.162 8.77607 16.4174 8.67224 16.7206 8.67224H20.8858V7.42599C20.8858 7.16482 21.0008 6.98657 21.2308 6.89124C21.4607 6.79591 21.6689 6.84157 21.8556 7.02824L23.7756 8.94824C23.9994 9.17624 24.1123 9.44249 24.1143 9.74699C24.1163 10.0515 24.0034 10.3177 23.7756 10.5457L21.8556 12.4657C21.6689 12.6524 21.4607 12.6981 21.2308 12.6027C21.0008 12.5074 20.8858 12.3292 20.8858 12.068V10.8277Z" fill="#253858"/>
</g>
<defs>
<clipPath id="clip0_9478_19623">
<rect width="24" height="24" fill="white" transform="translate(0.11438 0.527466)"/>
</clipPath>
</defs>
</svg>
