<svg width="24" height="25" viewBox="0 0 24 25" fill="none" xmlns="http://www.w3.org/2000/svg">
<path d="M8.74625 13.665H2.93425C2.61509 13.665 2.34567 13.5552 2.126 13.3357C1.9065 13.1161 1.79675 12.8467 1.79675 12.5275C1.79675 12.2083 1.9065 11.9389 2.126 11.7192C2.34567 11.4997 2.61509 11.39 2.93425 11.39H8.74625L6.64825 9.27324C6.43709 9.06191 6.32934 8.79982 6.325 8.48699C6.32067 8.17416 6.43042 7.90574 6.65425 7.68174C6.86559 7.47057 7.13084 7.36499 7.45 7.36499C7.76917 7.36499 8.03442 7.47057 8.24575 7.68174L12.2898 11.7257C12.5176 11.9537 12.6315 12.221 12.6315 12.5275C12.6315 12.834 12.5176 13.1012 12.2898 13.3292L8.24575 17.3732C8.03442 17.5844 7.77334 17.6942 7.4625 17.7025C7.15167 17.7108 6.88225 17.6011 6.65425 17.3732C6.44309 17.1619 6.3375 16.8967 6.3375 16.5775C6.3375 16.2583 6.44309 15.9931 6.65425 15.7817L8.74625 13.665ZM14.1853 17.94C13.8661 17.94 13.5968 17.8302 13.3773 17.6107C13.1576 17.3911 13.0478 17.1217 13.0478 16.8025C13.0478 16.4833 13.1576 16.2139 13.3773 15.9942C13.5968 15.7747 13.8661 15.665 14.1853 15.665H21.0658C21.3849 15.665 21.6543 15.7747 21.874 15.9942C22.0935 16.2139 22.2033 16.4833 22.2033 16.8025C22.2033 17.1217 22.0935 17.3911 21.874 17.6107C21.6543 17.8302 21.3849 17.94 21.0658 17.94H14.1853ZM14.1853 9.38999C13.8661 9.38999 13.5968 9.28024 13.3773 9.06074C13.1576 8.84107 13.0478 8.57166 13.0478 8.25249C13.0478 7.93332 13.1576 7.66391 13.3773 7.44424C13.5968 7.22474 13.8661 7.11499 14.1853 7.11499H21.0658C21.3849 7.11499 21.6543 7.22474 21.874 7.44424C22.0935 7.66391 22.2033 7.93332 22.2033 8.25249C22.2033 8.57166 22.0935 8.84107 21.874 9.06074C21.6543 9.28024 21.3849 9.38999 21.0658 9.38999H14.1853ZM17.1853 13.665C16.8661 13.665 16.5968 13.5552 16.3773 13.3357C16.1576 13.1161 16.0478 12.8467 16.0478 12.5275C16.0478 12.2083 16.1576 11.9389 16.3773 11.7192C16.5968 11.4997 16.8661 11.39 17.1853 11.39H21.0658C21.3849 11.39 21.6543 11.4997 21.874 11.7192C22.0935 11.9389 22.2033 12.2083 22.2033 12.5275C22.2033 12.8467 22.0935 13.1161 21.874 13.3357C21.6543 13.5552 21.3849 13.665 21.0658 13.665H17.1853Z" fill="#253858"/>
</svg>
