<svg width="24" height="24" viewBox="0 0 24 24" fill="none" xmlns="http://www.w3.org/2000/svg">
<path d="M11.976 20.2033C9.69085 20.2033 7.75235 19.4073 6.16052 17.8155C4.56868 16.2237 3.77277 14.2852 3.77277 12C3.77277 9.71484 4.56868 7.77634 6.16052 6.1845C7.75235 4.59267 9.69085 3.79675 11.976 3.79675C13.162 3.79675 14.2929 4.04025 15.3688 4.52725C16.4446 5.01409 17.3655 5.71317 18.1315 6.6245V4.8445C18.1315 4.54767 18.2319 4.29884 18.4328 4.098C18.6336 3.89717 18.8824 3.79675 19.1793 3.79675C19.4763 3.79675 19.7252 3.89717 19.926 4.098C20.1268 4.29884 20.2273 4.54767 20.2273 4.8445V9.95225C20.2273 10.2714 20.1174 10.5408 19.8978 10.7603C19.6783 10.9799 19.4089 11.0898 19.0898 11.0898H13.97C13.6748 11.0898 13.4274 10.9893 13.2278 10.7885C13.0281 10.5877 12.9283 10.3388 12.9283 10.0418C12.9283 9.74659 13.0287 9.49917 13.2295 9.2995C13.4303 9.09984 13.6792 9 13.976 9H17.0925C16.5592 8.0905 15.8388 7.37509 14.9313 6.85375C14.0239 6.33242 13.0388 6.07175 11.976 6.07175C10.3293 6.07175 8.92968 6.64809 7.77702 7.80075C6.62418 8.95359 6.04777 10.3533 6.04777 12C6.04777 13.6467 6.62418 15.0464 7.77702 16.1993C8.92968 17.3519 10.3293 17.9283 11.976 17.9283C13.0655 17.9283 14.0662 17.6557 14.978 17.1105C15.8898 16.5655 16.6061 15.8356 17.1268 14.9208C17.2824 14.6628 17.5014 14.4831 17.7838 14.3818C18.0659 14.2806 18.3474 14.2796 18.6283 14.3788C18.9279 14.4781 19.1441 14.673 19.2768 14.9635C19.4093 15.2542 19.4009 15.5281 19.2518 15.7853C18.5444 17.1226 17.5465 18.1933 16.258 18.9973C14.9693 19.8013 13.542 20.2033 11.976 20.2033Z" fill="#253858"/>
</svg>
