<svg width="24" height="24" viewBox="0 0 24 24" fill="none" xmlns="http://www.w3.org/2000/svg">
<path d="M9.45224 16.1375C7.59958 16.1375 6.03016 15.4944 4.74399 14.2082C3.45783 12.9219 2.81474 11.3525 2.81474 9.49999C2.81474 7.64749 3.45783 6.07807 4.74399 4.79174C6.03016 3.50557 7.59958 2.86249 9.45224 2.86249C11.3047 2.86249 12.8741 3.50557 14.1602 4.79174C15.4466 6.07807 16.0897 7.64749 16.0897 9.49999C16.0897 10.2413 15.9771 10.934 15.7517 11.578C15.5262 12.222 15.2215 12.79 14.8375 13.282L20.3897 18.8402C20.6009 19.0554 20.7065 19.3216 20.7065 19.6387C20.7065 19.9561 20.5989 20.2203 20.3837 20.4315C20.1724 20.6427 19.9072 20.7482 19.588 20.7482C19.2688 20.7482 19.0037 20.6427 18.7925 20.4315L13.2462 14.8852C12.7502 15.2694 12.1782 15.5742 11.5302 15.7995C10.8822 16.0248 10.1896 16.1375 9.45224 16.1375ZM9.45224 13.8625C10.6662 13.8625 11.6968 13.4389 12.544 12.5917C13.3912 11.7447 13.8147 10.7142 13.8147 9.49999C13.8147 8.28582 13.3912 7.25524 12.544 6.40824C11.6968 5.56107 10.6662 5.13749 9.45224 5.13749C8.23808 5.13749 7.20741 5.56107 6.36024 6.40824C5.51324 7.25524 5.08974 8.28582 5.08974 9.49999C5.08974 10.7142 5.51324 11.7447 6.36024 12.5917C7.20741 13.4389 8.23808 13.8625 9.45224 13.8625Z" fill="#253858"/>
</svg>
