<svg width="24" height="24" viewBox="0 0 24 24" fill="none" xmlns="http://www.w3.org/2000/svg">
<path d="M13.9583 20.1853H8.13755C7.50788 20.1853 6.9713 19.9635 6.5278 19.52C6.0843 19.0767 5.86255 18.5401 5.86255 17.9103V8.08976C5.86255 7.78093 5.96838 7.52209 6.18005 7.31326C6.39155 7.10443 6.65097 7.00001 6.9583 7.00001C7.26547 7.00001 7.52388 7.10443 7.73355 7.31326C7.94305 7.52209 8.0478 7.78093 8.0478 8.08976V18H13.9583C14.267 18 14.5257 18.1044 14.7345 18.3133C14.9434 18.5221 15.0478 18.7809 15.0478 19.0898C15.0478 19.3969 14.9434 19.6563 14.7345 19.868C14.5257 20.0795 14.267 20.1853 13.9583 20.1853ZM11.6585 6.00001C11.0825 6.00001 10.5898 5.79542 10.1803 5.38626C9.77063 4.97692 9.5658 4.48492 9.5658 3.91026C9.5658 3.33392 9.77038 2.84059 10.1795 2.43026C10.5889 2.01992 11.0809 1.81476 11.6555 1.81476C12.2334 1.81476 12.7261 2.01967 13.1338 2.42951C13.5413 2.83934 13.745 3.33209 13.745 3.90776C13.745 4.48342 13.5413 4.97601 13.1338 5.38551C12.7261 5.79517 12.2344 6.00001 11.6585 6.00001ZM16.0478 20.9523V17H11.0478C10.4978 17 10.027 16.8042 9.6353 16.4125C9.24363 16.0208 9.0478 15.55 9.0478 15V9.60751C9.0478 8.87967 9.30047 8.26317 9.8058 7.75801C10.311 7.25267 10.9275 7.00001 11.6555 7.00001C12.3834 7.00001 13 7.25267 13.5053 7.75801C14.0105 8.26317 14.263 8.87967 14.263 9.60751V13.9103H16.1375C16.6875 13.9103 17.1584 14.1061 17.55 14.4978C17.9417 14.8894 18.1375 15.3603 18.1375 15.9103V20.9583C18.1375 21.2534 18.0377 21.5008 17.838 21.7005C17.6384 21.9002 17.3909 22 17.0955 22C16.8004 22 16.552 21.8996 16.3503 21.6988C16.1486 21.4979 16.0478 21.2491 16.0478 20.9523Z" fill="#253858"/>
</svg>
