<svg width="24" height="25" viewBox="0 0 24 25" fill="none" xmlns="http://www.w3.org/2000/svg">
<path d="M10.7115 22.467C10.2415 22.467 9.83699 22.312 9.49799 22.002C9.15915 21.692 8.9564 21.3104 8.88974 20.8572L8.66474 19.2012C8.4799 19.1299 8.30457 19.0438 8.13874 18.943C7.97307 18.8423 7.81049 18.7353 7.65099 18.622L6.10699 19.272C5.67449 19.4593 5.2399 19.477 4.80324 19.325C4.36657 19.173 4.02765 18.8953 3.78649 18.492L2.49774 16.2327C2.2564 15.8334 2.18674 15.4082 2.28874 14.957C2.39074 14.5057 2.62474 14.1343 2.99074 13.843L4.30974 12.843C4.29707 12.7423 4.29074 12.6458 4.29074 12.5535V11.974C4.29074 11.8817 4.29707 11.7852 4.30974 11.6845L2.99074 10.6905C2.62074 10.3992 2.38574 10.0278 2.28574 9.57649C2.18574 9.12515 2.2564 8.6979 2.49774 8.29474L3.78649 6.04149C4.02765 5.64215 4.36557 5.36549 4.80024 5.21149C5.2349 5.05749 5.66849 5.07415 6.10099 5.26149L7.66299 5.91149C7.82249 5.79815 7.98624 5.69207 8.15424 5.59324C8.3224 5.49457 8.49257 5.40957 8.66474 5.33824L8.88974 3.67624C8.9564 3.21907 9.15915 2.83549 9.49799 2.52549C9.83699 2.21549 10.2415 2.06049 10.7115 2.06049H13.2885C13.7585 2.06049 14.163 2.21549 14.502 2.52549C14.8408 2.83549 15.0436 3.21907 15.1102 3.67624L15.3352 5.33824C15.5201 5.40957 15.6954 5.49457 15.8612 5.59324C16.0269 5.69207 16.1895 5.79815 16.349 5.91149L17.893 5.26149C18.3255 5.07415 18.7601 5.05749 19.1967 5.21149C19.6334 5.36549 19.9723 5.64215 20.2135 6.04149L21.5022 8.29474C21.7436 8.6979 21.8142 9.12515 21.7142 9.57649C21.6142 10.0278 21.3792 10.3992 21.0092 10.6905L19.6842 11.6845C19.6969 11.7852 19.7032 11.8817 19.7032 11.974V12.2637C19.7032 12.3644 19.7022 12.461 19.7002 12.5535C19.6982 12.6458 19.6846 12.7423 19.6592 12.843L20.9842 13.837C21.3542 14.1283 21.5892 14.4997 21.6892 14.951C21.7892 15.4023 21.7186 15.8296 21.4772 16.2327L20.1635 18.492C19.9223 18.8913 19.5844 19.168 19.1497 19.322C18.7151 19.476 18.2815 19.4593 17.849 19.272L16.337 18.622C16.1775 18.7353 16.0137 18.8423 15.8457 18.943C15.6776 19.0438 15.5074 19.1299 15.3352 19.2012L15.1102 20.8572C15.0436 21.3104 14.8408 21.692 14.502 22.002C14.163 22.312 13.7585 22.467 13.2885 22.467H10.7115ZM11.0657 20.192H12.9032L13.2592 17.554C13.7799 17.4207 14.2661 17.2238 14.7177 16.9635C15.1692 16.7032 15.5783 16.3817 15.945 15.999L18.4142 17.024L19.3175 15.4317L17.1852 13.8187C17.2686 13.5774 17.3289 13.3256 17.3662 13.0632C17.4036 12.8009 17.4222 12.5344 17.4222 12.2637C17.4222 11.9931 17.4036 11.7266 17.3662 11.4642C17.3289 11.2019 17.2686 10.9501 17.1852 10.7087L19.3292 9.09574L18.4142 7.50349L15.951 8.55349C15.5843 8.15815 15.1752 7.82832 14.7237 7.56399C14.2721 7.29965 13.7839 7.10282 13.2592 6.97349L12.9342 4.33549H11.0847L10.7467 6.96749C10.2181 7.09682 9.7269 7.29365 9.27324 7.55799C8.81974 7.82232 8.40765 8.14582 8.03699 8.52849L5.57999 7.50349L4.67074 9.09574L6.79674 10.678C6.7134 10.9358 6.65307 11.1927 6.61574 11.4487C6.5784 11.7047 6.55974 11.9764 6.55974 12.2637C6.55974 12.5344 6.5784 12.7987 6.61574 13.0567C6.65307 13.3147 6.7134 13.5727 6.79674 13.8305L4.67074 15.4317L5.57999 17.024L8.03699 15.98C8.40765 16.3713 8.82074 16.6992 9.27624 16.9635C9.7319 17.2278 10.2221 17.4267 10.7467 17.56L11.0657 20.192ZM12.032 15.7637C12.9987 15.7637 13.8237 15.4221 14.507 14.7387C15.1903 14.0554 15.532 13.2304 15.532 12.2637C15.532 11.2971 15.1903 10.4721 14.507 9.78874C13.8237 9.1054 12.9987 8.76374 12.032 8.76374C11.0527 8.76374 10.2245 9.1054 9.54749 9.78874C8.87049 10.4721 8.53199 11.2971 8.53199 12.2637C8.53199 13.2304 8.87049 14.0554 9.54749 14.7387C10.2245 15.4221 11.0527 15.7637 12.032 15.7637Z" fill="#253858"/>
</svg>
