<svg xmlns="http://www.w3.org/2000/svg" height="24px" viewBox="0 -960 960 960" width="24px" fill="#e8eaed"><path d="M680.94-71.87q-53.09 0-90.24-37.09-37.16-37.09-37.16-90.08 0-5.76 2.76-25.85L283.43-383.87q-16.71 14.76-38.17 23.14t-45.98 8.38q-53.09 0-90.25-37.21-37.16-37.22-37.16-90.38 0-53.17 37.16-90.44 37.16-37.27 90.25-37.27 24.48 0 46.2 8.5 21.72 8.5 38.67 23.5l271.92-158.5q-1.77-6.52-2.15-12.9-.38-6.38-.38-13.67 0-53.09 37.17-90.25t90.26-37.16q53.1 0 90.25 37.17 37.15 37.16 37.15 90.26 0 53.09-37.16 90.24-37.16 37.16-90.25 37.16-25.05 0-46.96-8.74t-38.87-24.22L324.17-508.72q2 7.25 2.5 13.99.5 6.73.5 14.85t-.62 15.1q-.62 6.98-2.62 14.21l270.72 157.55q16.96-15.72 39.02-24.7 22.07-8.98 47.29-8.98 53.09 0 90.25 37.22t37.16 90.38q0 53.17-37.17 90.2-37.16 37.03-90.26 37.03Z"/></svg>