<svg width="24" height="25" viewBox="0 0 24 25" fill="none" xmlns="http://www.w3.org/2000/svg">
<path d="M17.0235 22.7307C16.1387 22.7307 15.3867 22.4216 14.7675 21.8035C14.1482 21.1853 13.8385 20.4346 13.8385 19.5515C13.8385 19.4555 13.8615 19.2401 13.9075 18.9052L7.08575 14.9307C6.80725 15.1767 6.48917 15.3696 6.1315 15.5092C5.77384 15.6489 5.39067 15.7187 4.982 15.7187C4.09717 15.7187 3.34509 15.4086 2.72575 14.7885C2.10642 14.1681 1.79675 13.415 1.79675 12.529C1.79675 11.6428 2.10642 10.8891 2.72575 10.268C3.34509 9.6468 4.09717 9.33622 4.982 9.33622C5.39 9.33622 5.775 9.40705 6.137 9.54872C6.499 9.69039 6.82125 9.88622 7.10375 10.1362L13.9018 6.17372C13.8723 6.06505 13.8543 5.95755 13.848 5.85122C13.8417 5.74489 13.8385 5.63097 13.8385 5.50947C13.8385 4.62464 14.1483 3.87255 14.7678 3.25322C15.3873 2.63389 16.1394 2.32422 17.0243 2.32422C17.9093 2.32422 18.6613 2.63397 19.2805 3.25347C19.8997 3.8728 20.2093 4.62497 20.2093 5.50997C20.2093 6.3948 19.8996 7.1468 19.2803 7.76597C18.6609 8.3853 17.9088 8.69497 17.024 8.69497C16.6065 8.69497 16.2152 8.62214 15.85 8.47647C15.4848 8.3308 15.1609 8.12897 14.8783 7.87097L8.10425 11.8095C8.13759 11.9303 8.15842 12.0469 8.16675 12.1592C8.17509 12.2714 8.17925 12.3951 8.17925 12.5305C8.17925 12.6658 8.17409 12.7916 8.16375 12.908C8.15342 13.0243 8.13159 13.1427 8.09825 13.2632L14.8663 17.202C15.1489 16.94 15.4741 16.7341 15.8418 16.5845C16.2096 16.4348 16.6037 16.36 17.024 16.36C17.9088 16.36 18.6609 16.6701 19.2803 17.2905C19.8996 17.9108 20.2093 18.664 20.2093 19.55C20.2093 20.4361 19.8995 21.1878 19.28 21.805C18.6607 22.4221 17.9085 22.7307 17.0235 22.7307ZM17.0203 20.5155C17.2941 20.5155 17.5248 20.4225 17.7125 20.2365C17.9002 20.0505 17.994 19.82 17.994 19.545C17.994 19.27 17.9005 19.0396 17.7135 18.8537C17.5263 18.6681 17.2945 18.5752 17.018 18.5752C16.7448 18.5752 16.5158 18.6691 16.331 18.8567C16.1462 19.0444 16.0538 19.274 16.0538 19.5455C16.0538 19.8168 16.1464 20.0463 16.3318 20.234C16.5169 20.4216 16.7464 20.5155 17.0203 20.5155ZM4.9825 13.5035C5.2575 13.5035 5.48984 13.4101 5.6795 13.2232C5.86934 13.0364 5.96425 12.8049 5.96425 12.5287C5.96425 12.2526 5.86934 12.0206 5.6795 11.833C5.48984 11.6453 5.2575 11.5515 4.9825 11.5515C4.7075 11.5515 4.477 11.6449 4.291 11.8317C4.105 12.0186 4.012 12.2501 4.012 12.5262C4.012 12.8024 4.105 13.0343 4.291 13.222C4.477 13.4096 4.7075 13.5035 4.9825 13.5035ZM17.024 6.47972C17.2953 6.47972 17.5238 6.38705 17.7095 6.20172C17.8952 6.01655 17.988 5.78705 17.988 5.51322C17.988 5.23939 17.8954 5.00864 17.7103 4.82097C17.5249 4.6333 17.2953 4.53947 17.0215 4.53947C16.7477 4.53947 16.5169 4.63297 16.3293 4.81997C16.1416 5.00714 16.0478 5.23897 16.0478 5.51547C16.0478 5.78864 16.1426 6.01764 16.3323 6.20247C16.5219 6.3873 16.7525 6.47972 17.024 6.47972Z" fill="#253858"/>
</svg>
