<svg width="24" height="25" viewBox="0 0 24 25" fill="none" xmlns="http://www.w3.org/2000/svg">
<path d="M12 13.5812C12.9827 13.5812 13.8196 13.2356 14.5108 12.5442C15.2021 11.8531 15.5478 11.0181 15.5478 10.0395C15.5478 9.05681 15.2021 8.21981 14.5108 7.52847C13.8196 6.83731 12.9827 6.49173 12 6.49173C11.0173 6.49173 10.1804 6.83731 9.48925 7.52847C8.79792 8.21981 8.45225 9.05681 8.45225 10.0395C8.45225 11.0181 8.79792 11.8531 9.48925 12.5442C10.1804 13.2356 11.0173 13.5812 12 13.5812ZM12 20.3617C12.9713 20.0291 13.8332 19.5262 14.5855 18.8532C15.338 18.1802 15.9936 17.4187 16.5523 16.5687C15.8396 16.2101 15.1007 15.9379 14.3355 15.7522C13.5705 15.5666 12.792 15.4737 12 15.4737C11.208 15.4737 10.4295 15.5666 9.6645 15.7522C8.89934 15.9379 8.16042 16.2101 7.44775 16.5687C8.00642 17.4187 8.662 18.1802 9.4145 18.8532C10.1668 19.5262 11.0287 20.0291 12 20.3617ZM12 22.6187C11.8713 22.6187 11.7491 22.6094 11.6333 22.5907C11.5173 22.5721 11.4013 22.5441 11.2853 22.5067C9.00742 21.7489 7.18984 20.3356 5.8325 18.2667C4.47534 16.1977 3.79675 13.9846 3.79675 11.6275V6.95623C3.79675 6.47989 3.9335 6.05114 4.207 5.66998C4.48067 5.28881 4.837 5.01323 5.276 4.84323L11.2043 2.62323C11.4656 2.52789 11.7308 2.48022 12 2.48022C12.2692 2.48022 12.5344 2.52789 12.7958 2.62323L18.724 4.84323C19.163 5.01323 19.5193 5.28881 19.793 5.66998C20.0665 6.05114 20.2033 6.47989 20.2033 6.95623V11.6275C20.2033 13.9846 19.5247 16.1977 18.1675 18.2667C16.8102 20.3356 14.9926 21.7489 12.7148 22.5067C12.5988 22.5441 12.4828 22.5721 12.3668 22.5907C12.2509 22.6094 12.1287 22.6187 12 22.6187Z" fill="#253858"/>
</svg>
