<svg width="24" height="25" viewBox="0 0 24 25" fill="none" xmlns="http://www.w3.org/2000/svg">
<path d="M12 13.5812C11.0007 13.5812 10.1596 13.2407 9.47675 12.5597C8.79375 11.8787 8.45225 11.0386 8.45225 10.0395C8.45225 9.04014 8.79375 8.19897 9.47675 7.51597C10.1596 6.83314 11.0007 6.49173 12 6.49173C12.9993 6.49173 13.8404 6.83314 14.5233 7.51597C15.2063 8.19897 15.5478 9.04014 15.5478 10.0395C15.5478 11.0386 15.2063 11.8787 14.5233 12.5597C13.8404 13.2407 12.9993 13.5812 12 13.5812ZM12 11.4917C12.4173 11.4917 12.7638 11.354 13.0393 11.0785C13.3146 10.8031 13.4523 10.4568 13.4523 10.0395C13.4523 9.62198 13.3146 9.27456 13.0393 8.99723C12.7638 8.71989 12.4173 8.58123 12 8.58123C11.5827 8.58123 11.2363 8.71989 10.9608 8.99723C10.6854 9.27456 10.5478 9.62198 10.5478 10.0395C10.5478 10.4568 10.6854 10.8031 10.9608 11.0785C11.2363 11.354 11.5827 11.4917 12 11.4917ZM12 4.73622L6.07175 6.95623V11.6275C6.07175 12.5155 6.19475 13.3766 6.44075 14.2107C6.68675 15.0447 7.02242 15.8307 7.44775 16.5687C8.14375 16.2267 8.87017 15.9587 9.627 15.7647C10.3837 15.5707 11.1747 15.4737 12 15.4737C12.8213 15.4737 13.6123 15.5707 14.373 15.7647C15.1338 15.9587 15.8603 16.2267 16.5523 16.5687C16.9816 15.8307 17.3183 15.0447 17.5623 14.2107C17.8063 13.3766 17.9283 12.5155 17.9283 11.6275V6.95623L12 4.73622ZM12 17.5632C11.408 17.5632 10.8406 17.625 10.2978 17.7485C9.75509 17.8718 9.23534 18.0441 8.7385 18.2655C9.21 18.7456 9.71909 19.1641 10.2658 19.5207C10.8124 19.8774 11.3905 20.1577 12 20.3617C12.6095 20.1577 13.1876 19.8774 13.7343 19.5207C14.2809 19.1641 14.79 18.7456 15.2615 18.2655C14.7647 18.0441 14.2449 17.8718 13.7023 17.7485C13.1594 17.625 12.592 17.5632 12 17.5632ZM12 22.6187C11.8713 22.6187 11.7491 22.6094 11.6333 22.5907C11.5173 22.5721 11.4013 22.5441 11.2853 22.5067C9.00742 21.7489 7.18984 20.3356 5.8325 18.2667C4.47534 16.1977 3.79675 13.9846 3.79675 11.6275V6.95623C3.79675 6.47989 3.9335 6.05114 4.207 5.66998C4.48067 5.28881 4.837 5.01323 5.276 4.84323L11.2043 2.62323C11.4656 2.52789 11.7308 2.48022 12 2.48022C12.2692 2.48022 12.5344 2.52789 12.7958 2.62323L18.724 4.84323C19.163 5.01323 19.5193 5.28881 19.793 5.66998C20.0665 6.05114 20.2033 6.47989 20.2033 6.95623V11.6275C20.2033 13.9846 19.5247 16.1977 18.1675 18.2667C16.8102 20.3356 14.9926 21.7489 12.7148 22.5067C12.5988 22.5441 12.4828 22.5721 12.3668 22.5907C12.2509 22.6094 12.1287 22.6187 12 22.6187Z" fill="#253858"/>
</svg>
