<svg width="24" height="25" viewBox="0 0 24 25" fill="none" xmlns="http://www.w3.org/2000/svg">
<path d="M10.8625 21.5932V18.8742H6.87272C6.57022 18.8742 6.28122 18.8172 6.00572 18.7032C5.73022 18.5894 5.4868 18.4268 5.27547 18.2155L3.59822 16.5385C3.37039 16.3105 3.25647 16.0432 3.25647 15.7367C3.25647 15.4302 3.37039 15.163 3.59822 14.935L5.27547 13.258C5.4868 13.0466 5.73022 12.8841 6.00572 12.7702C6.28122 12.6562 6.57022 12.5992 6.87272 12.5992H10.8625V10.5992H4.93422C4.61505 10.5992 4.34564 10.4895 4.12597 10.27C3.90647 10.0503 3.79672 9.78089 3.79672 9.46172V5.46172C3.79672 5.14255 3.90647 4.87314 4.12597 4.65347C4.34564 4.43397 4.61505 4.32422 4.93422 4.32422H10.8625V3.46172C10.8625 3.14255 10.9722 2.87314 11.1917 2.65347C11.4114 2.43397 11.6808 2.32422 12 2.32422C12.3191 2.32422 12.5886 2.43397 12.8082 2.65347C13.0277 2.87314 13.1375 3.14255 13.1375 3.46172V4.32422H17.1272C17.4297 4.32422 17.7187 4.38122 17.9942 4.49522C18.2697 4.60905 18.5131 4.77163 18.7245 4.98297L20.4017 6.65997C20.6296 6.88797 20.7435 7.15522 20.7435 7.46172C20.7435 7.76822 20.6296 8.03539 20.4017 8.26322L18.7245 9.94047C18.5131 10.1518 18.2697 10.3144 17.9942 10.4282C17.7187 10.5422 17.4297 10.5992 17.1272 10.5992H13.1375V12.5992H19.0657C19.3849 12.5992 19.6543 12.709 19.874 12.9285C20.0935 13.1481 20.2032 13.4176 20.2032 13.7367V17.7367C20.2032 18.0559 20.0935 18.3253 19.874 18.545C19.6543 18.7645 19.3849 18.8742 19.0657 18.8742H13.1375V21.5932C13.1375 21.9124 13.0277 22.1818 12.8082 22.4015C12.5886 22.621 12.3191 22.7307 12 22.7307C11.6808 22.7307 11.4114 22.621 11.1917 22.4015C10.9722 22.1818 10.8625 21.9124 10.8625 21.5932Z" fill="#253858"/>
</svg>
