<svg width="24" height="25" viewBox="0 0 24 25" fill="none" xmlns="http://www.w3.org/2000/svg">
<path d="M19.9555 23.2232L1.2565 4.53022C1.06117 4.33489 0.963501 4.09156 0.963501 3.80022C0.963501 3.50889 1.06117 3.26564 1.2565 3.07047C1.45183 2.87514 1.69717 2.77747 1.9925 2.77747C2.28767 2.77747 2.53292 2.87514 2.72825 3.07047L21.4153 21.7632C21.6106 21.9586 21.7083 22.2019 21.7083 22.4932C21.7083 22.7846 21.6106 23.0279 21.4153 23.2232C21.2199 23.4184 20.9766 23.516 20.6853 23.516C20.3939 23.516 20.1507 23.4184 19.9555 23.2232ZM4.81475 6.64747L7.08975 8.92247V18.4377H16.63L19.1853 20.9932V21.4497C19.1853 22.0754 18.9625 22.609 18.517 23.0505C18.0717 23.492 17.5361 23.7127 16.9103 23.7127H7.08975C6.45992 23.7127 5.92333 23.491 5.48 23.0475C5.0365 22.6041 4.81475 22.0676 4.81475 21.4377V6.64747ZM16.9103 14.7922V6.61722H10.0325C9.73 6.61722 9.441 6.55606 9.1655 6.43372C8.89 6.31139 8.64658 6.14664 8.43525 5.93947L6.1245 3.64747C5.70533 3.22831 5.61558 2.73931 5.85525 2.18047C6.09492 1.62164 6.51633 1.34222 7.1195 1.34222H16.9103C17.5401 1.34222 18.0767 1.56397 18.52 2.00747C18.9635 2.45081 19.1853 2.98739 19.1853 3.61722V14.7922C19.1853 15.1114 19.0755 15.3807 18.856 15.6002C18.6365 15.8199 18.3671 15.9297 18.0478 15.9297C17.7286 15.9297 17.4593 15.8199 17.2398 15.6002C17.0201 15.3807 16.9103 15.1114 16.9103 14.7922Z" fill="#253858"/>
</svg>
