<svg width="24" height="25" viewBox="0 0 24 25" fill="none" xmlns="http://www.w3.org/2000/svg">
<path d="M7.08976 23.7127C6.45993 23.7127 5.92334 23.491 5.48001 23.0475C5.03651 22.6041 4.81476 22.0676 4.81476 21.4377V3.61722C4.81476 2.98739 5.03651 2.45081 5.48001 2.00747C5.92334 1.56397 6.45993 1.34222 7.08976 1.34222H16.9103C17.5401 1.34222 18.0767 1.56397 18.52 2.00747C18.9635 2.45081 19.1853 2.98739 19.1853 3.61722V21.4377C19.1853 22.0676 18.9635 22.6041 18.52 23.0475C18.0767 23.491 17.5401 23.7127 16.9103 23.7127H7.08976ZM7.08976 20.4377V21.4377H16.9103V20.4377H7.08976ZM7.08976 18.4377H16.9103V6.61722H7.08976V18.4377ZM7.08976 4.61722H16.9103V3.61722H7.08976V4.61722Z" fill="#253858"/>
</svg>
