<svg width="24" height="25" viewBox="0 0 24 25" fill="none" xmlns="http://www.w3.org/2000/svg">
<path d="M4.91806 15.1752L4.34906 16.8955C4.27839 17.0906 4.15673 17.2527 3.98406 17.3817C3.81139 17.5107 3.61906 17.5752 3.40706 17.5752C3.05389 17.5752 2.77014 17.4298 2.55581 17.139C2.34148 16.848 2.30298 16.5298 2.44031 16.1844L5.44031 8.15945C5.52364 7.95145 5.65364 7.7862 5.83031 7.6637C6.00681 7.54103 6.20739 7.4797 6.43206 7.4797H7.21806C7.44273 7.4797 7.64331 7.54103 7.81981 7.6637C7.99648 7.7862 8.12648 7.95145 8.20981 8.15945L11.2228 16.2167C11.3475 16.5532 11.309 16.8638 11.1073 17.1485C10.9058 17.433 10.6264 17.5752 10.2691 17.5752C10.0531 17.5752 9.85581 17.5097 9.67731 17.3787C9.49864 17.2479 9.37398 17.0828 9.30331 16.8835L8.69631 15.1752H4.91806ZM5.54781 13.3797H8.01631L6.88206 9.83295H6.73206L5.54781 13.3797ZM16.0996 15.6797H20.1181C20.3799 15.6797 20.6033 15.7721 20.7883 15.957C20.9733 16.142 21.0658 16.3655 21.0658 16.6275C21.0658 16.8895 20.9733 17.113 20.7883 17.298C20.6033 17.4828 20.3799 17.5752 20.1181 17.5752H14.2881C14.1174 17.5752 13.9717 17.5149 13.8511 17.3942C13.7304 17.2735 13.6701 17.128 13.6701 16.9575V16.0075C13.6701 15.8748 13.6887 15.7473 13.7261 15.6249C13.7634 15.5028 13.8277 15.394 13.9191 15.2987L18.6426 9.3752H14.8181C14.5561 9.3752 14.3326 9.28278 14.1476 9.09795C13.9626 8.91295 13.8701 8.68945 13.8701 8.42745C13.8701 8.16545 13.9626 7.94195 14.1476 7.75695C14.3326 7.57212 14.5561 7.4797 14.8181 7.4797H20.4038C20.5745 7.4797 20.7191 7.53903 20.8378 7.6577C20.9565 7.77637 21.0158 7.92103 21.0158 8.0917V9.05345C21.0158 9.18612 20.9971 9.31262 20.9598 9.43295C20.9225 9.55312 20.8581 9.66087 20.7668 9.7562L16.0996 15.6797ZM9.57606 5.5752C9.44356 5.5752 9.35348 5.51828 9.30581 5.40445C9.25814 5.29045 9.28198 5.18578 9.37731 5.09045L11.6023 2.86545C11.7141 2.75345 11.8467 2.69745 12.0001 2.69745C12.1534 2.69745 12.286 2.75345 12.3978 2.86545L14.6228 5.09045C14.7181 5.18578 14.742 5.29045 14.6943 5.40445C14.6466 5.51828 14.5566 5.5752 14.4241 5.5752H9.57606ZM11.6023 22.1895L9.37731 19.9645C9.28198 19.8691 9.25814 19.7645 9.30581 19.6505C9.35348 19.5366 9.44356 19.4797 9.57606 19.4797H14.4241C14.5566 19.4797 14.6466 19.5366 14.6943 19.6505C14.742 19.7645 14.7181 19.8691 14.6228 19.9645L12.3978 22.1895C12.286 22.3015 12.1534 22.3575 12.0001 22.3575C11.8467 22.3575 11.7141 22.3015 11.6023 22.1895Z" fill="#253858"/>
</svg>
