<svg width="24" height="25" viewBox="0 0 24 25" fill="none" xmlns="http://www.w3.org/2000/svg">
<path d="M8.98801 13.5395C8.66885 13.5395 8.39951 13.4296 8.18001 13.21C7.96035 12.9905 7.85051 12.7211 7.85051 12.402V6.67523L6.20876 8.31723C5.99743 8.5284 5.73635 8.63398 5.42551 8.63398C5.11468 8.63398 4.84535 8.5284 4.61751 8.31723C4.38951 8.09323 4.27551 7.82481 4.27551 7.51198C4.27551 7.19914 4.38751 6.92873 4.61151 6.70073L8.18651 3.12573C8.29835 3.01389 8.4226 2.93214 8.55926 2.88048C8.69593 2.82881 8.83885 2.80298 8.98801 2.80298C9.13735 2.80298 9.28026 2.82881 9.41676 2.88048C9.55343 2.93214 9.67776 3.01389 9.78976 3.12573L13.3838 6.72573C13.6076 6.95373 13.7163 7.21998 13.71 7.52448C13.7037 7.82898 13.5866 8.09323 13.3588 8.31723C13.1348 8.5284 12.8695 8.63715 12.563 8.64348C12.2565 8.64981 11.9913 8.54106 11.7675 8.31723L10.1255 6.67523V12.402C10.1255 12.7211 10.0158 12.9905 9.79626 13.21C9.5766 13.4296 9.30718 13.5395 8.98801 13.5395ZM15.012 22.252C14.8627 22.252 14.7198 22.2261 14.5833 22.1745C14.4466 22.1228 14.3223 22.0411 14.2103 21.9292L10.6163 18.3292C10.3924 18.1012 10.2837 17.835 10.29 17.5305C10.2963 17.226 10.4134 16.9617 10.6413 16.7377C10.8653 16.5266 11.1305 16.4178 11.437 16.4115C11.7435 16.4051 12.0087 16.5139 12.2325 16.7377L13.8745 18.3797V12.653C13.8745 12.3338 13.9843 12.0645 14.2038 11.845C14.4234 11.6253 14.6928 11.5155 15.012 11.5155C15.3312 11.5155 15.6005 11.6253 15.82 11.845C16.0397 12.0645 16.1495 12.3338 16.1495 12.653V18.3797L17.7913 16.7377C18.0026 16.5266 18.2637 16.421 18.5745 16.421C18.8853 16.421 19.1547 16.5266 19.3825 16.7377C19.6105 16.9617 19.7245 17.2301 19.7245 17.543C19.7245 17.8558 19.6125 18.1262 19.3885 18.3542L15.8135 21.9292C15.7017 22.0411 15.5774 22.1228 15.4408 22.1745C15.3041 22.2261 15.1612 22.252 15.012 22.252Z" fill="#253858"/>
</svg>
