<svg width="25" height="25" viewBox="0 0 25 25" fill="none" xmlns="http://www.w3.org/2000/svg">
<path d="M10.5644 16.0275C10.981 16.4441 11.5041 16.64 12.1334 16.615C12.7627 16.59 13.2231 16.3608 13.5144 15.9275L17.6376 9.79972C17.8116 9.53455 17.7889 9.29213 17.5694 9.07247C17.3497 8.85297 17.1073 8.83022 16.8421 9.00422L10.7144 13.1275C10.281 13.4355 10.0445 13.8926 10.0049 14.499C9.96522 15.1053 10.1517 15.6148 10.5644 16.0275ZM5.21438 20.7307C4.81588 20.7307 4.44447 20.6426 4.10013 20.4662C3.75597 20.2901 3.4863 20.0277 3.29113 19.6792C2.8458 18.8799 2.50447 18.0504 2.26713 17.1907C2.0298 16.3312 1.91113 15.4435 1.91113 14.5275C1.91113 13.1163 2.17863 11.7904 2.71363 10.5497C3.24863 9.30922 3.97605 8.22897 4.89588 7.30897C5.81588 6.38914 6.89613 5.66172 8.13663 5.12672C9.3773 4.59172 10.7032 4.32422 12.1144 4.32422C13.5089 4.32422 14.8201 4.58755 16.0481 5.11422C17.276 5.64088 18.3499 6.35897 19.2699 7.26847C20.1897 8.17814 20.9213 9.24172 21.4646 10.4592C22.008 11.6769 22.286 12.983 22.2986 14.3775C22.3113 15.3141 22.2031 16.2289 21.9741 17.1217C21.7451 18.0147 21.3933 18.8672 20.9186 19.6792C20.7155 20.0237 20.4447 20.2851 20.1064 20.4632C19.7682 20.6416 19.3979 20.7307 18.9954 20.7307H5.21438Z" fill="#253858"/>
</svg>
