<svg width="25" height="25" viewBox="0 0 25 25" fill="none" xmlns="http://www.w3.org/2000/svg">
<path d="M10.5644 16.0275C10.9626 16.4275 11.4767 16.6233 12.1069 16.615C12.7372 16.6066 13.2064 16.3775 13.5144 15.9275L17.6376 9.79972C17.8116 9.53455 17.7889 9.29213 17.5694 9.07247C17.3497 8.85297 17.1073 8.83022 16.8421 9.00422L10.7144 13.1275C10.2644 13.4355 10.0269 13.8963 10.0019 14.51C9.97688 15.1236 10.1644 15.6295 10.5644 16.0275ZM12.1144 4.32422C12.6944 4.32422 13.2691 4.37122 13.8386 4.46522C14.408 4.55922 14.9636 4.70664 15.5056 4.90747C15.8081 5.0113 16.0915 5.21672 16.3556 5.52372C16.6198 5.83055 16.6772 6.12488 16.5279 6.40672C16.3787 6.68872 16.0748 6.8803 15.6161 6.98147C15.1573 7.0828 14.7683 7.08347 14.4491 6.98347C14.0683 6.8533 13.6844 6.75672 13.2974 6.69372C12.9102 6.63072 12.5159 6.59922 12.1144 6.59922C9.92555 6.59922 8.05697 7.37139 6.50863 8.91572C4.9603 10.4601 4.18613 12.3306 4.18613 14.5275C4.18613 15.2275 4.27997 15.9081 4.46763 16.5695C4.6553 17.231 4.92013 17.8597 5.26213 18.4557H18.9666C19.35 17.8224 19.6251 17.1761 19.7921 16.5167C19.9591 15.8572 20.0426 15.1608 20.0426 14.4275C20.0426 14.0323 20.0111 13.6447 19.9481 13.2647C19.8851 12.8849 19.7885 12.5089 19.6584 12.1367C19.5584 11.8136 19.5487 11.4977 19.6294 11.1892C19.7099 10.8807 19.8844 10.6243 20.1529 10.42C20.4022 10.2345 20.674 10.179 20.9681 10.2535C21.2623 10.3281 21.4634 10.5001 21.5714 10.7692C21.8061 11.3474 21.9859 11.938 22.1109 12.541C22.236 13.144 22.305 13.7561 22.3176 14.3775C22.3303 15.3395 22.218 16.2634 21.9806 17.1492C21.7431 18.0351 21.3955 18.8784 20.9376 19.6792C20.7305 20.0151 20.4538 20.2742 20.1076 20.4567C19.7615 20.6394 19.397 20.7307 19.0144 20.7307H5.21438C4.83255 20.7307 4.4653 20.6374 4.11263 20.4507C3.76013 20.2642 3.4863 20.0071 3.29113 19.6792C2.8538 18.9172 2.51447 18.1054 2.27313 17.2437C2.0318 16.3822 1.91113 15.4767 1.91113 14.5272C1.91113 13.1202 2.1788 11.7997 2.71413 10.5657C3.2493 9.33189 3.97997 8.25122 4.90613 7.32372C5.83213 6.39622 6.91538 5.66439 8.15588 5.12822C9.39638 4.59222 10.7159 4.32422 12.1144 4.32422Z" fill="#253858"/>
</svg>
