<svg width="24" height="25" viewBox="0 0 24 25" fill="none" xmlns="http://www.w3.org/2000/svg">
<path d="M8.9635 16.9272L12 15.099L15.0365 16.9522L14.2353 13.4897L16.9148 11.1735L13.3963 10.8605L12 7.58597L10.6038 10.8415L7.08525 11.1485L9.76475 13.4837L8.9635 16.9272ZM12 17.766L7.832 20.278C7.62084 20.4105 7.40125 20.4674 7.17325 20.4487C6.94542 20.43 6.74659 20.3545 6.57675 20.222C6.40675 20.0893 6.27509 19.9225 6.18175 19.7217C6.08842 19.5207 6.07075 19.298 6.12875 19.0535L7.23475 14.3105L3.54175 11.1175C3.35125 10.9476 3.23217 10.7539 3.1845 10.5362C3.13684 10.3187 3.14834 10.1063 3.219 9.89896C3.28967 9.6918 3.40459 9.51988 3.56375 9.38322C3.72309 9.24672 3.93334 9.1618 4.1945 9.12847L9.0625 8.70347L10.9495 4.22946C11.0448 3.99763 11.1909 3.82571 11.3878 3.71371C11.5848 3.60171 11.7888 3.54572 12 3.54572C12.2112 3.54572 12.4153 3.60171 12.6123 3.71371C12.8091 3.82571 12.9552 3.99763 13.0505 4.22946L14.9375 8.70347L19.8055 9.12847C20.0667 9.1618 20.2769 9.24672 20.4363 9.38322C20.5954 9.51988 20.7103 9.6918 20.781 9.89896C20.8517 10.1063 20.8632 10.3187 20.8155 10.5362C20.7678 10.7539 20.6488 10.9476 20.4583 11.1175L16.7653 14.3105L17.8713 19.0535C17.9293 19.298 17.9116 19.5207 17.8183 19.7217C17.7249 19.9225 17.5933 20.0893 17.4233 20.222C17.2534 20.3545 17.0546 20.43 16.8268 20.4487C16.5988 20.4674 16.3792 20.4105 16.168 20.278L12 17.766Z" fill="#253858"/>
</svg>
