<svg width="24" height="24" viewBox="0 0 24 24" fill="none" xmlns="http://www.w3.org/2000/svg">
<path d="M9.08975 16.0478H14.9103C15.2296 16.0478 15.499 15.938 15.7185 15.7185C15.938 15.499 16.0478 15.2296 16.0478 14.9103V9.08975C16.0478 8.77042 15.938 8.501 15.7185 8.2815C15.499 8.062 15.2296 7.95225 14.9103 7.95225H9.08975C8.77042 7.95225 8.501 8.062 8.2815 8.2815C8.062 8.501 7.95225 8.77042 7.95225 9.08975V14.9103C7.95225 15.2296 8.062 15.499 8.2815 15.7185C8.501 15.938 8.77042 16.0478 9.08975 16.0478ZM12 22.2033C10.5848 22.2033 9.257 21.9356 8.0165 21.4003C6.77584 20.8649 5.69667 20.1385 4.779 19.221C3.8615 18.3033 3.13509 17.2242 2.59975 15.9835C2.06442 14.743 1.79675 13.4152 1.79675 12C1.79675 10.5848 2.06442 9.257 2.59975 8.0165C3.13509 6.77584 3.8615 5.69667 4.779 4.779C5.69667 3.8615 6.77584 3.13509 8.0165 2.59975C9.257 2.06442 10.5848 1.79675 12 1.79675C13.4152 1.79675 14.743 2.06442 15.9835 2.59975C17.2242 3.13509 18.3033 3.8615 19.221 4.779C20.1385 5.69667 20.8649 6.77584 21.4003 8.0165C21.9356 9.257 22.2033 10.5848 22.2033 12C22.2033 13.4152 21.9356 14.743 21.4003 15.9835C20.8649 17.2242 20.1385 18.3033 19.221 19.221C18.3033 20.1385 17.2242 20.8649 15.9835 21.4003C14.743 21.9356 13.4152 22.2033 12 22.2033ZM12 19.9283C14.2173 19.9283 16.0931 19.1613 17.6273 17.6273C19.1613 16.0931 19.9283 14.2173 19.9283 12C19.9283 9.78267 19.1613 7.90692 17.6273 6.37275C16.0931 4.83875 14.2173 4.07175 12 4.07175C9.78267 4.07175 7.90692 4.83875 6.37275 6.37275C4.83875 7.90692 4.07175 9.78267 4.07175 12C4.07175 14.2173 4.83875 16.0931 6.37275 17.6273C7.90692 19.1613 9.78267 19.9283 12 19.9283Z" fill="#253858"/>
</svg>
