<svg width="24" height="25" viewBox="0 0 24 25" fill="none" xmlns="http://www.w3.org/2000/svg">
<path d="M5.08974 23.7127C4.46408 23.7127 3.92849 23.49 3.48299 23.0445C3.03749 22.599 2.81474 22.0634 2.81474 21.4377V3.61722C2.81474 2.99156 3.03749 2.45597 3.48299 2.01047C3.92849 1.56497 4.46408 1.34222 5.08974 1.34222H18.9102C19.5359 1.34222 20.0715 1.56497 20.517 2.01047C20.9625 2.45597 21.1852 2.99156 21.1852 3.61722V21.4377C21.1852 22.0634 20.9625 22.599 20.517 23.0445C20.0715 23.49 19.5359 23.7127 18.9102 23.7127H5.08974ZM5.08974 18.4377V21.4377H18.9102V18.4377H5.08974ZM10.5 20.4377H13.5C13.6333 20.4377 13.75 20.3877 13.85 20.2877C13.95 20.1877 14 20.0711 14 19.9377C14 19.8044 13.95 19.6877 13.85 19.5877C13.75 19.4877 13.6333 19.4377 13.5 19.4377H10.5C10.3667 19.4377 10.25 19.4877 10.15 19.5877C10.05 19.6877 9.99999 19.8044 9.99999 19.9377C9.99999 20.0711 10.05 20.1877 10.15 20.2877C10.25 20.3877 10.3667 20.4377 10.5 20.4377ZM5.08974 16.4377H18.9102V6.61722H5.08974V16.4377ZM5.08974 4.61722H18.9102V3.61722H5.08974V4.61722Z" fill="#253858"/>
</svg>
