<svg width="24" height="25" viewBox="0 0 24 25" fill="none" xmlns="http://www.w3.org/2000/svg">
<path d="M19.9555 23.2232L1.2565 4.53022C1.06117 4.33489 0.963501 4.09156 0.963501 3.80022C0.963501 3.50889 1.06117 3.26564 1.2565 3.07047C1.45183 2.87514 1.69717 2.77747 1.9925 2.77747C2.28767 2.77747 2.53292 2.87514 2.72825 3.07047L21.4153 21.7632C21.6106 21.9586 21.7083 22.2019 21.7083 22.4932C21.7083 22.7846 21.6106 23.0279 21.4153 23.2232C21.2199 23.4184 20.9766 23.516 20.6853 23.516C20.3939 23.516 20.1507 23.4184 19.9555 23.2232ZM3.81475 6.64747L6.08975 8.92247V16.4377H15.4145L19.1853 20.9932V21.4497C19.1853 22.0754 18.9625 22.609 18.517 23.0505C18.0715 23.492 17.5359 23.7127 16.9103 23.7127H6.08975C5.45992 23.7127 4.92333 23.491 4.48 23.0475C4.0365 22.6041 3.81475 22.0676 3.81475 21.4377V6.64747ZM6.08975 18.4377V21.4377H16.9103V18.4377H6.08975ZM9.238 6.61722C8.95467 6.61722 8.72133 6.52139 8.538 6.32972C8.35467 6.13806 8.263 5.90056 8.263 5.61722C8.263 5.33389 8.35883 5.09639 8.5505 4.90472C8.74217 4.71306 8.97933 4.61722 9.262 4.61722H17.9103V3.61722H6.751C6.43183 3.61722 6.1625 3.50739 5.943 3.28772C5.72333 3.06822 5.6135 2.79889 5.6135 2.47972C5.6135 2.16039 5.72333 1.89097 5.943 1.67147C6.1625 1.45197 6.43183 1.34222 6.751 1.34222H17.9103C18.5401 1.34222 19.0767 1.56397 19.52 2.00747C19.9635 2.45081 20.1853 2.98739 20.1853 3.61722V14.7922C20.1853 15.1114 20.0755 15.3807 19.856 15.6002C19.6365 15.8199 19.3671 15.9297 19.0478 15.9297C18.7286 15.9297 18.4593 15.8199 18.2398 15.6002C18.0201 15.3807 17.9103 15.1114 17.9103 14.7922V6.61722H9.238Z" fill="#253858"/>
<path d="M13.5 20.4377H10.5C10.3667 20.4377 10.25 20.3877 10.15 20.2877C10.05 20.1877 10 20.0711 10 19.9377C10 19.8044 10.05 19.6877 10.15 19.5877C10.25 19.4877 10.3667 19.4377 10.5 19.4377H13.5C13.6333 19.4377 13.75 19.4877 13.85 19.5877C13.95 19.6877 14 19.8044 14 19.9377C14 20.0711 13.95 20.1877 13.85 20.2877C13.75 20.3877 13.6333 20.4377 13.5 20.4377Z" fill="#253858"/>
</svg>
