<svg width="24" height="25" viewBox="0 0 24 25" fill="none" xmlns="http://www.w3.org/2000/svg">
<path fill-rule="evenodd" clip-rule="evenodd" d="M19.0278 22.2958L19.9555 23.2232C20.1507 23.4184 20.3939 23.516 20.6853 23.516C20.9766 23.516 21.2199 23.4184 21.4153 23.2232C21.6106 23.0279 21.7083 22.7846 21.7083 22.4932C21.7083 22.2019 21.6106 21.9586 21.4153 21.7632L2.72825 3.07047C2.53292 2.87514 2.28767 2.77747 1.9925 2.77747C1.69717 2.77747 1.45183 2.87514 1.2565 3.07047C1.06117 3.26564 0.963501 3.50889 0.963501 3.80022C0.963501 4.09156 1.06117 4.33489 1.2565 4.53022L4.81475 8.08733V21.4377C4.81475 22.0676 5.0365 22.6041 5.48 23.0475C5.92333 23.491 6.45992 23.7127 7.08975 23.7127H16.9103C17.5361 23.7127 18.0717 23.492 18.517 23.0505C18.7462 22.8233 18.9165 22.5717 19.0278 22.2958ZM13.1678 16.4377L7.08975 10.3616V16.4377H13.1678ZM17.9103 6.61722V14.7922C17.9103 15.1114 18.0201 15.3807 18.2398 15.6002C18.4593 15.8199 18.7286 15.9297 19.0478 15.9297C19.3671 15.9297 19.6365 15.8199 19.856 15.6002C20.0755 15.3807 20.1853 15.1114 20.1853 14.7922V3.61722C20.1853 2.98739 19.9635 2.45081 19.52 2.00747C19.0767 1.56397 18.5401 1.34222 17.9103 1.34222H7.1195C6.51633 1.34222 6.09492 1.62164 5.85525 2.18047C5.61558 2.73931 5.70533 3.22831 6.1245 3.64747L8.43525 5.93947C8.64658 6.14664 8.89 6.31139 9.1655 6.43372C9.441 6.55606 9.73 6.61722 10.0325 6.61722H17.9103ZM10.5 20.4377H13.5C13.6333 20.4377 13.75 20.3877 13.85 20.2877C13.95 20.1877 14 20.0711 14 19.9377C14 19.8044 13.95 19.6877 13.85 19.5877C13.75 19.4877 13.6333 19.4377 13.5 19.4377H10.5C10.3667 19.4377 10.25 19.4877 10.15 19.5877C10.05 19.6877 10 19.8044 10 19.9377C10 20.0711 10.05 20.1877 10.15 20.2877C10.25 20.3877 10.3667 20.4377 10.5 20.4377Z" fill="#253858"/>
</svg>
