<svg width="24" height="25" viewBox="0 0 24 25" fill="none" xmlns="http://www.w3.org/2000/svg">
<path d="M5.08976 23.7127C4.46409 23.7127 3.92851 23.49 3.48301 23.0445C3.03751 22.599 2.81476 22.0634 2.81476 21.4377V3.61722C2.81476 2.99156 3.03751 2.45597 3.48301 2.01047C3.92851 1.56497 4.46409 1.34222 5.08976 1.34222H18.9103C19.5359 1.34222 20.0715 1.56497 20.517 2.01047C20.9625 2.45597 21.1853 2.99156 21.1853 3.61722V21.4377C21.1853 22.0634 20.9625 22.599 20.517 23.0445C20.0715 23.49 19.5359 23.7127 18.9103 23.7127H5.08976ZM5.08976 16.4377H18.9103V6.61722H5.08976V16.4377ZM10.5 20.4377H13.5C13.6333 20.4377 13.75 20.3877 13.85 20.2877C13.95 20.1877 14 20.0711 14 19.9377C14 19.8044 13.95 19.6877 13.85 19.5877C13.75 19.4877 13.6333 19.4377 13.5 19.4377H10.5C10.3667 19.4377 10.25 19.4877 10.15 19.5877C10.05 19.6877 10 19.8044 10 19.9377C10 20.0711 10.05 20.1877 10.15 20.2877C10.25 20.3877 10.3667 20.4377 10.5 20.4377Z" fill="#253858"/>
</svg>
