<svg width="24" height="25" viewBox="0 0 24 25" fill="none" xmlns="http://www.w3.org/2000/svg">
<path d="M13.0898 12.0797V8.64697C13.0898 8.3383 12.9853 8.07955 12.7765 7.87072C12.5675 7.66189 12.3087 7.55747 12 7.55747C11.6913 7.55747 11.4325 7.66189 11.2235 7.87072C11.0147 8.07955 10.9103 8.3383 10.9103 8.64697V12.4845C10.9103 12.6378 10.9383 12.7841 10.9943 12.9232C11.0503 13.0626 11.1343 13.1879 11.2463 13.2992L14.4505 16.5035C14.6538 16.7068 14.9071 16.8085 15.2103 16.8085C15.5136 16.8085 15.7688 16.7068 15.976 16.5035C16.1833 16.3003 16.287 16.0451 16.287 15.7377C16.287 15.4306 16.1833 15.1733 15.976 14.966L13.0898 12.0797ZM12 22.7307C10.5848 22.7307 9.257 22.4631 8.0165 21.9277C6.77584 21.3924 5.69667 20.666 4.779 19.7485C3.8615 18.8308 3.13509 17.7516 2.59975 16.511C2.06442 15.2705 1.79675 13.9426 1.79675 12.5275C1.79675 11.1123 2.06442 9.78447 2.59975 8.54397C3.13509 7.3033 3.8615 6.22413 4.779 5.30647C5.69667 4.38897 6.77584 3.66255 8.0165 3.12722C9.257 2.59189 10.5848 2.32422 12 2.32422C13.4152 2.32422 14.743 2.59189 15.9835 3.12722C17.2242 3.66255 18.3033 4.38897 19.221 5.30647C20.1385 6.22413 20.8649 7.3033 21.4003 8.54397C21.9356 9.78447 22.2033 11.1123 22.2033 12.5275C22.2033 13.9426 21.9356 15.2705 21.4003 16.511C20.8649 17.7516 20.1385 18.8308 19.221 19.7485C18.3033 20.666 17.2242 21.3924 15.9835 21.9277C14.743 22.4631 13.4152 22.7307 12 22.7307Z" fill="#253858"/>
</svg>
