<svg width="24" height="24" viewBox="0 0 24 24" fill="none" xmlns="http://www.w3.org/2000/svg">
<path d="M17.862 20.0875L13.425 15.6505L15.6505 13.419L20.0935 17.862C20.3967 18.1652 20.5483 18.5361 20.5483 18.9747C20.5483 19.4132 20.3967 19.7842 20.0935 20.0875C19.7902 20.3908 19.4183 20.5425 18.9778 20.5425C18.5371 20.5425 18.1652 20.3908 17.862 20.0875ZM3.90651 20.0875C3.60334 19.7842 3.45176 19.4122 3.45176 18.9717C3.45176 18.5311 3.60334 18.1592 3.90651 17.856L9.76851 11.994L8.05051 10.276C7.86717 10.4593 7.63484 10.551 7.35351 10.551C7.07217 10.551 6.83784 10.4593 6.65051 10.276L6.15926 9.79074V11.8732C6.15926 12.1346 6.04434 12.3129 5.81451 12.4082C5.58451 12.5034 5.37626 12.4577 5.18976 12.2712L2.44676 9.52824C2.26009 9.34157 2.21442 9.13332 2.30976 8.90349C2.40509 8.67366 2.58334 8.55874 2.84451 8.55874H4.92726L4.50876 8.14024C4.29676 7.92824 4.19176 7.67799 4.19376 7.38949C4.19576 7.10082 4.30276 6.85049 4.51476 6.63849L7.37676 3.77674C7.71792 3.43541 8.08917 3.18674 8.49051 3.03074C8.89184 2.87474 9.30042 2.79674 9.71626 2.79674C10.0416 2.79674 10.3581 2.84474 10.6658 2.94074C10.9734 3.03674 11.2649 3.18274 11.5403 3.37874C11.6896 3.47407 11.7693 3.60766 11.7795 3.77949C11.7898 3.95149 11.7288 4.10382 11.5963 4.23649L9.72601 6.10649L10.27 6.65049C10.4533 6.83382 10.545 7.06716 10.545 7.35049C10.545 7.63382 10.4533 7.86716 10.27 8.05049L11.994 9.77449L14.238 7.53049C14.1753 7.35116 14.1242 7.16249 14.0845 6.96449C14.0448 6.76649 14.025 6.56941 14.025 6.37324C14.025 5.36607 14.3715 4.51499 15.0645 3.81999C15.7573 3.12516 16.6074 2.77774 17.6148 2.77774C17.7561 2.77774 17.89 2.78391 18.0165 2.79624C18.1432 2.80857 18.2688 2.83141 18.3935 2.86474C18.5595 2.92274 18.6633 3.03982 18.705 3.21599C18.7467 3.39232 18.7032 3.54474 18.5745 3.67324L17.045 5.20874C16.9332 5.32074 16.8773 5.45332 16.8773 5.60649C16.8773 5.75982 16.9332 5.89241 17.045 6.00424L17.9838 6.94299C18.0958 7.05482 18.2283 7.11074 18.3815 7.11074C18.5348 7.11074 18.6674 7.05482 18.7793 6.94299L20.3148 5.40749C20.4473 5.27499 20.6017 5.22641 20.778 5.26174C20.9543 5.29707 21.0734 5.40599 21.1353 5.58849C21.1726 5.71716 21.1964 5.84482 21.2068 5.97149C21.2171 6.09816 21.2223 6.23207 21.2223 6.37324C21.2223 7.38057 20.8728 8.23074 20.174 8.92374C19.475 9.61657 18.6219 9.96299 17.6148 9.96299C17.4188 9.96299 17.2237 9.94632 17.0295 9.91299C16.8355 9.87966 16.6488 9.82532 16.4695 9.74999L6.13801 20.0875C5.83484 20.3908 5.46292 20.5425 5.02226 20.5425C4.58176 20.5425 4.20984 20.3908 3.90651 20.0875Z" fill="#253858"/>
</svg>
