<svg width="24" height="25" viewBox="0 0 24 25" fill="none" xmlns="http://www.w3.org/2000/svg">
<path d="M17.8523 13.665H3.93425C3.61509 13.665 3.34567 13.5552 3.126 13.3357C2.9065 13.1161 2.79675 12.8466 2.79675 12.5275C2.79675 12.2083 2.9065 11.9389 3.126 11.7192C3.34567 11.4997 3.61509 11.39 3.93425 11.39H17.8523L16.6208 10.1395C16.3928 9.91148 16.2819 9.64423 16.2883 9.33773C16.2946 9.03122 16.4118 8.76406 16.6398 8.53623C16.8676 8.32089 17.1379 8.21106 17.4508 8.20673C17.7636 8.20239 18.0277 8.31423 18.243 8.54223L21.4075 11.7317C21.6315 11.9597 21.7435 12.225 21.7435 12.5275C21.7435 12.83 21.6315 13.0952 21.4075 13.3232L18.218 16.5127C18.0027 16.7281 17.7396 16.8357 17.4288 16.8357C17.1179 16.8357 16.8486 16.7301 16.6208 16.5187C16.3928 16.2909 16.2788 16.0206 16.2788 15.7077C16.2788 15.3947 16.3928 15.1243 16.6208 14.8965L17.8523 13.665Z" fill="#253858"/>
</svg>
