<svg width="25" height="25" viewBox="0 0 25 25" fill="none" xmlns="http://www.w3.org/2000/svg">
<path d="M18.4454 16.4317L13.5444 11.5687L11.1606 13.9525C10.7215 14.3917 10.1827 14.6112 9.54438 14.6112C8.90588 14.6112 8.36705 14.3917 7.92788 13.9525L2.70688 8.68724C2.49555 8.47207 2.38672 8.20907 2.38038 7.89824C2.37405 7.58724 2.4848 7.31982 2.71263 7.09599C2.92397 6.88482 3.18922 6.77924 3.50838 6.77924C3.82755 6.77924 4.0928 6.88482 4.30413 7.09599L9.54438 12.3362L11.9279 9.95249C12.3671 9.51332 12.9059 9.29374 13.5444 9.29374C14.1827 9.29374 14.7215 9.51332 15.1606 9.95249L20.0426 14.8405V13.4437C20.0426 13.1246 20.1524 12.8552 20.3719 12.6357C20.5916 12.4161 20.861 12.3062 21.1801 12.3062C21.4993 12.3062 21.7687 12.4161 21.9884 12.6357C22.2079 12.8552 22.3176 13.1246 22.3176 13.4437V17.5692C22.3176 17.8886 22.2079 18.158 21.9884 18.3775C21.7687 18.597 21.4993 18.7067 21.1801 18.7067H17.0486C16.7295 18.7067 16.4601 18.597 16.2404 18.3775C16.0209 18.158 15.9111 17.8886 15.9111 17.5692C15.9111 17.2501 16.0209 16.9807 16.2404 16.7612C16.4601 16.5416 16.7295 16.4317 17.0486 16.4317H18.4454Z" fill="#253858"/>
</svg>
