<svg width="25" height="25" viewBox="0 0 25 25" fill="none" xmlns="http://www.w3.org/2000/svg">
<path d="M2.71263 18.278C2.4848 18.0542 2.37405 17.7858 2.38038 17.473C2.38672 17.16 2.49555 16.8959 2.70688 16.6807L7.92788 11.4025C8.36705 10.9633 8.90588 10.7437 9.54438 10.7437C10.1827 10.7437 10.7215 10.9633 11.1606 11.4025L13.5444 13.8052L18.4454 8.94224H17.0486C16.7295 8.94224 16.4601 8.8324 16.2404 8.61274C16.0209 8.39323 15.9111 8.1239 15.9111 7.80474C15.9111 7.4854 16.0209 7.21599 16.2404 6.99649C16.4601 6.77699 16.7295 6.66724 17.0486 6.66724H21.1801C21.4993 6.66724 21.7687 6.77699 21.9884 6.99649C22.2079 7.21599 22.3176 7.4854 22.3176 7.80474V11.9302C22.3176 12.2494 22.2079 12.5187 21.9884 12.7382C21.7687 12.9579 21.4993 13.0677 21.1801 13.0677C20.861 13.0677 20.5916 12.9579 20.3719 12.7382C20.1524 12.5187 20.0426 12.2494 20.0426 11.9302V10.5335L15.1606 15.4155C14.7215 15.8547 14.1827 16.0742 13.5444 16.0742C12.9059 16.0742 12.3671 15.8547 11.9279 15.4155L9.54438 13.0377L4.30413 18.278C4.0928 18.4893 3.82755 18.595 3.50838 18.595C3.18922 18.595 2.92397 18.4893 2.71263 18.278Z" fill="#253858"/>
</svg>
