<svg width="24" height="24" viewBox="0 0 24 24" fill="none" xmlns="http://www.w3.org/2000/svg">
<path d="M6.07175 20.2033C5.44209 20.2033 4.9055 19.9815 4.462 19.538C4.0185 19.0945 3.79675 18.5579 3.79675 17.9283V16.0658C3.79675 15.7466 3.9065 15.4772 4.126 15.2575C4.34567 15.038 4.61509 14.9283 4.93425 14.9283C5.25342 14.9283 5.52284 15.038 5.7425 15.2575C5.962 15.4772 6.07175 15.7466 6.07175 16.0658V17.9283H17.9283V16.0658C17.9283 15.7466 18.038 15.4772 18.2575 15.2575C18.4772 15.038 18.7466 14.9283 19.0658 14.9283C19.3849 14.9283 19.6543 15.038 19.874 15.2575C20.0935 15.4772 20.2033 15.7466 20.2033 16.0658V17.9283C20.2033 18.5579 19.9815 19.0945 19.538 19.538C19.0945 19.9815 18.5579 20.2033 17.9283 20.2033H6.07175ZM10.8625 8.16101L9.125 9.89826C8.90117 10.1263 8.63375 10.2381 8.32275 10.2338C8.01192 10.2294 7.74259 10.1133 7.51475 9.88526C7.29942 9.65743 7.18859 9.39126 7.18225 9.08676C7.17592 8.78226 7.28675 8.51601 7.51475 8.28801L11.1983 4.59826C11.3103 4.48643 11.4346 4.40468 11.5713 4.35301C11.7078 4.30135 11.8507 4.27551 12 4.27551C12.1493 4.27551 12.2923 4.30135 12.4288 4.35301C12.5654 4.40468 12.6898 4.48643 12.8018 4.59826L16.4913 8.28801C16.7153 8.51201 16.8241 8.77726 16.8178 9.08376C16.8114 9.39026 16.7026 9.65543 16.4913 9.87926C16.2634 10.1073 15.9941 10.2244 15.6833 10.2308C15.3723 10.2371 15.1028 10.1263 14.875 9.89826L13.1375 8.16101V14.7908C13.1375 15.1099 13.0278 15.3793 12.8083 15.599C12.5886 15.8185 12.3192 15.9283 12 15.9283C11.6808 15.9283 11.4114 15.8185 11.1918 15.599C10.9723 15.3793 10.8625 15.1099 10.8625 14.7908V8.16101Z" fill="#253858"/>
</svg>
