<svg width="24" height="25" viewBox="0 0 24 25" fill="none" xmlns="http://www.w3.org/2000/svg">
<path d="M0.814697 17.5535C0.814697 16.9508 0.970447 16.3961 1.28195 15.8892C1.59361 15.3824 2.00903 14.996 2.5282 14.73C3.57353 14.2093 4.63745 13.8178 5.71995 13.5555C6.80261 13.2932 7.90195 13.162 9.01795 13.162C10.1418 13.162 11.245 13.2922 12.3277 13.5525C13.4104 13.8128 14.4703 14.2033 15.5074 14.724C16.0268 14.99 16.4422 15.3754 16.7537 15.8802C17.0654 16.3852 17.2212 16.943 17.2212 17.5535V18.2937C17.2212 18.9234 16.9994 19.46 16.5559 19.9035C16.1124 20.347 15.5759 20.5687 14.9462 20.5687H3.0897C2.45986 20.5687 1.92328 20.347 1.47995 19.9035C1.03645 19.46 0.814697 18.9234 0.814697 18.2937V17.5535ZM18.5457 20.5687C18.7729 20.2327 18.9422 19.871 19.0537 19.4835C19.1654 19.096 19.2212 18.6994 19.2212 18.2937V17.4012C19.2212 16.6401 19.017 15.8951 18.6087 15.1662C18.2004 14.4374 17.5933 13.8134 16.7874 13.2942C17.6096 13.3982 18.4006 13.576 19.1604 13.8275C19.9204 14.0792 20.6234 14.378 21.2694 14.724C21.8854 15.0573 22.3588 15.4511 22.6894 15.9052C23.0199 16.3594 23.1852 16.8541 23.1852 17.3892V18.2937C23.1852 18.9234 22.9634 19.46 22.5199 19.9035C22.0766 20.347 21.54 20.5687 20.9102 20.5687H18.5457ZM9.01795 12.162C7.88595 12.162 6.91936 11.7614 6.1182 10.9602C5.31686 10.1589 4.9162 9.19232 4.9162 8.06049C4.9162 6.92866 5.31686 5.96207 6.1182 5.16074C6.91936 4.35941 7.88595 3.95874 9.01795 3.95874C10.1498 3.95874 11.1164 4.35941 11.9177 5.16074C12.7189 5.96207 13.1194 6.92866 13.1194 8.06049C13.1194 9.19232 12.7189 10.1589 11.9177 10.9602C11.1164 11.7614 10.1498 12.162 9.01795 12.162ZM19.3109 8.06049C19.3109 9.18832 18.9093 10.1539 18.1059 10.9572C17.3026 11.7604 16.337 12.162 15.2092 12.162C15.0219 12.162 14.7885 12.1402 14.5092 12.0967C14.2299 12.0531 13.9905 12.0022 13.7912 11.9442C14.2492 11.4029 14.6 10.7992 14.8437 10.1332C15.0874 9.46741 15.2092 8.77649 15.2092 8.06049C15.2092 7.34449 15.0874 6.65357 14.8437 5.98774C14.6 5.32174 14.2492 4.71807 13.7912 4.17674C14.0285 4.08941 14.2639 4.03124 14.4972 4.00224C14.7305 3.97324 14.9679 3.95874 15.2092 3.95874C16.337 3.95874 17.3026 4.36041 18.1059 5.16374C18.9093 5.96707 19.3109 6.93266 19.3109 8.06049Z" fill="#253858"/>
</svg>
