<svg width="24" height="25" viewBox="0 0 24 25" fill="none" xmlns="http://www.w3.org/2000/svg">
<path d="M5.88 17.274C6.73 16.632 7.676 16.1275 8.718 15.7605C9.76 15.3935 10.854 15.21 12 15.21C13.146 15.21 14.243 15.3965 15.291 15.7695C16.339 16.1425 17.282 16.646 18.12 17.28C18.6915 16.5927 19.1358 15.8267 19.4528 14.982C19.7698 14.1372 19.9283 13.2311 19.9283 12.2637C19.9283 10.0709 19.1551 8.20132 17.6088 6.65499C16.0624 5.10865 14.1928 4.33549 12 4.33549C9.80717 4.33549 7.93759 5.10865 6.39125 6.65499C4.84492 8.20132 4.07175 10.0709 4.07175 12.2637C4.07175 13.2271 4.22925 14.1312 4.54425 14.976C4.85925 15.8207 5.3045 16.5867 5.88 17.274ZM12 13.3175C11.0007 13.3175 10.1596 12.977 9.47675 12.296C8.79375 11.615 8.45225 10.7749 8.45225 9.77574C8.45225 8.7764 8.79375 7.93524 9.47675 7.25224C10.1596 6.5694 11.0007 6.22799 12 6.22799C12.9993 6.22799 13.8404 6.5694 14.5233 7.25224C15.2063 7.93524 15.5478 8.7764 15.5478 9.77574C15.5478 10.7749 15.2063 11.615 14.5233 12.296C13.8404 12.977 12.9993 13.3175 12 13.3175ZM12 22.467C10.5888 22.467 9.26292 22.1995 8.02225 21.6645C6.78175 21.1295 5.7015 20.4021 4.7815 19.4822C3.86167 18.5622 3.13425 17.482 2.59925 16.2415C2.06425 15.0008 1.79675 13.6749 1.79675 12.2637C1.79675 10.8526 2.06425 9.52665 2.59925 8.28599C3.13425 7.04549 3.86167 5.96524 4.7815 5.04524C5.7015 4.1254 6.78175 3.39799 8.02225 2.86299C9.26292 2.32799 10.5888 2.06049 12 2.06049C13.4112 2.06049 14.7371 2.32799 15.9778 2.86299C17.2183 3.39799 18.2985 4.1254 19.2185 5.04524C20.1383 5.96524 20.8658 7.04549 21.4008 8.28599C21.9358 9.52665 22.2033 10.8526 22.2033 12.2637C22.2033 13.6749 21.9358 15.0008 21.4008 16.2415C20.8658 17.482 20.1383 18.5622 19.2185 19.4822C18.2985 20.4021 17.2183 21.1295 15.9778 21.6645C14.7371 22.1995 13.4112 22.467 12 22.467Z" fill="#253858"/>
</svg>
