<svg width="24" height="25" viewBox="0 0 24 25" fill="none" xmlns="http://www.w3.org/2000/svg">
<path d="M0.814697 17.5535C0.814697 16.9497 0.970864 16.3947 1.2832 15.8887C1.59553 15.3826 2.01053 14.9963 2.5282 14.73C3.57353 14.2093 4.63736 13.8178 5.7197 13.5555C6.8022 13.2932 7.90161 13.162 9.01795 13.162C10.1418 13.162 11.245 13.2922 12.3277 13.5525C13.4104 13.8128 14.4703 14.2033 15.5074 14.724C16.0251 14.9898 16.4402 15.3752 16.7527 15.8802C17.065 16.3852 17.2212 16.943 17.2212 17.5535V18.2937C17.2212 18.9234 16.9994 19.46 16.5559 19.9035C16.1124 20.347 15.5759 20.5687 14.9462 20.5687H3.0897C2.45986 20.5687 1.92328 20.347 1.47995 19.9035C1.03645 19.46 0.814697 18.9234 0.814697 18.2937V17.5535ZM20.9102 20.5687H18.5457C18.7729 20.2327 18.9422 19.871 19.0537 19.4835C19.1654 19.096 19.2212 18.6994 19.2212 18.2937V17.4012C19.2212 16.6401 19.017 15.8951 18.6087 15.1662C18.2004 14.4374 17.5933 13.8134 16.7874 13.2942C17.6096 13.3982 18.4006 13.576 19.1604 13.8275C19.9204 14.0792 20.6234 14.378 21.2694 14.724C21.8854 15.0573 22.3588 15.4507 22.6894 15.9042C23.0199 16.3576 23.1852 16.8526 23.1852 17.3892V18.2937C23.1852 18.9234 22.9634 19.46 22.5199 19.9035C22.0766 20.347 21.54 20.5687 20.9102 20.5687ZM9.01795 12.162C7.88595 12.162 6.91936 11.7614 6.1182 10.9602C5.31686 10.1589 4.9162 9.19232 4.9162 8.06049C4.9162 6.92866 5.31686 5.96207 6.1182 5.16074C6.91936 4.35941 7.88595 3.95874 9.01795 3.95874C10.1498 3.95874 11.1164 4.35941 11.9177 5.16074C12.7189 5.96207 13.1194 6.92866 13.1194 8.06049C13.1194 9.19232 12.7189 10.1589 11.9177 10.9602C11.1164 11.7614 10.1498 12.162 9.01795 12.162ZM19.3109 8.06049C19.3109 9.18832 18.9094 10.1539 18.1062 10.9572C17.3032 11.7604 16.3379 12.162 15.2102 12.162C15.0222 12.162 14.7885 12.1402 14.5092 12.0967C14.2299 12.0531 13.9905 12.0022 13.7912 11.9442C14.2492 11.4029 14.6 10.7996 14.8437 10.1342C15.0874 9.46891 15.2092 8.77791 15.2092 8.06124C15.2092 7.34474 15.0874 6.65357 14.8437 5.98774C14.6 5.32174 14.2492 4.71807 13.7912 4.17674C14.0285 4.08941 14.2639 4.03124 14.4972 4.00224C14.7305 3.97324 14.9669 3.95874 15.2064 3.95874C16.3351 3.95874 17.3014 4.36041 18.1052 5.16374C18.909 5.96691 19.3109 6.93249 19.3109 8.06049ZM3.0897 18.2937H14.9462V17.5832C14.9462 17.4037 14.9004 17.2406 14.8087 17.0937C14.717 16.9469 14.5962 16.8327 14.4462 16.7512C13.57 16.3172 12.6796 15.9897 11.7749 15.7687C10.8703 15.5476 9.95128 15.437 9.01795 15.437C8.09261 15.437 7.17353 15.5476 6.2607 15.7687C5.34803 15.9897 4.4577 16.3172 3.5897 16.7512C3.4397 16.8327 3.31886 16.9469 3.2272 17.0937C3.13553 17.2406 3.0897 17.4037 3.0897 17.5832V18.2937ZM9.01695 9.97674C9.54361 9.97674 9.99486 9.78924 10.3707 9.41424C10.7464 9.03907 10.9342 8.58816 10.9342 8.06149C10.9342 7.53466 10.7466 7.08341 10.3714 6.70774C9.99645 6.33207 9.54561 6.14424 9.01895 6.14424C8.49211 6.14424 8.04086 6.33174 7.6652 6.70674C7.28953 7.08191 7.1017 7.53282 7.1017 8.05949C7.1017 8.58616 7.2892 9.03741 7.6642 9.41324C8.03936 9.78891 8.49028 9.97674 9.01695 9.97674Z" fill="#253858"/>
</svg>
