<svg width="25" height="25" viewBox="0 0 25 25" fill="none" xmlns="http://www.w3.org/2000/svg">
<path d="M4.18613 20.7307C3.55647 20.7307 3.01988 20.509 2.57638 20.0655C2.13288 19.622 1.91113 19.0854 1.91113 18.4557V6.59922C1.91113 5.96955 2.13288 5.43297 2.57638 4.98947C3.01988 4.54597 3.55647 4.32422 4.18613 4.32422H16.0426C16.6723 4.32422 17.2089 4.54597 17.6524 4.98947C18.0959 5.43297 18.3176 5.96955 18.3176 6.59922V11.0275L21.3481 7.99697C21.5346 7.81047 21.7429 7.7648 21.9729 7.85997C22.2027 7.9553 22.3176 8.13364 22.3176 8.39497V16.66C22.3176 16.9213 22.2027 17.0996 21.9729 17.195C21.7429 17.2901 21.5346 17.2445 21.3481 17.058L18.3176 14.0275V18.4557C18.3176 19.0854 18.0959 19.622 17.6524 20.0655C17.2089 20.509 16.6723 20.7307 16.0426 20.7307H4.18613Z" fill="#253858"/>
</svg>
