<svg width="25" height="24" viewBox="0 0 25 24" fill="none" xmlns="http://www.w3.org/2000/svg">
  <path d="M4.66428 20.2033C4.03462 20.2033 3.49803 19.9815 3.05453 19.538C2.61103 19.0945 2.38928 18.5579 2.38928 17.9283V6.07175C2.38928 5.44209 2.61103 4.9055 3.05453 4.462C3.49803 4.0185 4.03462 3.79675 4.66428 3.79675H16.5208C17.1504 3.79675 17.687 4.0185 18.1305 4.462C18.574 4.9055 18.7958 5.44209 18.7958 6.07175V10.5L21.8263 7.4695C22.0128 7.283 22.221 7.23734 22.451 7.3325C22.6809 7.42784 22.7958 7.60617 22.7958 7.8675V16.1325C22.7958 16.3938 22.6809 16.5722 22.451 16.6675C22.221 16.7627 22.0128 16.717 21.8263 16.5305L18.7958 13.5V17.9283C18.7958 18.5579 18.574 19.0945 18.1305 19.538C17.687 19.9815 17.1504 20.2033 16.5208 20.2033H4.66428ZM4.66428 17.9283H16.5208V6.07175H4.66428V17.9283Z" fill="#253858"/>
</svg>
