<svg width="24" height="25" viewBox="0 0 24 25" fill="none" xmlns="http://www.w3.org/2000/svg">
<path d="M16.8228 20.0063C16.6634 20.1069 16.503 20.2013 16.3415 20.2893C16.1802 20.3773 16.0134 20.457 15.8413 20.5285C15.5793 20.6492 15.3152 20.6482 15.049 20.5255C14.7827 20.4028 14.5995 20.2002 14.4995 19.9175C14.4035 19.6715 14.412 19.4307 14.525 19.195C14.638 18.9593 14.8076 18.7752 15.0338 18.6425C15.1224 18.6045 15.2049 18.5633 15.281 18.519C15.357 18.4745 15.4331 18.4269 15.5093 18.3763L12.1495 15.303V17.9943C12.1495 18.5039 11.9164 18.8573 11.4503 19.0543C10.9841 19.2513 10.5708 19.1694 10.2103 18.8088L6.86852 15.467H3.88652C3.56718 15.467 3.29777 15.3573 3.07827 15.1378C2.85877 14.9181 2.74902 14.6487 2.74902 14.3295V10.198C2.74902 9.87884 2.85877 9.60942 3.07827 9.38975C3.29777 9.17025 3.56718 9.0605 3.88652 9.0605H5.96077L1.92077 4.9905C1.72543 4.79517 1.62877 4.55184 1.63077 4.2605C1.63277 3.96917 1.73143 3.72584 1.92677 3.5305C2.12193 3.33534 2.36518 3.23875 2.65652 3.24075C2.94785 3.24275 3.19118 3.34134 3.38652 3.5365L20.5958 20.8595C20.7909 21.0547 20.8885 21.2979 20.8885 21.5893C20.8885 21.8806 20.7909 22.1239 20.5958 22.3193C20.4004 22.5144 20.1561 22.612 19.8628 22.612C19.5694 22.612 19.3252 22.5144 19.13 22.3193L16.8228 20.0063ZM19.1555 12.2388C19.1555 10.8634 18.7899 9.60592 18.0585 8.46625C17.3272 7.32659 16.3488 6.47142 15.1233 5.90075C14.8654 5.78009 14.6782 5.59292 14.5615 5.33925C14.4449 5.08559 14.4321 4.82784 14.5233 4.566C14.6273 4.28734 14.8134 4.08767 15.0818 3.967C15.3501 3.84634 15.6216 3.84634 15.8963 3.967C17.5169 4.69567 18.8136 5.79934 19.7863 7.278C20.7588 8.7565 21.245 10.4101 21.245 12.2388C21.245 12.7888 21.196 13.3316 21.098 13.8673C21 14.4029 20.8594 14.9188 20.676 15.4148C20.5387 15.7974 20.3276 16.0376 20.0428 16.1353C19.7578 16.2329 19.4926 16.2381 19.2473 16.1508C19.0019 16.0634 18.8055 15.9054 18.658 15.6768C18.5104 15.4481 18.5032 15.1862 18.6365 14.891C18.8119 14.4695 18.9412 14.0399 19.0245 13.6023C19.1079 13.1646 19.1515 12.7101 19.1555 12.2388ZM14.9663 8.641C15.5243 9.01484 15.9603 9.54675 16.2743 10.2368C16.5881 10.9269 16.745 11.6026 16.745 12.2638V12.4838C16.745 12.5593 16.7387 12.6327 16.726 12.704C16.6967 12.9445 16.5671 13.1021 16.3373 13.1768C16.1074 13.2514 15.8992 13.1935 15.7125 13.003L14.4853 11.7698C14.3734 11.6578 14.2895 11.5313 14.2335 11.3905C14.1775 11.2495 14.1495 11.1043 14.1495 10.955V9.09575C14.1495 8.88392 14.241 8.72817 14.424 8.6285C14.6069 8.52884 14.7876 8.533 14.9663 8.641ZM9.73802 6.9805C9.62602 6.86867 9.57102 6.73609 9.57302 6.58275C9.57502 6.42942 9.63202 6.29684 9.74402 6.185L10.2103 5.71875C10.5708 5.35809 10.9841 5.27625 11.4503 5.47325C11.9164 5.67025 12.1495 6.02359 12.1495 6.53325V8.0365C12.1495 8.29784 12.0345 8.47609 11.8045 8.57125C11.5747 8.66659 11.3665 8.621 11.18 8.4345L9.73802 6.9805Z" fill="#253858"/>
</svg>
