<svg width="24" height="25" viewBox="0 0 24 25" fill="none" xmlns="http://www.w3.org/2000/svg">
<path d="M19.1555 12.2387C19.1555 10.8634 18.7898 9.60588 18.0585 8.46621C17.3272 7.32655 16.3488 6.47138 15.1233 5.90071C14.8654 5.78005 14.6782 5.59288 14.5615 5.33922C14.4448 5.08555 14.4321 4.8278 14.5233 4.56597C14.6273 4.2873 14.8134 4.08763 15.0818 3.96696C15.3501 3.8463 15.6216 3.8463 15.8963 3.96696C17.5209 4.69963 18.8186 5.80838 19.7893 7.29321C20.7598 8.77821 21.245 10.4267 21.245 12.2387C21.245 14.0507 20.7598 15.6992 19.7893 17.1842C18.8186 18.669 17.5209 19.7778 15.8963 20.5105C15.6216 20.6311 15.3501 20.6311 15.0818 20.5105C14.8134 20.3898 14.6273 20.1901 14.5233 19.9115C14.4321 19.6496 14.4448 19.3919 14.5615 19.1382C14.6782 18.8845 14.8654 18.6974 15.1233 18.5767C16.3488 18.006 17.3272 17.1509 18.0585 16.0112C18.7898 14.8715 19.1555 13.614 19.1555 12.2387ZM6.87451 15.467H3.8925C3.57317 15.467 3.30376 15.3572 3.08426 15.1377C2.86476 14.918 2.755 14.6486 2.755 14.3295V10.198C2.755 9.8788 2.86476 9.60938 3.08426 9.38971C3.30376 9.17021 3.57317 9.06046 3.8925 9.06046H6.87451L10.2163 5.71872C10.5768 5.35805 10.9901 5.27621 11.4563 5.47321C11.9224 5.67021 12.1555 6.02355 12.1555 6.53322V17.9942C12.1555 18.5039 11.9224 18.8572 11.4563 19.0542C10.9901 19.2512 10.5768 19.1694 10.2163 18.8087L6.87451 15.467ZM16.745 12.2637C16.745 12.9717 16.5828 13.6412 16.2583 14.2722C15.9336 14.9032 15.5049 15.4246 14.9723 15.8365C14.7936 15.9445 14.6128 15.9486 14.43 15.849C14.247 15.7493 14.1555 15.5935 14.1555 15.3817V9.09572C14.1555 8.88388 14.247 8.72913 14.43 8.63147C14.6128 8.5338 14.7936 8.53897 14.9723 8.64697C15.5049 9.07547 15.9336 9.60838 16.2583 10.2457C16.5828 10.883 16.745 11.5557 16.745 12.2637ZM9.88051 9.28696L7.83201 11.3355H5.03V13.192H7.83201L9.88051 15.2405V9.28696Z" fill="#253858"/>
</svg>
