<svg width="24" height="24" viewBox="0 0 24 24" fill="none" xmlns="http://www.w3.org/2000/svg">
<path d="M2.79072 21.1017C2.57956 21.1017 2.38881 21.0493 2.21847 20.9445C2.04814 20.8397 1.91572 20.7015 1.82122 20.53C1.72589 20.36 1.67405 20.1753 1.66572 19.976C1.65739 19.7767 1.70922 19.5822 1.82122 19.3925L11.0055 3.49998C11.1173 3.30948 11.2636 3.16757 11.4442 3.07423C11.6249 2.9809 11.8103 2.93423 12.0005 2.93423C12.1906 2.93423 12.3759 2.9809 12.5562 3.07423C12.7366 3.16757 12.8826 3.30948 12.9945 3.49998L22.1787 19.3925C22.2907 19.5822 22.3426 19.7767 22.3342 19.976C22.3259 20.1753 22.2741 20.36 22.1787 20.53C22.0834 20.6998 21.9508 20.8376 21.781 20.9432C21.611 21.0489 21.4204 21.1017 21.2092 21.1017H2.79072ZM12 17.982C12.2873 17.982 12.5308 17.8822 12.7305 17.6825C12.9301 17.483 13.03 17.2396 13.03 16.9522C13.03 16.6649 12.9301 16.4224 12.7305 16.2247C12.5308 16.0271 12.2873 15.9282 12 15.9282C11.7126 15.9282 11.4691 16.0271 11.2695 16.2247C11.0698 16.4224 10.97 16.6649 10.97 16.9522C10.97 17.2396 11.0698 17.483 11.2695 17.6825C11.4691 17.8822 11.7126 17.982 12 17.982ZM12 15C12.2833 15 12.5208 14.9042 12.7125 14.7125C12.9041 14.5208 13 14.2833 13 14V11.0657C13 10.7824 12.9041 10.5449 12.7125 10.3532C12.5208 10.1616 12.2833 10.0657 12 10.0657C11.7166 10.0657 11.4791 10.1616 11.2875 10.3532C11.0958 10.5449 11 10.7824 11 11.0657V14C11 14.2833 11.0958 14.5208 11.2875 14.7125C11.4791 14.9042 11.7166 15 12 15Z" fill="#253858"/>
</svg>
